<?xml version="1.0" encoding="us-ascii" standalone="no"?><svg xmlns="http://www.w3.org/2000/svg" xmlns:xlink="http://www.w3.org/1999/xlink" contentStyleType="text/css" height="1059px" preserveAspectRatio="none" style="width:1710px;height:1059px;background:#FFFFFF;" version="1.1" viewBox="0 0 1710 1059" width="1710px" zoomAndPan="magnify"><defs/><g><text fill="#000000" font-family="sans-serif" font-size="14" font-weight="bold" lengthAdjust="spacing" textLength="127" x="793.25" y="28.5352">Leet Swap Exploit</text><rect fill="#FFFFFF" height="29.3105" style="stroke:#181818;stroke-width:1.0;" width="10" x="99.5" y="250.3965"/><rect fill="#FFFFFF" height="631.832" style="stroke:#181818;stroke-width:1.0;" width="10" x="442.5" y="221.0859"/><rect fill="#FFFFFF" height="146.5527" style="stroke:#181818;stroke-width:1.0;" width="10" x="892.5" y="353.6387"/><rect fill="#FFFFFF" height="102.9316" style="stroke:#181818;stroke-width:1.0;" width="10" x="892.5" y="749.9863"/><rect fill="#FFFFFF" height="87.9316" style="stroke:#181818;stroke-width:1.0;" width="10" x="1118.5" y="412.2598"/><rect fill="#FFFFFF" height="29.3105" style="stroke:#181818;stroke-width:1.0;" width="10" x="1118.5" y="529.502"/><rect fill="#FFFFFF" height="29.3105" style="stroke:#181818;stroke-width:1.0;" width="10" x="1118.5" y="588.123"/><rect fill="#FFFFFF" height="29.3105" style="stroke:#181818;stroke-width:1.0;" width="10" x="1118.5" y="646.7441"/><line style="stroke:#181818;stroke-width:0.5;stroke-dasharray:5.0,5.0;" x1="36" x2="36" y1="118.9766" y2="861.918"/><line style="stroke:#181818;stroke-width:0.5;stroke-dasharray:5.0,5.0;" x1="104" x2="104" y1="118.9766" y2="861.918"/><line style="stroke:#181818;stroke-width:0.5;stroke-dasharray:5.0,5.0;" x1="447.5" x2="447.5" y1="159.7207" y2="861.918"/><line style="stroke:#181818;stroke-width:0.5;stroke-dasharray:5.0,5.0;" x1="897.5" x2="897.5" y1="118.9766" y2="861.918"/><line style="stroke:#181818;stroke-width:0.5;stroke-dasharray:5.0,5.0;" x1="1123.5" x2="1123.5" y1="118.9766" y2="861.918"/><line style="stroke:#181818;stroke-width:0.5;stroke-dasharray:5.0,5.0;" x1="1440.5" x2="1440.5" y1="118.9766" y2="861.918"/><line style="stroke:#181818;stroke-width:0.5;stroke-dasharray:5.0,5.0;" x1="1630.5" x2="1630.5" y1="118.9766" y2="861.918"/><text fill="#000000" font-family="sans-serif" font-size="14" lengthAdjust="spacing" textLength="57" x="5" y="116.0234">Attacker</text><ellipse cx="36.5" cy="50.9883" fill="#E2E2F0" rx="8" ry="8" style="stroke:#181818;stroke-width:0.5;"/><path d="M36.5,58.9883 L36.5,85.9883 M23.5,66.9883 L49.5,66.9883 M36.5,85.9883 L23.5,100.9883 M36.5,85.9883 L49.5,100.9883 " fill="none" style="stroke:#181818;stroke-width:0.5;"/><text fill="#000000" font-family="sans-serif" font-size="14" lengthAdjust="spacing" textLength="57" x="5" y="874.4531">Attacker</text><ellipse cx="36.5" cy="885.9063" fill="#E2E2F0" rx="8" ry="8" style="stroke:#181818;stroke-width:0.5;"/><path d="M36.5,893.9063 L36.5,920.9063 M23.5,901.9063 L49.5,901.9063 M36.5,920.9063 L23.5,935.9063 M36.5,920.9063 L49.5,935.9063 " fill="none" style="stroke:#181818;stroke-width:0.5;"/><rect fill="#E2E2F0" height="30.4883" rx="2.5" ry="2.5" style="stroke:#181818;stroke-width:0.5;" width="53" x="78" y="87.4883"/><text fill="#000000" font-family="sans-serif" font-size="14" lengthAdjust="spacing" textLength="39" x="85" y="108.0234">WETH</text><rect fill="#E2E2F0" height="30.4883" rx="2.5" ry="2.5" style="stroke:#181818;stroke-width:0.5;" width="53" x="78" y="860.918"/><text fill="#000000" font-family="sans-serif" font-size="14" lengthAdjust="spacing" textLength="39" x="85" y="881.4531">WETH</text><rect fill="#E2E2F0" height="30.4883" rx="2.5" ry="2.5" style="stroke:#181818;stroke-width:0.5;" width="120" x="387.5" y="860.918"/><text fill="#000000" font-family="sans-serif" font-size="14" lengthAdjust="spacing" textLength="106" x="394.5" y="881.4531">Attack Contract</text><rect fill="#E2E2F0" height="30.4883" rx="2.5" ry="2.5" style="stroke:#181818;stroke-width:0.5;" width="154" x="820.5" y="87.4883"/><text fill="#000000" font-family="sans-serif" font-size="14" lengthAdjust="spacing" textLength="140" x="827.5" y="108.0234">Leet Swap V2 Router</text><rect fill="#E2E2F0" height="30.4883" rx="2.5" ry="2.5" style="stroke:#181818;stroke-width:0.5;" width="154" x="820.5" y="860.918"/><text fill="#000000" font-family="sans-serif" font-size="14" lengthAdjust="spacing" textLength="140" x="827.5" y="881.4531">Leet Swap V2 Router</text><rect fill="#E2E2F0" height="30.4883" rx="2.5" ry="2.5" style="stroke:#181818;stroke-width:0.5;" width="230" x="1008.5" y="87.4883"/><text fill="#000000" font-family="sans-serif" font-size="14" lengthAdjust="spacing" textLength="216" x="1015.5" y="108.0234">Leet Swap axlUSDC / WETH pair</text><rect fill="#E2E2F0" height="30.4883" rx="2.5" ry="2.5" style="stroke:#181818;stroke-width:0.5;" width="230" x="1008.5" y="860.918"/><text fill="#000000" font-family="sans-serif" font-size="14" lengthAdjust="spacing" textLength="216" x="1015.5" y="881.4531">Leet Swap axlUSDC / WETH pair</text><rect fill="#E2E2F0" height="30.4883" rx="2.5" ry="2.5" style="stroke:#181818;stroke-width:0.5;" width="202" x="1339.5" y="87.4883"/><text fill="#000000" font-family="sans-serif" font-size="14" lengthAdjust="spacing" textLength="188" x="1346.5" y="108.0234">Leet Swap V2 Fees Contract</text><rect fill="#E2E2F0" height="30.4883" rx="2.5" ry="2.5" style="stroke:#181818;stroke-width:0.5;" width="202" x="1339.5" y="860.918"/><text fill="#000000" font-family="sans-serif" font-size="14" lengthAdjust="spacing" textLength="188" x="1346.5" y="881.4531">Leet Swap V2 Fees Contract</text><text fill="#000000" font-family="sans-serif" font-size="14" lengthAdjust="spacing" textLength="152" x="1551.5" y="116.0234">Protocol Fee Recipient</text><ellipse cx="1630.5" cy="50.9883" fill="#E2E2F0" rx="8" ry="8" style="stroke:#181818;stroke-width:0.5;"/><path d="M1630.5,58.9883 L1630.5,85.9883 M1617.5,66.9883 L1643.5,66.9883 M1630.5,85.9883 L1617.5,100.9883 M1630.5,85.9883 L1643.5,100.9883 " fill="none" style="stroke:#181818;stroke-width:0.5;"/><text fill="#000000" font-family="sans-serif" font-size="14" lengthAdjust="spacing" textLength="152" x="1551.5" y="874.4531">Protocol Fee Recipient</text><ellipse cx="1630.5" cy="885.9063" fill="#E2E2F0" rx="8" ry="8" style="stroke:#181818;stroke-width:0.5;"/><path d="M1630.5,893.9063 L1630.5,920.9063 M1617.5,901.9063 L1643.5,901.9063 M1630.5,920.9063 L1617.5,935.9063 M1630.5,920.9063 L1643.5,935.9063 " fill="none" style="stroke:#181818;stroke-width:0.5;"/><rect fill="#FFFFFF" height="29.3105" style="stroke:#181818;stroke-width:1.0;" width="10" x="99.5" y="250.3965"/><rect fill="#FFFFFF" height="631.832" style="stroke:#181818;stroke-width:1.0;" width="10" x="442.5" y="221.0859"/><rect fill="#FFFFFF" height="146.5527" style="stroke:#181818;stroke-width:1.0;" width="10" x="892.5" y="353.6387"/><rect fill="#FFFFFF" height="102.9316" style="stroke:#181818;stroke-width:1.0;" width="10" x="892.5" y="749.9863"/><rect fill="#FFFFFF" height="87.9316" style="stroke:#181818;stroke-width:1.0;" width="10" x="1118.5" y="412.2598"/><rect fill="#FFFFFF" height="29.3105" style="stroke:#181818;stroke-width:1.0;" width="10" x="1118.5" y="529.502"/><rect fill="#FFFFFF" height="29.3105" style="stroke:#181818;stroke-width:1.0;" width="10" x="1118.5" y="588.123"/><rect fill="#FFFFFF" height="29.3105" style="stroke:#181818;stroke-width:1.0;" width="10" x="1118.5" y="646.7441"/><polygon fill="#181818" points="375.5,146.2871,385.5,150.2871,375.5,154.2871,379.5,150.2871" style="stroke:#181818;stroke-width:1.0;"/><line style="stroke:#181818;stroke-width:1.0;" x1="36.5" x2="381.5" y1="150.2871" y2="150.2871"/><text fill="#000000" font-family="sans-serif" font-size="13" font-weight="bold" lengthAdjust="spacing" textLength="33" x="74" y="145.5449">1.1.1</text><text fill="#000000" font-family="sans-serif" font-size="13" lengthAdjust="spacing" textLength="179" x="111" y="145.5449">Deploy the contract at block</text><text fill="#000000" font-family="sans-serif" font-size="13" font-style="italic" lengthAdjust="spacing" textLength="56" x="294" y="145.5449">2031731</text><rect fill="#E2E2F0" height="30.4883" rx="2.5" ry="2.5" style="stroke:#181818;stroke-width:0.5;" width="120" x="387.5" y="128.9766"/><text fill="#000000" font-family="sans-serif" font-size="14" lengthAdjust="spacing" textLength="106" x="394.5" y="149.5117">Attack Contract</text><polygon fill="#008000" points="435.5,187.7754,445.5,191.7754,435.5,195.7754,439.5,191.7754" style="stroke:#008000;stroke-width:1.0;"/><line style="stroke:#008000;stroke-width:1.0;" x1="36.5" x2="441.5" y1="191.7754" y2="191.7754"/><text fill="#000000" font-family="sans-serif" font-size="13" font-weight="bold" lengthAdjust="spacing" textLength="33" x="96.5" y="187.0332">2.1.1</text><text fill="#000000" font-family="sans-serif" font-size="13" lengthAdjust="spacing" textLength="142" x="133.5" y="187.0332">Fund the contract with</text><text fill="#000000" font-family="sans-serif" font-size="13" font-style="italic" lengthAdjust="spacing" textLength="36" x="279.5" y="187.0332">0.001</text><text fill="#000000" font-family="sans-serif" font-size="13" lengthAdjust="spacing" textLength="68" x="319.5" y="187.0332">ETH (1e15)</text><polygon fill="#181818" points="430.5,217.0859,440.5,221.0859,430.5,225.0859,434.5,221.0859" style="stroke:#181818;stroke-width:1.0;"/><line style="stroke:#181818;stroke-width:1.0;" x1="36.5" x2="436.5" y1="221.0859" y2="221.0859"/><text fill="#000000" font-family="sans-serif" font-size="13" font-weight="bold" lengthAdjust="spacing" textLength="33" x="92.5" y="216.3438">3.1.1</text><text fill="#000000" font-family="sans-serif" font-size="13" lengthAdjust="spacing" textLength="76" x="129.5" y="216.3438">Call method</text><text fill="#000000" font-family="sans-serif" font-size="13" font-style="italic" lengthAdjust="spacing" textLength="62" x="209.5" y="216.3438">e2d6a23b</text><text fill="#000000" font-family="sans-serif" font-size="13" lengthAdjust="spacing" textLength="51" x="275.5" y="216.3438">at block</text><text fill="#000000" font-family="sans-serif" font-size="13" font-style="italic" lengthAdjust="spacing" textLength="56" x="330.5" y="216.3438">2031747</text><polygon fill="#008000" points="120.5,246.3965,110.5,250.3965,120.5,254.3965,116.5,250.3965" style="stroke:#008000;stroke-width:1.0;"/><line style="stroke:#008000;stroke-width:1.0;" x1="114.5" x2="441.5" y1="250.3965" y2="250.3965"/><text fill="#000000" font-family="sans-serif" font-size="13" font-weight="bold" lengthAdjust="spacing" textLength="33" x="177" y="245.6543">3.2.1</text><text fill="#000000" font-family="sans-serif" font-size="13" lengthAdjust="spacing" textLength="161" x="214" y="245.6543">Deposit 0.001 ETH (1e15)</text><polygon fill="#0000FF" points="430.5,275.707,440.5,279.707,430.5,283.707,434.5,279.707" style="stroke:#0000FF;stroke-width:1.0;"/><line style="stroke:#0000FF;stroke-width:1.0;" x1="104.5" x2="436.5" y1="279.707" y2="279.707"/><text fill="#000000" font-family="sans-serif" font-size="13" font-weight="bold" lengthAdjust="spacing" textLength="33" x="179.5" y="274.9648">3.2.2</text><text fill="#000000" font-family="sans-serif" font-size="13" lengthAdjust="spacing" textLength="151" x="216.5" y="274.9648">Mint 0.001 WETH (1e15)</text><polygon fill="#181818" points="115.5,305.0176,105.5,309.0176,115.5,313.0176,111.5,309.0176" style="stroke:#181818;stroke-width:1.0;"/><line style="stroke:#181818;stroke-width:1.0;" x1="109.5" x2="441.5" y1="309.0176" y2="309.0176"/><text fill="#000000" font-family="sans-serif" font-size="13" font-weight="bold" lengthAdjust="spacing" textLength="33" x="116.5" y="304.2754">3.3.1</text><text fill="#000000" font-family="sans-serif" font-size="13" lengthAdjust="spacing" textLength="52" x="153.5" y="304.2754">Approve</text><text fill="#000000" font-family="sans-serif" font-size="13" font-style="italic" lengthAdjust="spacing" textLength="115" x="209.5" y="304.2754">LeetSwapRouterV2</text><text fill="#000000" font-family="sans-serif" font-size="13" lengthAdjust="spacing" textLength="102" x="328.5" y="304.2754">for max uint256</text><polygon fill="#181818" points="880.5,349.6387,890.5,353.6387,880.5,357.6387,884.5,353.6387" style="stroke:#181818;stroke-width:1.0;"/><line style="stroke:#181818;stroke-width:1.0;" x1="452.5" x2="886.5" y1="353.6387" y2="353.6387"/><text fill="#000000" font-family="sans-serif" font-size="13" font-weight="bold" lengthAdjust="spacing" textLength="33" x="462" y="341.2412">3.4.1</text><text fill="#000000" font-family="sans-serif" font-size="13" lengthAdjust="spacing" textLength="152" x="499" y="333.5859">Swap WETH for axlUSDC</text><text fill="#000000" font-family="sans-serif" font-size="13" font-style="italic" lengthAdjust="spacing" textLength="384" x="499" y="348.8965">swapExactTokensForTokensSupportingFeeOnTransferTokens</text><polygon fill="#0000FF" points="1111.5,378.9492,1121.5,382.9492,1111.5,386.9492,1115.5,382.9492" style="stroke:#0000FF;stroke-width:1.0;"/><line style="stroke:#0000FF;stroke-width:1.0;" x1="452.5" x2="1117.5" y1="382.9492" y2="382.9492"/><text fill="#000000" font-family="sans-serif" font-size="13" font-weight="bold" lengthAdjust="spacing" textLength="33" x="682" y="378.207">3.4.2</text><text fill="#000000" font-family="sans-serif" font-size="13" lengthAdjust="spacing" textLength="175" x="719" y="378.207">Transfer 0.001 WETH (1e15)</text><polygon fill="#181818" points="1106.5,408.2598,1116.5,412.2598,1106.5,416.2598,1110.5,412.2598" style="stroke:#181818;stroke-width:1.0;"/><line style="stroke:#181818;stroke-width:1.0;" x1="902.5" x2="1112.5" y1="412.2598" y2="412.2598"/><text fill="#000000" font-family="sans-serif" font-size="13" font-weight="bold" lengthAdjust="spacing" textLength="33" x="912" y="407.5176">3.4.3</text><text fill="#000000" font-family="sans-serif" font-size="13" font-style="italic" lengthAdjust="spacing" textLength="40" x="949" y="407.5176">swap()</text><text fill="#000000" font-family="sans-serif" font-size="13" lengthAdjust="spacing" textLength="116" x="993" y="407.5176">WETH for axlUSDC</text><polygon fill="#FF0000" points="463.5,437.5703,453.5,441.5703,463.5,445.5703,459.5,441.5703" style="stroke:#FF0000;stroke-width:1.0;"/><line style="stroke:#FF0000;stroke-width:1.0;" x1="457.5" x2="1117.5" y1="441.5703" y2="441.5703"/><text fill="#000000" font-family="sans-serif" font-size="13" font-weight="bold" lengthAdjust="spacing" textLength="33" x="660.5" y="436.8281">3.4.4</text><text fill="#000000" font-family="sans-serif" font-size="13" lengthAdjust="spacing" textLength="213" x="697.5" y="436.8281">Transfer 1.796 axlUSDC (1.796e6)</text><polygon fill="#0000FF" points="1428.5,466.8809,1438.5,470.8809,1428.5,474.8809,1432.5,470.8809" style="stroke:#0000FF;stroke-width:1.0;"/><line style="stroke:#0000FF;stroke-width:1.0;" x1="1128.5" x2="1434.5" y1="470.8809" y2="470.8809"/><text fill="#000000" font-family="sans-serif" font-size="13" font-weight="bold" lengthAdjust="spacing" textLength="33" x="1145" y="466.1387">3.4.5</text><text fill="#000000" font-family="sans-serif" font-size="13" lengthAdjust="spacing" textLength="242" x="1182" y="466.1387">Transfer 0.0000015 WETH fee (1.5e12)</text><polygon fill="#0000FF" points="1618.5,496.1914,1628.5,500.1914,1618.5,504.1914,1622.5,500.1914" style="stroke:#0000FF;stroke-width:1.0;"/><line style="stroke:#0000FF;stroke-width:1.0;" x1="1123.5" x2="1624.5" y1="500.1914" y2="500.1914"/><text fill="#000000" font-family="sans-serif" font-size="13" font-weight="bold" lengthAdjust="spacing" textLength="33" x="1237.5" y="495.4492">3.4.6</text><text fill="#000000" font-family="sans-serif" font-size="13" lengthAdjust="spacing" textLength="242" x="1274.5" y="495.4492">Transfer 0.0000015 WETH fee (1.5e12)</text><polygon fill="#181818" points="1106.5,525.502,1116.5,529.502,1106.5,533.502,1110.5,529.502" style="stroke:#181818;stroke-width:1.0;"/><line style="stroke:#181818;stroke-width:1.0;" x1="452.5" x2="1112.5" y1="529.502" y2="529.502"/><text fill="#000000" font-family="sans-serif" font-size="13" font-weight="bold" lengthAdjust="spacing" textLength="33" x="588" y="524.7598">3.5.1</text><text fill="#000000" font-family="sans-serif" font-size="13" lengthAdjust="spacing" textLength="358" x="625" y="524.7598">Check the balanceOf axlUSDC of the axlUSDC/WETH pair</text><polygon fill="#181818" points="463.5,554.8125,453.5,558.8125,463.5,562.8125,459.5,558.8125" style="stroke:#181818;stroke-width:1.0;"/><line style="stroke:#181818;stroke-width:1.0;stroke-dasharray:2.0,2.0;" x1="457.5" x2="1122.5" y1="558.8125" y2="558.8125"/><text fill="#000000" font-family="sans-serif" font-size="13" font-weight="bold" lengthAdjust="spacing" textLength="33" x="711" y="554.0703">3.5.2</text><text fill="#000000" font-family="sans-serif" font-size="13" lengthAdjust="spacing" textLength="117" x="748" y="554.0703">2.165e11 axlUSDC</text><polygon fill="#181818" points="1106.5,584.123,1116.5,588.123,1106.5,592.123,1110.5,588.123" style="stroke:#181818;stroke-width:1.0;"/><line style="stroke:#181818;stroke-width:1.0;" x1="452.5" x2="1112.5" y1="588.123" y2="588.123"/><text fill="#000000" font-family="sans-serif" font-size="13" font-weight="bold" lengthAdjust="spacing" textLength="33" x="577.5" y="583.3809">3.6.1</text><text fill="#000000" font-family="sans-serif" font-size="13" lengthAdjust="spacing" textLength="24" x="614.5" y="583.3809">Call</text><text fill="#000000" font-family="sans-serif" font-size="13" font-style="italic" lengthAdjust="spacing" textLength="351" x="642.5" y="583.3809">_transferFeesSupportingTaxTokens(axlUSDC, 2.165e11)</text><polygon fill="#FF0000" points="1428.5,613.4336,1438.5,617.4336,1428.5,621.4336,1432.5,617.4336" style="stroke:#FF0000;stroke-width:1.0;"/><line style="stroke:#FF0000;stroke-width:1.0;" x1="1123.5" x2="1434.5" y1="617.4336" y2="617.4336"/><text fill="#000000" font-family="sans-serif" font-size="13" font-weight="bold" lengthAdjust="spacing" textLength="33" x="1138" y="612.6914">3.6.2</text><text fill="#000000" font-family="sans-serif" font-size="13" lengthAdjust="spacing" textLength="251" x="1175" y="612.6914">Transfer 2.165e11 axlUSDC (everything)</text><polygon fill="#181818" points="1106.5,642.7441,1116.5,646.7441,1106.5,650.7441,1110.5,646.7441" style="stroke:#181818;stroke-width:1.0;"/><line style="stroke:#181818;stroke-width:1.0;" x1="452.5" x2="1112.5" y1="646.7441" y2="646.7441"/><text fill="#000000" font-family="sans-serif" font-size="13" font-weight="bold" lengthAdjust="spacing" textLength="33" x="662.5" y="642.002">3.7.1</text><text fill="#000000" font-family="sans-serif" font-size="13" lengthAdjust="spacing" textLength="24" x="699.5" y="642.002">Call</text><text fill="#000000" font-family="sans-serif" font-size="13" font-style="italic" lengthAdjust="spacing" textLength="37" x="727.5" y="642.002">Sync()</text><text fill="#000000" font-family="sans-serif" font-size="13" lengthAdjust="spacing" textLength="140" x="768.5" y="642.002">to update the reserves</text><polygon fill="#181818" points="463.5,672.0547,453.5,676.0547,463.5,680.0547,459.5,676.0547" style="stroke:#181818;stroke-width:1.0;"/><line style="stroke:#181818;stroke-width:1.0;stroke-dasharray:2.0,2.0;" x1="457.5" x2="1122.5" y1="676.0547" y2="676.0547"/><text fill="#000000" font-family="sans-serif" font-size="13" font-weight="bold" lengthAdjust="spacing" textLength="33" x="630.5" y="671.3125">3.7.2</text><text fill="#000000" font-family="sans-serif" font-size="13" lengthAdjust="spacing" textLength="278" x="667.5" y="671.3125">Pair Reserves: 1.201e20 WETH, 1e4 axlUSDC</text><polygon fill="#181818" points="885.5,701.3652,895.5,705.3652,885.5,709.3652,889.5,705.3652" style="stroke:#181818;stroke-width:1.0;"/><line style="stroke:#181818;stroke-width:1.0;" x1="452.5" x2="891.5" y1="705.3652" y2="705.3652"/><text fill="#000000" font-family="sans-serif" font-size="13" font-weight="bold" lengthAdjust="spacing" textLength="33" x="556.5" y="700.623">3.8.1</text><text fill="#000000" font-family="sans-serif" font-size="13" lengthAdjust="spacing" textLength="200" x="593.5" y="700.623">Approve router for max uint256</text><polygon fill="#181818" points="880.5,745.9863,890.5,749.9863,880.5,753.9863,884.5,749.9863" style="stroke:#181818;stroke-width:1.0;"/><line style="stroke:#181818;stroke-width:1.0;" x1="452.5" x2="886.5" y1="749.9863" y2="749.9863"/><text fill="#000000" font-family="sans-serif" font-size="13" font-weight="bold" lengthAdjust="spacing" textLength="33" x="462" y="737.5889">3.9.1</text><text fill="#000000" font-family="sans-serif" font-size="13" lengthAdjust="spacing" textLength="207" x="499" y="729.9336">Swap 1.616e6 axlUSDC for WETH</text><text fill="#000000" font-family="sans-serif" font-size="13" font-style="italic" lengthAdjust="spacing" textLength="384" x="499" y="745.2441">swapExactTokensForTokensSupportingFeeOnTransferTokens</text><polygon fill="#181818" points="1111.5,775.2969,1121.5,779.2969,1111.5,783.2969,1115.5,779.2969" style="stroke:#181818;stroke-width:1.0;"/><line style="stroke:#181818;stroke-width:1.0;" x1="902.5" x2="1117.5" y1="779.2969" y2="779.2969"/><text fill="#000000" font-family="sans-serif" font-size="13" font-weight="bold" lengthAdjust="spacing" textLength="33" x="978.5" y="774.5547">3.9.2</text><text fill="#000000" font-family="sans-serif" font-size="13" lengthAdjust="spacing" textLength="32" x="1015.5" y="774.5547">Swap</text><path d="M907,792.2969 L907,817.2969 L1329,817.2969 L1329,802.2969 L1319,792.2969 L907,792.2969 " fill="#FEFFDD" style="stroke:#181818;stroke-width:0.5;"/><path d="M1319,792.2969 L1319,802.2969 L1329,802.2969 L1319,792.2969 " fill="#FEFFDD" style="stroke:#181818;stroke-width:0.5;"/><text fill="#000000" font-family="sans-serif" font-size="13" lengthAdjust="spacing" textLength="401" x="913" y="809.8652">This is the same as the previous swap, only tokens are inversed</text><polygon fill="#0000FF" points="463.5,839.918,453.5,843.918,463.5,847.918,459.5,843.918" style="stroke:#0000FF;stroke-width:1.0;"/><line style="stroke:#0000FF;stroke-width:1.0;" x1="457.5" x2="1122.5" y1="843.918" y2="843.918"/><text fill="#000000" font-family="sans-serif" font-size="13" font-weight="bold" lengthAdjust="spacing" textLength="33" x="692" y="839.1758">3.9.3</text><text fill="#000000" font-family="sans-serif" font-size="13" lengthAdjust="spacing" textLength="155" x="729" y="839.1758">Transfer 1.194e20 WETH</text><text fill="#888888" font-family="sans-serif" font-size="10" lengthAdjust="spacing" textLength="265" x="724.25" y="1049.0273">Leet Swap - Exploit Sequence | author: @kamilchmielu</text><rect fill="#DDDDDD" height="75.9531" id="_legend" rx="7.5" ry="7.5" style="stroke:#000000;stroke-width:1.0;" width="198" x="757.75" y="950.4063"/><line style="stroke:#000000;stroke-width:1.0;" x1="757.75" x2="827.75" y1="963.6504" y2="963.6504"/><line style="stroke:#000000;stroke-width:1.0;" x1="757.75" x2="827.75" y1="965.6504" y2="965.6504"/><text fill="#000000" font-family="sans-serif" font-size="14" lengthAdjust="spacing" textLength="50" x="831.75" y="968.4414">Legend</text><line style="stroke:#000000;stroke-width:1.0;" x1="885.75" x2="955.75" y1="963.6504" y2="963.6504"/><line style="stroke:#000000;stroke-width:1.0;" x1="885.75" x2="955.75" y1="965.6504" y2="965.6504"/><text fill="#0000FF" font-family="sans-serif" font-size="14" lengthAdjust="spacing" textLength="29" x="762.75" y="985.4297">Blue</text><text fill="#000000" font-family="sans-serif" font-size="14" lengthAdjust="spacing" textLength="134" x="795.75" y="985.4297">- WETH tokens flow</text><text fill="#FF0000" font-family="sans-serif" font-size="14" lengthAdjust="spacing" textLength="26" x="762.75" y="1001.918">Red</text><text fill="#000000" font-family="sans-serif" font-size="14" lengthAdjust="spacing" textLength="158" x="792.75" y="1001.918">- axl USDC tokens flow</text><text fill="#008000" font-family="sans-serif" font-size="14" lengthAdjust="spacing" textLength="41" x="762.75" y="1018.4063">Green</text><text fill="#000000" font-family="sans-serif" font-size="14" lengthAdjust="spacing" textLength="118" x="807.75" y="1018.4063">- Native ETH flow</text><!--SRC=[lLTjK-Cs4FxkNx53Fn3kI1mR4kQOWsd8GTkPUs48XGzjfwVOcqI38xcId9TU-z-xaksyEMHeeGWcu-nwdzrzjBjI33S9maT40xqfI-5obYQI6y_pzy5_zl9y7xQktbmR7CCrKuP7F6N2Q7XaEPJdBjZtFOz5HYhOwnZ3eWTKUy0qb5-yT1aAxDrVtlxerFPXNPKRG5SAemXm1QGKhR-_fFOkX1kPcSAnbLlnNPWBuJ4pDaj-xdteWk-2WPJn8dAIwpYwHpEw9jaEhrU8UZtWfNEhAucvLjB8I2RM06wGi3YAtA1KaMQX-BzhXDPFWfYXwBWKZzR7ozR8_kTit4UbWIa4Bi2C43gDYqON1bADcJc4_XmYbYHS3E4h5n5qli9SPZ3bIK86aKAcqPaDkD86XCEpLi6-np8Z2q7Ge3-lB3-edszK4Rnv0wVm0QaTvmukAXNCG3-HL8E-7pQFWfEZmBV5lOHsKQr0__BTK26AtoekJk4g4_4w-fIR4I4t6yqcuO8jkLg0GUjWfuiAzDktXDubdc1C1IfZWiGmRhFmg4-ecoaSdsn9uSBRm5n9nBM2yq4CISqDk81NmtMla4a_oR2QUhrEjf-uA0tlToHQ3QG8u1GwQQha12cFigNoRhuBAKkg61Yp6MJa9corduHR6GikITV9pgN5B2R2hyBtDIakPsHxAnzGw2kfyeTUbgQIve4OKiT-4RUA2Jt0GabSLvajQLgVAkIxjDr2L2NOUXN0nPy7MZlm_KeMtgO1nQ8mtbQiYqY2nicxzc8mrjnNR1ziWohIMXzucrdH2bf5P3Jw2B25GRWBRziyp6lgIS0nsg4sOGQVL1HREUsEa1h8zcwV9Kn4-6Mme4GEdABuwYyE3a-XoPI0i16qAP9WiGd_FGhRuhx_kodIjlGkY- -MpVAIgnME3XUk3smLFhRr6zkrJkncy5332Qgv6P73WsTdqfkBo1MgaP2bCMsHerAXHZMXix9WqDdT5C9JgiYm6M3OT7jz204U_ojgAusqd2mg5xpmB0aQxO1QPa6XXRUXFsUcF6KQvEuz8ObMnOSZOqjrI_Qt8ww1_YtrcetHta7iSwfmmcMcmGPv258aT3Yw08e3cof1OmmxMdVRGR0oMO9tn-K-li85XzP7728TmhlNorrm4kVEiw1dPwNpipCdU3yWLkWga4XrPjawlw2FzxwLdaCzdsC5suD4JYisrBpdDnWlBQYymDNNBYjtff__O3-NbfyPpKTqvxapeYYBo5zbKtfcxcvuhxGf-e4Bkh-pCMZy8qCQvfzGQpR4JiA70YAqz-2Ljrp_V7DCNaWLe-fQ9kbEHPMTI-bXIAD3nBbcEk9qrbZD5H6y-lRVAx2hFo6-BTxkyJyHmjPMtCJsy52nEU5u0objzov_UzJBdvFGAzA2lu06rqYgK_Z-WOrv4et679Fi7m00]--></g></svg>