<?xml version="1.0" encoding="us-ascii" standalone="no"?><svg xmlns="http://www.w3.org/2000/svg" xmlns:xlink="http://www.w3.org/1999/xlink" contentStyleType="text/css" height="1272px" preserveAspectRatio="none" style="width:2301px;height:1272px;background:#FFFFFF;" version="1.1" viewBox="0 0 2301 1272" width="2301px" zoomAndPan="magnify"><defs/><g><text fill="#000000" font-family="sans-serif" font-size="14" font-weight="bold" lengthAdjust="spacing" textLength="241" x="1029.5" y="28.5352">Where does the yield come from?</text><rect fill="none" height="105.2422" style="stroke:#000000;stroke-width:1.5;" width="420" x="263" y="186.5977"/><rect fill="none" height="75.9316" style="stroke:#000000;stroke-width:1.5;" width="777.5" x="626" y="466.7031"/><rect fill="none" height="192.1738" style="stroke:#000000;stroke-width:1.5;" width="1201.5" x="367" y="653.5898"/><rect fill="none" height="75.9316" style="stroke:#000000;stroke-width:1.5;" width="673" x="10" y="859.7637"/><rect fill="none" height="75.9316" style="stroke:#000000;stroke-width:1.5;" width="673" x="10" y="949.6953"/><line style="stroke:#181818;stroke-width:0.5;stroke-dasharray:5.0,5.0;" x1="141" x2="141" y1="118.9766" y2="549.6348"/><line style="stroke:#A80036;stroke-width:1.0;stroke-dasharray:1.0,4.0;" x1="141" x2="141" y1="549.6348" y2="577.6348"/><line style="stroke:#181818;stroke-width:0.5;stroke-dasharray:5.0,5.0;" x1="141" x2="141" y1="577.6348" y2="577.6348"/><line style="stroke:#A80036;stroke-width:1.0;stroke-dasharray:1.0,4.0;" x1="141" x2="141" y1="577.6348" y2="618.5898"/><line style="stroke:#181818;stroke-width:0.5;stroke-dasharray:5.0,5.0;" x1="141" x2="141" y1="618.5898" y2="618.5898"/><line style="stroke:#A80036;stroke-width:1.0;stroke-dasharray:1.0,4.0;" x1="141" x2="141" y1="618.5898" y2="646.5898"/><line style="stroke:#181818;stroke-width:0.5;stroke-dasharray:5.0,5.0;" x1="141" x2="141" y1="646.5898" y2="1042.627"/><line style="stroke:#181818;stroke-width:0.5;stroke-dasharray:5.0,5.0;" x1="320" x2="320" y1="118.9766" y2="549.6348"/><line style="stroke:#A80036;stroke-width:1.0;stroke-dasharray:1.0,4.0;" x1="320" x2="320" y1="549.6348" y2="577.6348"/><line style="stroke:#181818;stroke-width:0.5;stroke-dasharray:5.0,5.0;" x1="320" x2="320" y1="577.6348" y2="577.6348"/><line style="stroke:#A80036;stroke-width:1.0;stroke-dasharray:1.0,4.0;" x1="320" x2="320" y1="577.6348" y2="618.5898"/><line style="stroke:#181818;stroke-width:0.5;stroke-dasharray:5.0,5.0;" x1="320" x2="320" y1="618.5898" y2="618.5898"/><line style="stroke:#A80036;stroke-width:1.0;stroke-dasharray:1.0,4.0;" x1="320" x2="320" y1="618.5898" y2="646.5898"/><line style="stroke:#181818;stroke-width:0.5;stroke-dasharray:5.0,5.0;" x1="320" x2="320" y1="646.5898" y2="1042.627"/><line style="stroke:#181818;stroke-width:0.5;stroke-dasharray:5.0,5.0;" x1="491" x2="491" y1="118.9766" y2="549.6348"/><line style="stroke:#A80036;stroke-width:1.0;stroke-dasharray:1.0,4.0;" x1="491" x2="491" y1="549.6348" y2="577.6348"/><line style="stroke:#181818;stroke-width:0.5;stroke-dasharray:5.0,5.0;" x1="491" x2="491" y1="577.6348" y2="577.6348"/><line style="stroke:#A80036;stroke-width:1.0;stroke-dasharray:1.0,4.0;" x1="491" x2="491" y1="577.6348" y2="618.5898"/><line style="stroke:#181818;stroke-width:0.5;stroke-dasharray:5.0,5.0;" x1="491" x2="491" y1="618.5898" y2="618.5898"/><line style="stroke:#A80036;stroke-width:1.0;stroke-dasharray:1.0,4.0;" x1="491" x2="491" y1="618.5898" y2="646.5898"/><line style="stroke:#181818;stroke-width:0.5;stroke-dasharray:5.0,5.0;" x1="491" x2="491" y1="646.5898" y2="1042.627"/><line style="stroke:#181818;stroke-width:0.5;stroke-dasharray:5.0,5.0;" x1="654" x2="654" y1="118.9766" y2="549.6348"/><line style="stroke:#A80036;stroke-width:1.0;stroke-dasharray:1.0,4.0;" x1="654" x2="654" y1="549.6348" y2="577.6348"/><line style="stroke:#181818;stroke-width:0.5;stroke-dasharray:5.0,5.0;" x1="654" x2="654" y1="577.6348" y2="577.6348"/><line style="stroke:#A80036;stroke-width:1.0;stroke-dasharray:1.0,4.0;" x1="654" x2="654" y1="577.6348" y2="618.5898"/><line style="stroke:#181818;stroke-width:0.5;stroke-dasharray:5.0,5.0;" x1="654" x2="654" y1="618.5898" y2="618.5898"/><line style="stroke:#A80036;stroke-width:1.0;stroke-dasharray:1.0,4.0;" x1="654" x2="654" y1="618.5898" y2="646.5898"/><line style="stroke:#181818;stroke-width:0.5;stroke-dasharray:5.0,5.0;" x1="654" x2="654" y1="646.5898" y2="1042.627"/><line style="stroke:#181818;stroke-width:0.5;stroke-dasharray:5.0,5.0;" x1="887" x2="887" y1="118.9766" y2="549.6348"/><line style="stroke:#A80036;stroke-width:1.0;stroke-dasharray:1.0,4.0;" x1="887" x2="887" y1="549.6348" y2="577.6348"/><line style="stroke:#181818;stroke-width:0.5;stroke-dasharray:5.0,5.0;" x1="887" x2="887" y1="577.6348" y2="577.6348"/><line style="stroke:#A80036;stroke-width:1.0;stroke-dasharray:1.0,4.0;" x1="887" x2="887" y1="577.6348" y2="618.5898"/><line style="stroke:#181818;stroke-width:0.5;stroke-dasharray:5.0,5.0;" x1="887" x2="887" y1="618.5898" y2="618.5898"/><line style="stroke:#A80036;stroke-width:1.0;stroke-dasharray:1.0,4.0;" x1="887" x2="887" y1="618.5898" y2="646.5898"/><line style="stroke:#181818;stroke-width:0.5;stroke-dasharray:5.0,5.0;" x1="887" x2="887" y1="646.5898" y2="1042.627"/><line style="stroke:#181818;stroke-width:0.5;stroke-dasharray:5.0,5.0;" x1="1322.5" x2="1322.5" y1="118.9766" y2="549.6348"/><line style="stroke:#A80036;stroke-width:1.0;stroke-dasharray:1.0,4.0;" x1="1322.5" x2="1322.5" y1="549.6348" y2="577.6348"/><line style="stroke:#181818;stroke-width:0.5;stroke-dasharray:5.0,5.0;" x1="1322.5" x2="1322.5" y1="577.6348" y2="577.6348"/><line style="stroke:#A80036;stroke-width:1.0;stroke-dasharray:1.0,4.0;" x1="1322.5" x2="1322.5" y1="577.6348" y2="618.5898"/><line style="stroke:#181818;stroke-width:0.5;stroke-dasharray:5.0,5.0;" x1="1322.5" x2="1322.5" y1="618.5898" y2="618.5898"/><line style="stroke:#A80036;stroke-width:1.0;stroke-dasharray:1.0,4.0;" x1="1322.5" x2="1322.5" y1="618.5898" y2="646.5898"/><line style="stroke:#181818;stroke-width:0.5;stroke-dasharray:5.0,5.0;" x1="1322.5" x2="1322.5" y1="646.5898" y2="1042.627"/><line style="stroke:#181818;stroke-width:0.5;stroke-dasharray:5.0,5.0;" x1="1480.5" x2="1480.5" y1="118.9766" y2="549.6348"/><line style="stroke:#A80036;stroke-width:1.0;stroke-dasharray:1.0,4.0;" x1="1480.5" x2="1480.5" y1="549.6348" y2="577.6348"/><line style="stroke:#181818;stroke-width:0.5;stroke-dasharray:5.0,5.0;" x1="1480.5" x2="1480.5" y1="577.6348" y2="577.6348"/><line style="stroke:#A80036;stroke-width:1.0;stroke-dasharray:1.0,4.0;" x1="1480.5" x2="1480.5" y1="577.6348" y2="618.5898"/><line style="stroke:#181818;stroke-width:0.5;stroke-dasharray:5.0,5.0;" x1="1480.5" x2="1480.5" y1="618.5898" y2="618.5898"/><line style="stroke:#A80036;stroke-width:1.0;stroke-dasharray:1.0,4.0;" x1="1480.5" x2="1480.5" y1="618.5898" y2="646.5898"/><line style="stroke:#181818;stroke-width:0.5;stroke-dasharray:5.0,5.0;" x1="1480.5" x2="1480.5" y1="646.5898" y2="1042.627"/><line style="stroke:#181818;stroke-width:0.5;stroke-dasharray:5.0,5.0;" x1="1655.5" x2="1655.5" y1="118.9766" y2="549.6348"/><line style="stroke:#A80036;stroke-width:1.0;stroke-dasharray:1.0,4.0;" x1="1655.5" x2="1655.5" y1="549.6348" y2="577.6348"/><line style="stroke:#181818;stroke-width:0.5;stroke-dasharray:5.0,5.0;" x1="1655.5" x2="1655.5" y1="577.6348" y2="577.6348"/><line style="stroke:#A80036;stroke-width:1.0;stroke-dasharray:1.0,4.0;" x1="1655.5" x2="1655.5" y1="577.6348" y2="618.5898"/><line style="stroke:#181818;stroke-width:0.5;stroke-dasharray:5.0,5.0;" x1="1655.5" x2="1655.5" y1="618.5898" y2="618.5898"/><line style="stroke:#A80036;stroke-width:1.0;stroke-dasharray:1.0,4.0;" x1="1655.5" x2="1655.5" y1="618.5898" y2="646.5898"/><line style="stroke:#181818;stroke-width:0.5;stroke-dasharray:5.0,5.0;" x1="1655.5" x2="1655.5" y1="646.5898" y2="1042.627"/><line style="stroke:#181818;stroke-width:0.5;stroke-dasharray:5.0,5.0;" x1="2054.5" x2="2054.5" y1="118.9766" y2="549.6348"/><line style="stroke:#A80036;stroke-width:1.0;stroke-dasharray:1.0,4.0;" x1="2054.5" x2="2054.5" y1="549.6348" y2="577.6348"/><line style="stroke:#181818;stroke-width:0.5;stroke-dasharray:5.0,5.0;" x1="2054.5" x2="2054.5" y1="577.6348" y2="577.6348"/><line style="stroke:#A80036;stroke-width:1.0;stroke-dasharray:1.0,4.0;" x1="2054.5" x2="2054.5" y1="577.6348" y2="618.5898"/><line style="stroke:#181818;stroke-width:0.5;stroke-dasharray:5.0,5.0;" x1="2054.5" x2="2054.5" y1="618.5898" y2="618.5898"/><line style="stroke:#A80036;stroke-width:1.0;stroke-dasharray:1.0,4.0;" x1="2054.5" x2="2054.5" y1="618.5898" y2="646.5898"/><line style="stroke:#181818;stroke-width:0.5;stroke-dasharray:5.0,5.0;" x1="2054.5" x2="2054.5" y1="646.5898" y2="1042.627"/><rect fill="#E2E2F0" height="30.4883" rx="2.5" ry="2.5" style="stroke:#181818;stroke-width:0.5;" width="243" x="20" y="87.4883"/><text fill="#000000" font-family="sans-serif" font-size="14" lengthAdjust="spacing" textLength="229" x="27" y="108.0234">bHermes (Deposit Only ERC4626)</text><rect fill="#E2E2F0" height="30.4883" rx="2.5" ry="2.5" style="stroke:#181818;stroke-width:0.5;" width="243" x="20" y="1041.627"/><text fill="#000000" font-family="sans-serif" font-size="14" lengthAdjust="spacing" textLength="229" x="27" y="1062.1621">bHermes (Deposit Only ERC4626)</text><rect fill="#E2E2F0" height="30.4883" rx="2.5" ry="2.5" style="stroke:#181818;stroke-width:0.5;" width="94" x="273" y="87.4883"/><text fill="#000000" font-family="sans-serif" font-size="14" lengthAdjust="spacing" textLength="80" x="280" y="108.0234">Uniswap V3</text><rect fill="#E2E2F0" height="30.4883" rx="2.5" ry="2.5" style="stroke:#181818;stroke-width:0.5;" width="94" x="273" y="1041.627"/><text fill="#000000" font-family="sans-serif" font-size="14" lengthAdjust="spacing" textLength="80" x="280" y="1062.1621">Uniswap V3</text><rect fill="#E2E2F0" height="30.4883" rx="2.5" ry="2.5" style="stroke:#181818;stroke-width:0.5;" width="229" x="377" y="87.4883"/><text fill="#000000" font-family="sans-serif" font-size="14" lengthAdjust="spacing" textLength="215" x="384" y="108.0234">Non Fungible Position Manager</text><rect fill="#E2E2F0" height="30.4883" rx="2.5" ry="2.5" style="stroke:#181818;stroke-width:0.5;" width="229" x="377" y="1041.627"/><text fill="#000000" font-family="sans-serif" font-size="14" lengthAdjust="spacing" textLength="215" x="384" y="1062.1621">Non Fungible Position Manager</text><text fill="#000000" font-family="sans-serif" font-size="14" lengthAdjust="spacing" textLength="31" x="636" y="116.0234">User</text><ellipse cx="654.5" cy="50.9883" fill="#E2E2F0" rx="8" ry="8" style="stroke:#181818;stroke-width:0.5;"/><path d="M654.5,58.9883 L654.5,85.9883 M641.5,66.9883 L667.5,66.9883 M654.5,85.9883 L641.5,100.9883 M654.5,85.9883 L667.5,100.9883 " fill="none" style="stroke:#181818;stroke-width:0.5;"/><text fill="#000000" font-family="sans-serif" font-size="14" lengthAdjust="spacing" textLength="31" x="636" y="1055.1621">User</text><ellipse cx="654.5" cy="1066.6152" fill="#E2E2F0" rx="8" ry="8" style="stroke:#181818;stroke-width:0.5;"/><path d="M654.5,1074.6152 L654.5,1101.6152 M641.5,1082.6152 L667.5,1082.6152 M654.5,1101.6152 L641.5,1116.6152 M654.5,1101.6152 L667.5,1116.6152 " fill="none" style="stroke:#181818;stroke-width:0.5;"/><rect fill="#E2E2F0" height="30.4883" rx="2.5" ry="2.5" style="stroke:#181818;stroke-width:0.5;" width="141" x="817" y="87.4883"/><text fill="#000000" font-family="sans-serif" font-size="14" lengthAdjust="spacing" textLength="127" x="824" y="108.0234">Uniswap V3 Staker</text><rect fill="#E2E2F0" height="30.4883" rx="2.5" ry="2.5" style="stroke:#181818;stroke-width:0.5;" width="141" x="817" y="1041.627"/><text fill="#000000" font-family="sans-serif" font-size="14" lengthAdjust="spacing" textLength="127" x="824" y="1062.1621">Uniswap V3 Staker</text><rect fill="#E2E2F0" height="30.4883" rx="2.5" ry="2.5" style="stroke:#181818;stroke-width:0.5;" width="142" x="1251.5" y="87.4883"/><text fill="#000000" font-family="sans-serif" font-size="14" lengthAdjust="spacing" textLength="128" x="1258.5" y="108.0234">Uniswap V3 Gauge</text><rect fill="#E2E2F0" height="30.4883" rx="2.5" ry="2.5" style="stroke:#181818;stroke-width:0.5;" width="142" x="1251.5" y="1041.627"/><text fill="#000000" font-family="sans-serif" font-size="14" lengthAdjust="spacing" textLength="128" x="1258.5" y="1062.1621">Uniswap V3 Gauge</text><rect fill="#E2E2F0" height="30.4883" rx="2.5" ry="2.5" style="stroke:#181818;stroke-width:0.5;" width="155" x="1403.5" y="87.4883"/><text fill="#000000" font-family="sans-serif" font-size="14" lengthAdjust="spacing" textLength="141" x="1410.5" y="108.0234">Multi Rewards Depot</text><rect fill="#E2E2F0" height="30.4883" rx="2.5" ry="2.5" style="stroke:#181818;stroke-width:0.5;" width="155" x="1403.5" y="1041.627"/><text fill="#000000" font-family="sans-serif" font-size="14" lengthAdjust="spacing" textLength="141" x="1410.5" y="1062.1621">Multi Rewards Depot</text><rect fill="#E2E2F0" height="30.4883" rx="2.5" ry="2.5" style="stroke:#181818;stroke-width:0.5;" width="175" x="1568.5" y="87.4883"/><text fill="#000000" font-family="sans-serif" font-size="14" lengthAdjust="spacing" textLength="161" x="1575.5" y="108.0234">FlywheelGaugeRewards</text><rect fill="#E2E2F0" height="30.4883" rx="2.5" ry="2.5" style="stroke:#181818;stroke-width:0.5;" width="175" x="1568.5" y="1041.627"/><text fill="#000000" font-family="sans-serif" font-size="14" lengthAdjust="spacing" textLength="161" x="1575.5" y="1062.1621">FlywheelGaugeRewards</text><rect fill="#E2E2F0" height="30.4883" rx="2.5" ry="2.5" style="stroke:#181818;stroke-width:0.5;" width="115" x="1997.5" y="87.4883"/><text fill="#000000" font-family="sans-serif" font-size="14" lengthAdjust="spacing" textLength="101" x="2004.5" y="108.0234">Base V2 Minter</text><rect fill="#E2E2F0" height="30.4883" rx="2.5" ry="2.5" style="stroke:#181818;stroke-width:0.5;" width="115" x="1997.5" y="1041.627"/><text fill="#000000" font-family="sans-serif" font-size="14" lengthAdjust="spacing" textLength="101" x="2004.5" y="1062.1621">Base V2 Minter</text><path d="M1396,133.9766 L1396,173.9766 L1565,173.9766 L1565,143.9766 L1555,133.9766 L1396,133.9766 " fill="#FEFFDD" style="stroke:#181818;stroke-width:0.5;"/><path d="M1555,133.9766 L1555,143.9766 L1565,143.9766 L1555,133.9766 " fill="#FEFFDD" style="stroke:#181818;stroke-width:0.5;"/><text fill="#000000" font-family="sans-serif" font-size="13" lengthAdjust="spacing" textLength="148" x="1402" y="151.5449">Depot is created during</text><text fill="#000000" font-family="sans-serif" font-size="13" lengthAdjust="spacing" textLength="117" x="1402" y="166.8555">Gauge deployment</text><path d="M263,186.5977 L534,186.5977 L534,193.9082 L524,203.9082 L263,203.9082 L263,186.5977 " fill="#EEEEEE" style="stroke:#000000;stroke-width:1.5;"/><rect fill="none" height="105.2422" style="stroke:#000000;stroke-width:1.5;" width="420" x="263" y="186.5977"/><text fill="#000000" font-family="sans-serif" font-size="13" font-weight="bold" lengthAdjust="spacing" textLength="226" x="278" y="200.166">Providing liquidity to Uniswap V3</text><polygon fill="#FFA500" points="331,221.2188,321,225.2188,331,229.2188,327,225.2188" style="stroke:#FFA500;stroke-width:1.0;"/><line style="stroke:#FFA500;stroke-width:1.0;" x1="325" x2="653.5" y1="225.2188" y2="225.2188"/><text fill="#000000" font-family="sans-serif" font-size="13" font-weight="bold" lengthAdjust="spacing" textLength="33" x="361.75" y="220.4766">1.1.1</text><text fill="#000000" font-family="sans-serif" font-size="13" lengthAdjust="spacing" textLength="214" x="398.75" y="220.4766">Provide liquidity (for ex. ETH/DAI)</text><polygon fill="#181818" points="479.5,250.5293,489.5,254.5293,479.5,258.5293,483.5,254.5293" style="stroke:#181818;stroke-width:1.0;"/><line style="stroke:#181818;stroke-width:1.0;" x1="320" x2="485.5" y1="254.5293" y2="254.5293"/><text fill="#000000" font-family="sans-serif" font-size="13" font-weight="bold" lengthAdjust="spacing" textLength="33" x="379.75" y="249.7871">1.1.2</text><text fill="#000000" font-family="sans-serif" font-size="13" lengthAdjust="spacing" textLength="15" x="416.75" y="249.7871">???</text><polygon fill="#800080" points="642.5,279.8398,652.5,283.8398,642.5,287.8398,646.5,283.8398" style="stroke:#800080;stroke-width:1.0;"/><line style="stroke:#800080;stroke-width:1.0;" x1="491.5" x2="648.5" y1="283.8398" y2="283.8398"/><text fill="#000000" font-family="sans-serif" font-size="13" font-weight="bold" lengthAdjust="spacing" textLength="33" x="503.5" y="279.0977">1.1.3</text><text fill="#000000" font-family="sans-serif" font-size="13" lengthAdjust="spacing" textLength="102" x="540.5" y="279.0977">Uniswap V3 NFT</text><line style="stroke:#0000FF;stroke-width:1.0;" x1="2055" x2="2097" y1="335.4609" y2="335.4609"/><line style="stroke:#0000FF;stroke-width:1.0;" x1="2097" x2="2097" y1="335.4609" y2="348.4609"/><line style="stroke:#0000FF;stroke-width:1.0;" x1="2056" x2="2097" y1="348.4609" y2="348.4609"/><polygon fill="#0000FF" points="2066,344.4609,2056,348.4609,2066,352.4609,2062,348.4609" style="stroke:#0000FF;stroke-width:1.0;"/><text fill="#000000" font-family="sans-serif" font-size="13" lengthAdjust="spacing" textLength="232" x="2062" y="315.4082">Mint HERMES once per cycle (1 week)</text><text fill="#000000" font-family="sans-serif" font-size="13" lengthAdjust="spacing" textLength="165" x="2062" y="330.7188">for previous week rewards</text><polygon fill="#0000FF" points="1667,373.7715,1657,377.7715,1667,381.7715,1663,377.7715" style="stroke:#0000FF;stroke-width:1.0;"/><line style="stroke:#0000FF;stroke-width:1.0;" x1="1661" x2="2054" y1="377.7715" y2="377.7715"/><text fill="#000000" font-family="sans-serif" font-size="13" lengthAdjust="spacing" textLength="52" x="1668" y="373.0293">Transfer</text><text fill="#000000" font-family="sans-serif" font-size="13" font-style="italic" lengthAdjust="spacing" textLength="126" x="1724" y="373.0293">newWeeklyEmission</text><text fill="#000000" font-family="sans-serif" font-size="13" lengthAdjust="spacing" textLength="189" x="1854" y="373.0293">of HERMES tokens for rewards</text><polygon fill="#0000FF" points="1333.5,403.082,1323.5,407.082,1333.5,411.082,1329.5,407.082" style="stroke:#0000FF;stroke-width:1.0;"/><line style="stroke:#0000FF;stroke-width:1.0;" x1="1327.5" x2="1655" y1="407.082" y2="407.082"/><text fill="#000000" font-family="sans-serif" font-size="13" lengthAdjust="spacing" textLength="15" x="1481.75" y="402.3398">???</text><polygon fill="#0000FF" points="898.5,447.7031,888.5,451.7031,898.5,455.7031,894.5,451.7031" style="stroke:#0000FF;stroke-width:1.0;"/><line style="stroke:#0000FF;stroke-width:1.0;" x1="892.5" x2="1321.5" y1="451.7031" y2="451.7031"/><text fill="#000000" font-family="sans-serif" font-size="13" lengthAdjust="spacing" textLength="117" x="899.5" y="431.6504">Distribute HERMES</text><text fill="#000000" font-family="sans-serif" font-size="13" font-style="italic" lengthAdjust="spacing" textLength="101" x="1020.5" y="431.6504">accruedRewards</text><text fill="#000000" font-family="sans-serif" font-size="13" lengthAdjust="spacing" textLength="185" x="1125.5" y="431.6504">as incentive program rewards</text><text fill="#000000" font-family="sans-serif" font-size="13" lengthAdjust="spacing" textLength="147" x="899.5" y="446.9609">This happens whenever</text><text fill="#000000" font-family="sans-serif" font-size="13" font-style="italic" lengthAdjust="spacing" textLength="71" x="1050.5" y="446.9609">newEpoch()</text><text fill="#000000" font-family="sans-serif" font-size="13" lengthAdjust="spacing" textLength="52" x="1125.5" y="446.9609">is called</text><path d="M626,466.7031 L916,466.7031 L916,474.0137 L906,484.0137 L626,484.0137 L626,466.7031 " fill="#EEEEEE" style="stroke:#000000;stroke-width:1.5;"/><rect fill="none" height="75.9316" style="stroke:#000000;stroke-width:1.5;" width="777.5" x="626" y="466.7031"/><text fill="#000000" font-family="sans-serif" font-size="13" font-weight="bold" lengthAdjust="spacing" textLength="245" x="641" y="480.2715">Staking NFT in the UniswapV3Staker</text><polygon fill="#800080" points="875.5,501.3242,885.5,505.3242,875.5,509.3242,879.5,505.3242" style="stroke:#800080;stroke-width:1.0;"/><line style="stroke:#800080;stroke-width:1.0;" x1="654.5" x2="881.5" y1="505.3242" y2="505.3242"/><text fill="#000000" font-family="sans-serif" font-size="13" font-weight="bold" lengthAdjust="spacing" textLength="33" x="682.5" y="500.582">2.1.1</text><text fill="#000000" font-family="sans-serif" font-size="13" lengthAdjust="spacing" textLength="140" x="719.5" y="500.582">Stake Uniswap V3 NFT</text><polygon fill="#181818" points="1310.5,530.6348,1320.5,534.6348,1310.5,538.6348,1314.5,534.6348" style="stroke:#181818;stroke-width:1.0;"/><line style="stroke:#181818;stroke-width:1.0;" x1="887.5" x2="1316.5" y1="534.6348" y2="534.6348"/><text fill="#000000" font-family="sans-serif" font-size="13" font-weight="bold" lengthAdjust="spacing" textLength="33" x="1020" y="529.8926">2.1.2</text><text fill="#000000" font-family="sans-serif" font-size="13" lengthAdjust="spacing" textLength="133" x="1057" y="529.8926">Attach User to Gauge</text><text fill="#000000" font-family="sans-serif" font-size="11" lengthAdjust="spacing" textLength="3" x="979.75" y="602.2695">&#160;</text><text fill="#000000" font-family="sans-serif" font-size="11" font-weight="bold" lengthAdjust="spacing" textLength="231" x="982.75" y="602.2695">Some time has to pass to get the rewards</text><text fill="#000000" font-family="sans-serif" font-size="11" lengthAdjust="spacing" textLength="3" x="1213.75" y="602.2695">&#160;</text><path d="M367,653.5898 L531,653.5898 L531,660.9004 L521,670.9004 L367,670.9004 L367,653.5898 " fill="#EEEEEE" style="stroke:#000000;stroke-width:1.5;"/><rect fill="none" height="192.1738" style="stroke:#000000;stroke-width:1.5;" width="1201.5" x="367" y="653.5898"/><text fill="#000000" font-family="sans-serif" font-size="13" font-weight="bold" lengthAdjust="spacing" textLength="119" x="382" y="667.1582">Claiming rewards</text><polygon fill="#181818" points="875.5,688.2109,885.5,692.2109,875.5,696.2109,879.5,692.2109" style="stroke:#181818;stroke-width:1.0;"/><line style="stroke:#181818;stroke-width:1.0;" x1="654.5" x2="881.5" y1="692.2109" y2="692.2109"/><text fill="#000000" font-family="sans-serif" font-size="13" font-weight="bold" lengthAdjust="spacing" textLength="33" x="674" y="687.4688">3.1.1</text><text fill="#000000" font-family="sans-serif" font-size="13" lengthAdjust="spacing" textLength="157" x="711" y="687.4688">Unstake Uniswap V3 NFT</text><polygon fill="#181818" points="502.5,717.5215,492.5,721.5215,502.5,725.5215,498.5,721.5215" style="stroke:#181818;stroke-width:1.0;"/><line style="stroke:#181818;stroke-width:1.0;" x1="496.5" x2="886.5" y1="721.5215" y2="721.5215"/><text fill="#000000" font-family="sans-serif" font-size="13" font-weight="bold" lengthAdjust="spacing" textLength="33" x="503.5" y="716.7793">3.1.2</text><text fill="#000000" font-family="sans-serif" font-size="13" lengthAdjust="spacing" textLength="335" x="540.5" y="716.7793">Call the collect() with the Bribes contract as Recipient</text><polygon fill="#FFA500" points="1469,746.832,1479,750.832,1469,754.832,1473,750.832" style="stroke:#FFA500;stroke-width:1.0;"/><line style="stroke:#FFA500;stroke-width:1.0;" x1="491.5" x2="1475" y1="750.832" y2="750.832"/><text fill="#000000" font-family="sans-serif" font-size="13" font-weight="bold" lengthAdjust="spacing" textLength="33" x="897.25" y="746.0898">3.1.3</text><text fill="#000000" font-family="sans-serif" font-size="13" lengthAdjust="spacing" textLength="141" x="934.25" y="746.0898">Transfer ETH/DAI fees</text><line style="stroke:#181818;stroke-width:1.0;" x1="887.5" x2="929.5" y1="795.4531" y2="795.4531"/><line style="stroke:#181818;stroke-width:1.0;" x1="929.5" x2="929.5" y1="795.4531" y2="808.4531"/><line style="stroke:#181818;stroke-width:1.0;" x1="888.5" x2="929.5" y1="808.4531" y2="808.4531"/><polygon fill="#181818" points="898.5,804.4531,888.5,808.4531,898.5,812.4531,894.5,808.4531" style="stroke:#181818;stroke-width:1.0;"/><text fill="#000000" font-family="sans-serif" font-size="13" font-weight="bold" lengthAdjust="spacing" textLength="33" x="894.5" y="783.0557">3.1.4</text><text fill="#000000" font-family="sans-serif" font-size="13" lengthAdjust="spacing" textLength="236" x="931.5" y="775.4004">Calculate User's rewards (in HERMES?)</text><text fill="#000000" font-family="sans-serif" font-size="13" lengthAdjust="spacing" textLength="35" x="931.5" y="790.7109">using</text><text fill="#000000" font-family="sans-serif" font-size="13" font-style="italic" lengthAdjust="spacing" textLength="76" x="970.5" y="790.7109">RewardMath</text><text fill="#000000" font-family="sans-serif" font-size="13" lengthAdjust="spacing" textLength="40" x="1050.5" y="790.7109">library</text><polygon fill="#181818" points="875.5,833.7637,885.5,837.7637,875.5,841.7637,879.5,837.7637" style="stroke:#181818;stroke-width:1.0;"/><line style="stroke:#181818;stroke-width:1.0;" x1="654.5" x2="881.5" y1="837.7637" y2="837.7637"/><text fill="#000000" font-family="sans-serif" font-size="13" font-weight="bold" lengthAdjust="spacing" textLength="33" x="698.5" y="833.0215">3.1.5</text><text fill="#000000" font-family="sans-serif" font-size="13" lengthAdjust="spacing" textLength="108" x="735.5" y="833.0215">Claim all rewards</text><path d="M10,859.7637 L255,859.7637 L255,867.0742 L245,877.0742 L10,877.0742 L10,859.7637 " fill="#EEEEEE" style="stroke:#000000;stroke-width:1.5;"/><rect fill="none" height="75.9316" style="stroke:#000000;stroke-width:1.5;" width="673" x="10" y="859.7637"/><text fill="#000000" font-family="sans-serif" font-size="13" font-weight="bold" lengthAdjust="spacing" textLength="200" x="25" y="873.332">Burning HERMES for bHermes</text><polygon fill="#0000FF" points="152.5,894.3848,142.5,898.3848,152.5,902.3848,148.5,898.3848" style="stroke:#0000FF;stroke-width:1.0;"/><line style="stroke:#0000FF;stroke-width:1.0;" x1="146.5" x2="653.5" y1="898.3848" y2="898.3848"/><text fill="#000000" font-family="sans-serif" font-size="13" font-weight="bold" lengthAdjust="spacing" textLength="33" x="267" y="893.6426">4.1.1</text><text fill="#000000" font-family="sans-serif" font-size="13" lengthAdjust="spacing" textLength="225" x="304" y="893.6426">Deposit (burn) 1000 Hermes tokens</text><polygon fill="#FF0000" points="642.5,923.6953,652.5,927.6953,642.5,931.6953,646.5,927.6953" style="stroke:#FF0000;stroke-width:1.0;"/><line style="stroke:#FF0000;stroke-width:1.0;" x1="141.5" x2="648.5" y1="927.6953" y2="927.6953"/><text fill="#000000" font-family="sans-serif" font-size="13" font-weight="bold" lengthAdjust="spacing" textLength="33" x="294" y="922.9531">4.1.2</text><text fill="#000000" font-family="sans-serif" font-size="13" lengthAdjust="spacing" textLength="171" x="331" y="922.9531">Mint 1000 bHermes tokens</text><path d="M10,949.6953 L267,949.6953 L267,957.0059 L257,967.0059 L10,967.0059 L10,949.6953 " fill="#EEEEEE" style="stroke:#000000;stroke-width:1.5;"/><rect fill="none" height="75.9316" style="stroke:#000000;stroke-width:1.5;" width="673" x="10" y="949.6953"/><text fill="#000000" font-family="sans-serif" font-size="13" font-weight="bold" lengthAdjust="spacing" textLength="212" x="25" y="963.2637">Claiming utilities with bHermes</text><polygon fill="#181818" points="152.5,984.3164,142.5,988.3164,152.5,992.3164,148.5,988.3164" style="stroke:#181818;stroke-width:1.0;"/><line style="stroke:#181818;stroke-width:1.0;" x1="146.5" x2="653.5" y1="988.3164" y2="988.3164"/><text fill="#000000" font-family="sans-serif" font-size="13" font-weight="bold" lengthAdjust="spacing" textLength="33" x="258.5" y="983.5742">5.1.1</text><text fill="#000000" font-family="sans-serif" font-size="13" lengthAdjust="spacing" textLength="242" x="295.5" y="983.5742">Claim utility tokens for 1000 bHermes</text><polygon fill="#008000" points="642.5,1013.627,652.5,1017.627,642.5,1021.627,646.5,1017.627" style="stroke:#008000;stroke-width:1.0;"/><line style="stroke:#008000;stroke-width:1.0;" x1="141.5" x2="648.5" y1="1017.627" y2="1017.627"/><text fill="#000000" font-family="sans-serif" font-size="13" font-weight="bold" lengthAdjust="spacing" textLength="33" x="190.5" y="1012.8848">5.1.2</text><text fill="#000000" font-family="sans-serif" font-size="13" lengthAdjust="spacing" textLength="378" x="227.5" y="1012.8848">1000 Boost tokens, 1000 Votes tokens, 1000 Weight tokens</text><text fill="#888888" font-family="sans-serif" font-size="10" lengthAdjust="spacing" textLength="369" x="965.5" y="1262.7129">Hermes: Contract Interactions - PlantUML diagram | author: @kamilchmielu</text><rect fill="#DDDDDD" height="108.9297" id="_legend" rx="7.5" ry="7.5" style="stroke:#000000;stroke-width:1.0;" width="314" x="993" y="1131.1152"/><line style="stroke:#000000;stroke-width:1.0;" x1="993" x2="1121" y1="1144.3594" y2="1144.3594"/><line style="stroke:#000000;stroke-width:1.0;" x1="993" x2="1121" y1="1146.3594" y2="1146.3594"/><text fill="#000000" font-family="sans-serif" font-size="14" lengthAdjust="spacing" textLength="50" x="1125" y="1149.1504">Legend</text><line style="stroke:#000000;stroke-width:1.0;" x1="1179" x2="1307" y1="1144.3594" y2="1144.3594"/><line style="stroke:#000000;stroke-width:1.0;" x1="1179" x2="1307" y1="1146.3594" y2="1146.3594"/><text fill="#FFA500" font-family="sans-serif" font-size="14" lengthAdjust="spacing" textLength="51" x="998" y="1166.1387">Orange</text><text fill="#000000" font-family="sans-serif" font-size="14" lengthAdjust="spacing" textLength="249" x="1053" y="1166.1387">- Tokens supplied to the UniV3 pool</text><text fill="#800080" font-family="sans-serif" font-size="14" lengthAdjust="spacing" textLength="44" x="998" y="1182.627">Purple</text><text fill="#000000" font-family="sans-serif" font-size="14" lengthAdjust="spacing" textLength="117" x="1046" y="1182.627">- UniV3 NFT flow</text><text fill="#0000FF" font-family="sans-serif" font-size="14" lengthAdjust="spacing" textLength="29" x="998" y="1199.1152">Blue</text><text fill="#000000" font-family="sans-serif" font-size="14" lengthAdjust="spacing" textLength="154" x="1031" y="1199.1152">- HERMES Tokens flow</text><text fill="#FF0000" font-family="sans-serif" font-size="14" lengthAdjust="spacing" textLength="26" x="998" y="1215.6035">Red</text><text fill="#000000" font-family="sans-serif" font-size="14" lengthAdjust="spacing" textLength="163" x="1028" y="1215.6035">- bHERMES Tokens flow</text><text fill="#008000" font-family="sans-serif" font-size="14" lengthAdjust="spacing" textLength="41" x="998" y="1232.0918">Green</text><text fill="#000000" font-family="sans-serif" font-size="14" lengthAdjust="spacing" textLength="138" x="1043" y="1232.0918">- Utility Tokens flow</text><!--SRC=[lLVTKziu47_tNx7JUo0m9GRQwmDJmX4AfJCDPGWV3yVDLB4tiGPPSYMPdAzt__kjP3cn8S3TzCCCYLdjz_vsjLXk1S9rXXeXLMZ0PWWLHv52edA4gLRvVXJ5Qn1_ynF5CQnynfMncCCPqvOdl63I6dZayLg-zO6rE8gAfJLuCJb1dLFqlNTOACCjV9AYWgFpmzTlTjwilm1c8B1qvIubDtDMmDKhpnF-l7hLvJfL4evBEUCJolMPqy-9CcAIpL1xGU9e69hpS0nHn1AhDDaoWTczH8_v0MFBRXl6nfsQzgZ8UrREi2lXILs1KIaiXtESCvqQS8coNiRJ0zbJ8waiWheZvn-SmMuj2Tn0ef5PJ24jDPUp6-bjGeg5K5MEqdRD7ujgdY4ApnLKUlkh3hgYGsOGhdPWnAKDgN6agvsQyAFXJSy7PuVgI7Lz5DhV5TvhfsK-GMs0KMDpwTlwe3_i7y9KwPpPbp2f8652KERXCvS977o6IfKmvqAGWAiD9Ss9JRas5gJNvwIsro9MMXK8sttwYMPQbGMSQNN7KwTHy2yblTaAh88bqY8NeuClRFx-Yz9Cpl2FmH9q18vQ1ROKzCXXm3_xS7Hn4hyx-B1UArd8R0wUwfvTsD_Vzn9FC94pHQaBuPqnNghL7QV75n7AD6f7RQmgeZQ6d8w9A9s63ddNWmvEZiv7HsDGCa4eY9nK2Os2tZRC4M_NRwIBiT1unrLfF0rq0F8ZHbQ1denTK4xDb3ZZMEBycXI9wYZdnb2q10mrRJonwXO9Yivki0JHIfrBaztP439xZxY2kvuzhk-viPfFIfeDmOauPacYIqo3CVAGMfF0HytFxoXJMiqqoniFR-H5HcCZOqNXV2TV9TuriHuLAibwwwJ2JHO2DdOhfj6KEROf7lG1kSv9XrkgTTCjzuTd6xfBj3o8qh_SXqy7iO5rSqL63wnbILQReSQfXx37Nh_VTx-miJ5srxBbz95HieYhOCP_pz1wnqEsDZOW24MFHNqe6CzTs0tObZ6k2krIclyHt9DDUKW5yiucYYgLsDuw3HwRUTAGG49NSQAaTIFJGU8SQPHpToKytycBiRBgxbdqHnWcC4KqpvPdaG5oEoa5NLe-IsjcqJiz0aqDwdtgvjAufCPnRNp4R4Qm57oYcQxWcIJxce1BJrEK-xEdNS5XgQMp5HhAjNEpfxJn6dgosNBgEzYjERq9ALY7xQsjBGY7zMJmuWq_QT2OBeUZ7sbUPj8LUihL1TXAomKLZQHyoH_wstQqJaSjKhMdLjlyVMTd6b4ktVMiGwNe5giLlAn9LxIcc2xf6laiivrmVlXkGCz7d94jUFhvVgklyEPyrlRs6kDxUvxmTafzvzfIwRswbGQV_DVRs9qCO1CkwYgOiYW4f_sDPayOc3GH2gN40qNrl1oS-Q-bebh2pTofKFC7KWwrWo5zB2K2peC7AwK8gODpJ9Soa_yWv14pUEy-M-u5rBK5ALCXUpy566DR-Gtj9m5Z3GHE7Vn1-pv8kKQ_j4Q6haVQgUao9d_GLWKj-DfcgdLWy4k9T7UFq1WQnWU2poIugvmkpoMN_z_Wgo_0KEaKzQ4h04m4IsvhAhsuYI7J-cIUSOl-v9ZgqkR-fwMslUz_NN2F-Ly8Ex-kr2jSXBHULAGdcYhbzgjwXD3KQUwUpjw-2MU2z5-EFb9YcDzC_WQQTfdIk_3RBSkvIBAS_dSk_mK0]--></g></svg>