<?xml version="1.0" encoding="us-ascii" standalone="no"?><svg xmlns="http://www.w3.org/2000/svg" xmlns:xlink="http://www.w3.org/1999/xlink" contentStyleType="text/css" height="1677px" preserveAspectRatio="none" style="width:2296px;height:1677px;background:#FFFFFF;" version="1.1" viewBox="0 0 2296 1677" width="2296px" zoomAndPan="magnify"><defs/><g><text fill="#000000" font-family="sans-serif" font-size="14" font-weight="bold" lengthAdjust="spacing" textLength="241" x="1029.25" y="28.5352">Where does the yield come from?</text><rect fill="#FFFFFF" height="467.6582" style="stroke:#181818;stroke-width:1.0;" width="10" x="1201.5" y="352.4609"/><rect fill="#FFFFFF" height="361.7266" style="stroke:#181818;stroke-width:1.0;" width="10" x="1520.5" y="386.7715"/><rect fill="#FFFFFF" height="109.2422" style="stroke:#181818;stroke-width:1.0;" width="10" x="1525.5" y="602.9453"/><rect fill="#FFFFFF" height="296.1055" style="stroke:#181818;stroke-width:1.0;" width="10" x="1971.5" y="416.082"/><rect fill="none" height="105.2422" style="stroke:#000000;stroke-width:1.5;" width="420" x="263" y="186.5977"/><rect fill="none" height="522.2793" style="stroke:#000000;stroke-width:1.5;" width="1452.5" x="838" y="305.8398"/><rect fill="none" height="75.9316" style="stroke:#000000;stroke-width:1.5;" width="661.5" x="626" y="842.1191"/><rect fill="none" height="221.4844" style="stroke:#000000;stroke-width:1.5;" width="841.5" x="367" y="1029.0059"/><rect fill="none" height="75.9316" style="stroke:#000000;stroke-width:1.5;" width="673" x="10" y="1264.4902"/><rect fill="none" height="75.9316" style="stroke:#000000;stroke-width:1.5;" width="673" x="10" y="1354.4219"/><line style="stroke:#181818;stroke-width:0.5;stroke-dasharray:5.0,5.0;" x1="141" x2="141" y1="118.9766" y2="925.0508"/><line style="stroke:#A80036;stroke-width:1.0;stroke-dasharray:1.0,4.0;" x1="141" x2="141" y1="925.0508" y2="953.0508"/><line style="stroke:#181818;stroke-width:0.5;stroke-dasharray:5.0,5.0;" x1="141" x2="141" y1="953.0508" y2="953.0508"/><line style="stroke:#A80036;stroke-width:1.0;stroke-dasharray:1.0,4.0;" x1="141" x2="141" y1="953.0508" y2="994.0059"/><line style="stroke:#181818;stroke-width:0.5;stroke-dasharray:5.0,5.0;" x1="141" x2="141" y1="994.0059" y2="994.0059"/><line style="stroke:#A80036;stroke-width:1.0;stroke-dasharray:1.0,4.0;" x1="141" x2="141" y1="994.0059" y2="1022.0059"/><line style="stroke:#181818;stroke-width:0.5;stroke-dasharray:5.0,5.0;" x1="141" x2="141" y1="1022.0059" y2="1447.3535"/><line style="stroke:#181818;stroke-width:0.5;stroke-dasharray:5.0,5.0;" x1="320" x2="320" y1="118.9766" y2="925.0508"/><line style="stroke:#A80036;stroke-width:1.0;stroke-dasharray:1.0,4.0;" x1="320" x2="320" y1="925.0508" y2="953.0508"/><line style="stroke:#181818;stroke-width:0.5;stroke-dasharray:5.0,5.0;" x1="320" x2="320" y1="953.0508" y2="953.0508"/><line style="stroke:#A80036;stroke-width:1.0;stroke-dasharray:1.0,4.0;" x1="320" x2="320" y1="953.0508" y2="994.0059"/><line style="stroke:#181818;stroke-width:0.5;stroke-dasharray:5.0,5.0;" x1="320" x2="320" y1="994.0059" y2="994.0059"/><line style="stroke:#A80036;stroke-width:1.0;stroke-dasharray:1.0,4.0;" x1="320" x2="320" y1="994.0059" y2="1022.0059"/><line style="stroke:#181818;stroke-width:0.5;stroke-dasharray:5.0,5.0;" x1="320" x2="320" y1="1022.0059" y2="1447.3535"/><line style="stroke:#181818;stroke-width:0.5;stroke-dasharray:5.0,5.0;" x1="491" x2="491" y1="118.9766" y2="925.0508"/><line style="stroke:#A80036;stroke-width:1.0;stroke-dasharray:1.0,4.0;" x1="491" x2="491" y1="925.0508" y2="953.0508"/><line style="stroke:#181818;stroke-width:0.5;stroke-dasharray:5.0,5.0;" x1="491" x2="491" y1="953.0508" y2="953.0508"/><line style="stroke:#A80036;stroke-width:1.0;stroke-dasharray:1.0,4.0;" x1="491" x2="491" y1="953.0508" y2="994.0059"/><line style="stroke:#181818;stroke-width:0.5;stroke-dasharray:5.0,5.0;" x1="491" x2="491" y1="994.0059" y2="994.0059"/><line style="stroke:#A80036;stroke-width:1.0;stroke-dasharray:1.0,4.0;" x1="491" x2="491" y1="994.0059" y2="1022.0059"/><line style="stroke:#181818;stroke-width:0.5;stroke-dasharray:5.0,5.0;" x1="491" x2="491" y1="1022.0059" y2="1447.3535"/><line style="stroke:#181818;stroke-width:0.5;stroke-dasharray:5.0,5.0;" x1="654" x2="654" y1="118.9766" y2="925.0508"/><line style="stroke:#A80036;stroke-width:1.0;stroke-dasharray:1.0,4.0;" x1="654" x2="654" y1="925.0508" y2="953.0508"/><line style="stroke:#181818;stroke-width:0.5;stroke-dasharray:5.0,5.0;" x1="654" x2="654" y1="953.0508" y2="953.0508"/><line style="stroke:#A80036;stroke-width:1.0;stroke-dasharray:1.0,4.0;" x1="654" x2="654" y1="953.0508" y2="994.0059"/><line style="stroke:#181818;stroke-width:0.5;stroke-dasharray:5.0,5.0;" x1="654" x2="654" y1="994.0059" y2="994.0059"/><line style="stroke:#A80036;stroke-width:1.0;stroke-dasharray:1.0,4.0;" x1="654" x2="654" y1="994.0059" y2="1022.0059"/><line style="stroke:#181818;stroke-width:0.5;stroke-dasharray:5.0,5.0;" x1="654" x2="654" y1="1022.0059" y2="1447.3535"/><line style="stroke:#181818;stroke-width:0.5;stroke-dasharray:5.0,5.0;" x1="760" x2="760" y1="118.9766" y2="925.0508"/><line style="stroke:#A80036;stroke-width:1.0;stroke-dasharray:1.0,4.0;" x1="760" x2="760" y1="925.0508" y2="953.0508"/><line style="stroke:#181818;stroke-width:0.5;stroke-dasharray:5.0,5.0;" x1="760" x2="760" y1="953.0508" y2="953.0508"/><line style="stroke:#A80036;stroke-width:1.0;stroke-dasharray:1.0,4.0;" x1="760" x2="760" y1="953.0508" y2="994.0059"/><line style="stroke:#181818;stroke-width:0.5;stroke-dasharray:5.0,5.0;" x1="760" x2="760" y1="994.0059" y2="994.0059"/><line style="stroke:#A80036;stroke-width:1.0;stroke-dasharray:1.0,4.0;" x1="760" x2="760" y1="994.0059" y2="1022.0059"/><line style="stroke:#181818;stroke-width:0.5;stroke-dasharray:5.0,5.0;" x1="760" x2="760" y1="1022.0059" y2="1447.3535"/><line style="stroke:#181818;stroke-width:0.5;stroke-dasharray:5.0,5.0;" x1="918" x2="918" y1="118.9766" y2="925.0508"/><line style="stroke:#A80036;stroke-width:1.0;stroke-dasharray:1.0,4.0;" x1="918" x2="918" y1="925.0508" y2="953.0508"/><line style="stroke:#181818;stroke-width:0.5;stroke-dasharray:5.0,5.0;" x1="918" x2="918" y1="953.0508" y2="953.0508"/><line style="stroke:#A80036;stroke-width:1.0;stroke-dasharray:1.0,4.0;" x1="918" x2="918" y1="953.0508" y2="994.0059"/><line style="stroke:#181818;stroke-width:0.5;stroke-dasharray:5.0,5.0;" x1="918" x2="918" y1="994.0059" y2="994.0059"/><line style="stroke:#A80036;stroke-width:1.0;stroke-dasharray:1.0,4.0;" x1="918" x2="918" y1="994.0059" y2="1022.0059"/><line style="stroke:#181818;stroke-width:0.5;stroke-dasharray:5.0,5.0;" x1="918" x2="918" y1="1022.0059" y2="1447.3535"/><line style="stroke:#181818;stroke-width:0.5;stroke-dasharray:5.0,5.0;" x1="1206.5" x2="1206.5" y1="118.9766" y2="925.0508"/><line style="stroke:#A80036;stroke-width:1.0;stroke-dasharray:1.0,4.0;" x1="1206.5" x2="1206.5" y1="925.0508" y2="953.0508"/><line style="stroke:#181818;stroke-width:0.5;stroke-dasharray:5.0,5.0;" x1="1206.5" x2="1206.5" y1="953.0508" y2="953.0508"/><line style="stroke:#A80036;stroke-width:1.0;stroke-dasharray:1.0,4.0;" x1="1206.5" x2="1206.5" y1="953.0508" y2="994.0059"/><line style="stroke:#181818;stroke-width:0.5;stroke-dasharray:5.0,5.0;" x1="1206.5" x2="1206.5" y1="994.0059" y2="994.0059"/><line style="stroke:#A80036;stroke-width:1.0;stroke-dasharray:1.0,4.0;" x1="1206.5" x2="1206.5" y1="994.0059" y2="1022.0059"/><line style="stroke:#181818;stroke-width:0.5;stroke-dasharray:5.0,5.0;" x1="1206.5" x2="1206.5" y1="1022.0059" y2="1447.3535"/><line style="stroke:#181818;stroke-width:0.5;stroke-dasharray:5.0,5.0;" x1="1525" x2="1525" y1="118.9766" y2="925.0508"/><line style="stroke:#A80036;stroke-width:1.0;stroke-dasharray:1.0,4.0;" x1="1525" x2="1525" y1="925.0508" y2="953.0508"/><line style="stroke:#181818;stroke-width:0.5;stroke-dasharray:5.0,5.0;" x1="1525" x2="1525" y1="953.0508" y2="953.0508"/><line style="stroke:#A80036;stroke-width:1.0;stroke-dasharray:1.0,4.0;" x1="1525" x2="1525" y1="953.0508" y2="994.0059"/><line style="stroke:#181818;stroke-width:0.5;stroke-dasharray:5.0,5.0;" x1="1525" x2="1525" y1="994.0059" y2="994.0059"/><line style="stroke:#A80036;stroke-width:1.0;stroke-dasharray:1.0,4.0;" x1="1525" x2="1525" y1="994.0059" y2="1022.0059"/><line style="stroke:#181818;stroke-width:0.5;stroke-dasharray:5.0,5.0;" x1="1525" x2="1525" y1="1022.0059" y2="1447.3535"/><line style="stroke:#181818;stroke-width:0.5;stroke-dasharray:5.0,5.0;" x1="1976" x2="1976" y1="118.9766" y2="925.0508"/><line style="stroke:#A80036;stroke-width:1.0;stroke-dasharray:1.0,4.0;" x1="1976" x2="1976" y1="925.0508" y2="953.0508"/><line style="stroke:#181818;stroke-width:0.5;stroke-dasharray:5.0,5.0;" x1="1976" x2="1976" y1="953.0508" y2="953.0508"/><line style="stroke:#A80036;stroke-width:1.0;stroke-dasharray:1.0,4.0;" x1="1976" x2="1976" y1="953.0508" y2="994.0059"/><line style="stroke:#181818;stroke-width:0.5;stroke-dasharray:5.0,5.0;" x1="1976" x2="1976" y1="994.0059" y2="994.0059"/><line style="stroke:#A80036;stroke-width:1.0;stroke-dasharray:1.0,4.0;" x1="1976" x2="1976" y1="994.0059" y2="1022.0059"/><line style="stroke:#181818;stroke-width:0.5;stroke-dasharray:5.0,5.0;" x1="1976" x2="1976" y1="1022.0059" y2="1447.3535"/><rect fill="#E2E2F0" height="30.4883" rx="2.5" ry="2.5" style="stroke:#181818;stroke-width:0.5;" width="243" x="20" y="87.4883"/><text fill="#000000" font-family="sans-serif" font-size="14" lengthAdjust="spacing" textLength="229" x="27" y="108.0234">bHermes (Deposit Only ERC4626)</text><rect fill="#E2E2F0" height="30.4883" rx="2.5" ry="2.5" style="stroke:#181818;stroke-width:0.5;" width="243" x="20" y="1446.3535"/><text fill="#000000" font-family="sans-serif" font-size="14" lengthAdjust="spacing" textLength="229" x="27" y="1466.8887">bHermes (Deposit Only ERC4626)</text><rect fill="#E2E2F0" height="30.4883" rx="2.5" ry="2.5" style="stroke:#181818;stroke-width:0.5;" width="94" x="273" y="87.4883"/><text fill="#000000" font-family="sans-serif" font-size="14" lengthAdjust="spacing" textLength="80" x="280" y="108.0234">Uniswap V3</text><rect fill="#E2E2F0" height="30.4883" rx="2.5" ry="2.5" style="stroke:#181818;stroke-width:0.5;" width="94" x="273" y="1446.3535"/><text fill="#000000" font-family="sans-serif" font-size="14" lengthAdjust="spacing" textLength="80" x="280" y="1466.8887">Uniswap V3</text><rect fill="#E2E2F0" height="30.4883" rx="2.5" ry="2.5" style="stroke:#181818;stroke-width:0.5;" width="229" x="377" y="87.4883"/><text fill="#000000" font-family="sans-serif" font-size="14" lengthAdjust="spacing" textLength="215" x="384" y="108.0234">Non Fungible Position Manager</text><rect fill="#E2E2F0" height="30.4883" rx="2.5" ry="2.5" style="stroke:#181818;stroke-width:0.5;" width="229" x="377" y="1446.3535"/><text fill="#000000" font-family="sans-serif" font-size="14" lengthAdjust="spacing" textLength="215" x="384" y="1466.8887">Non Fungible Position Manager</text><text fill="#000000" font-family="sans-serif" font-size="14" lengthAdjust="spacing" textLength="31" x="636" y="116.0234">User</text><ellipse cx="654.5" cy="50.9883" fill="#E2E2F0" rx="8" ry="8" style="stroke:#181818;stroke-width:0.5;"/><path d="M654.5,58.9883 L654.5,85.9883 M641.5,66.9883 L667.5,66.9883 M654.5,85.9883 L641.5,100.9883 M654.5,85.9883 L667.5,100.9883 " fill="none" style="stroke:#181818;stroke-width:0.5;"/><text fill="#000000" font-family="sans-serif" font-size="14" lengthAdjust="spacing" textLength="31" x="636" y="1459.8887">User</text><ellipse cx="654.5" cy="1471.3418" fill="#E2E2F0" rx="8" ry="8" style="stroke:#181818;stroke-width:0.5;"/><path d="M654.5,1479.3418 L654.5,1506.3418 M641.5,1487.3418 L667.5,1487.3418 M654.5,1506.3418 L641.5,1521.3418 M654.5,1506.3418 L667.5,1521.3418 " fill="none" style="stroke:#181818;stroke-width:0.5;"/><rect fill="#E2E2F0" height="30.4883" rx="2.5" ry="2.5" style="stroke:#181818;stroke-width:0.5;" width="155" x="683" y="87.4883"/><text fill="#000000" font-family="sans-serif" font-size="14" lengthAdjust="spacing" textLength="141" x="690" y="108.0234">Multi Rewards Depot</text><rect fill="#E2E2F0" height="30.4883" rx="2.5" ry="2.5" style="stroke:#181818;stroke-width:0.5;" width="155" x="683" y="1446.3535"/><text fill="#000000" font-family="sans-serif" font-size="14" lengthAdjust="spacing" textLength="141" x="690" y="1466.8887">Multi Rewards Depot</text><rect fill="#E2E2F0" height="30.4883" rx="2.5" ry="2.5" style="stroke:#181818;stroke-width:0.5;" width="141" x="848" y="87.4883"/><text fill="#000000" font-family="sans-serif" font-size="14" lengthAdjust="spacing" textLength="127" x="855" y="108.0234">Uniswap V3 Staker</text><rect fill="#E2E2F0" height="30.4883" rx="2.5" ry="2.5" style="stroke:#181818;stroke-width:0.5;" width="141" x="848" y="1446.3535"/><text fill="#000000" font-family="sans-serif" font-size="14" lengthAdjust="spacing" textLength="127" x="855" y="1466.8887">Uniswap V3 Staker</text><rect fill="#E2E2F0" height="30.4883" rx="2.5" ry="2.5" style="stroke:#181818;stroke-width:0.5;" width="142" x="1135.5" y="87.4883"/><text fill="#000000" font-family="sans-serif" font-size="14" lengthAdjust="spacing" textLength="128" x="1142.5" y="108.0234">Uniswap V3 Gauge</text><rect fill="#E2E2F0" height="30.4883" rx="2.5" ry="2.5" style="stroke:#181818;stroke-width:0.5;" width="142" x="1135.5" y="1446.3535"/><text fill="#000000" font-family="sans-serif" font-size="14" lengthAdjust="spacing" textLength="128" x="1142.5" y="1466.8887">Uniswap V3 Gauge</text><rect fill="#E2E2F0" height="30.4883" rx="2.5" ry="2.5" style="stroke:#181818;stroke-width:0.5;" width="175" x="1438" y="87.4883"/><text fill="#000000" font-family="sans-serif" font-size="14" lengthAdjust="spacing" textLength="161" x="1445" y="108.0234">FlywheelGaugeRewards</text><rect fill="#E2E2F0" height="30.4883" rx="2.5" ry="2.5" style="stroke:#181818;stroke-width:0.5;" width="175" x="1438" y="1446.3535"/><text fill="#000000" font-family="sans-serif" font-size="14" lengthAdjust="spacing" textLength="161" x="1445" y="1466.8887">FlywheelGaugeRewards</text><rect fill="#E2E2F0" height="30.4883" rx="2.5" ry="2.5" style="stroke:#181818;stroke-width:0.5;" width="115" x="1919" y="87.4883"/><text fill="#000000" font-family="sans-serif" font-size="14" lengthAdjust="spacing" textLength="101" x="1926" y="108.0234">Base V2 Minter</text><rect fill="#E2E2F0" height="30.4883" rx="2.5" ry="2.5" style="stroke:#181818;stroke-width:0.5;" width="115" x="1919" y="1446.3535"/><text fill="#000000" font-family="sans-serif" font-size="14" lengthAdjust="spacing" textLength="101" x="1926" y="1466.8887">Base V2 Minter</text><rect fill="#FFFFFF" height="467.6582" style="stroke:#181818;stroke-width:1.0;" width="10" x="1201.5" y="352.4609"/><rect fill="#FFFFFF" height="361.7266" style="stroke:#181818;stroke-width:1.0;" width="10" x="1520.5" y="386.7715"/><rect fill="#FFFFFF" height="109.2422" style="stroke:#181818;stroke-width:1.0;" width="10" x="1525.5" y="602.9453"/><rect fill="#FFFFFF" height="296.1055" style="stroke:#181818;stroke-width:1.0;" width="10" x="1971.5" y="416.082"/><path d="M676,133.9766 L676,173.9766 L845,173.9766 L845,143.9766 L835,133.9766 L676,133.9766 " fill="#FEFFDD" style="stroke:#181818;stroke-width:0.5;"/><path d="M835,133.9766 L835,143.9766 L845,143.9766 L835,133.9766 " fill="#FEFFDD" style="stroke:#181818;stroke-width:0.5;"/><text fill="#000000" font-family="sans-serif" font-size="13" lengthAdjust="spacing" textLength="148" x="682" y="151.5449">Depot is created during</text><text fill="#000000" font-family="sans-serif" font-size="13" lengthAdjust="spacing" textLength="117" x="682" y="166.8555">Gauge deployment</text><path d="M263,186.5977 L534,186.5977 L534,193.9082 L524,203.9082 L263,203.9082 L263,186.5977 " fill="#EEEEEE" style="stroke:#000000;stroke-width:1.5;"/><rect fill="none" height="105.2422" style="stroke:#000000;stroke-width:1.5;" width="420" x="263" y="186.5977"/><text fill="#000000" font-family="sans-serif" font-size="13" font-weight="bold" lengthAdjust="spacing" textLength="226" x="278" y="200.166">Providing liquidity to Uniswap V3</text><polygon fill="#FFA500" points="331,221.2188,321,225.2188,331,229.2188,327,225.2188" style="stroke:#FFA500;stroke-width:1.0;"/><line style="stroke:#FFA500;stroke-width:1.0;" x1="325" x2="653.5" y1="225.2188" y2="225.2188"/><text fill="#000000" font-family="sans-serif" font-size="13" font-weight="bold" lengthAdjust="spacing" textLength="33" x="361.75" y="220.4766">1.1.1</text><text fill="#000000" font-family="sans-serif" font-size="13" lengthAdjust="spacing" textLength="214" x="398.75" y="220.4766">Provide liquidity (for ex. ETH/DAI)</text><polygon fill="#181818" points="479.5,250.5293,489.5,254.5293,479.5,258.5293,483.5,254.5293" style="stroke:#181818;stroke-width:1.0;"/><line style="stroke:#181818;stroke-width:1.0;" x1="320" x2="485.5" y1="254.5293" y2="254.5293"/><text fill="#000000" font-family="sans-serif" font-size="13" font-weight="bold" lengthAdjust="spacing" textLength="33" x="379.75" y="249.7871">1.1.2</text><text fill="#000000" font-family="sans-serif" font-size="13" lengthAdjust="spacing" textLength="15" x="416.75" y="249.7871">???</text><polygon fill="#800080" points="642.5,279.8398,652.5,283.8398,642.5,287.8398,646.5,283.8398" style="stroke:#800080;stroke-width:1.0;"/><line style="stroke:#800080;stroke-width:1.0;" x1="491.5" x2="648.5" y1="283.8398" y2="283.8398"/><text fill="#000000" font-family="sans-serif" font-size="13" font-weight="bold" lengthAdjust="spacing" textLength="33" x="503.5" y="279.0977">1.1.3</text><text fill="#000000" font-family="sans-serif" font-size="13" lengthAdjust="spacing" textLength="102" x="540.5" y="279.0977">Uniswap V3 NFT</text><path d="M838,305.8398 L1025,305.8398 L1025,313.1504 L1015,323.1504 L838,323.1504 L838,305.8398 " fill="#EEEEEE" style="stroke:#000000;stroke-width:1.5;"/><rect fill="none" height="522.2793" style="stroke:#000000;stroke-width:1.5;" width="1452.5" x="838" y="305.8398"/><text fill="#000000" font-family="sans-serif" font-size="13" font-weight="bold" lengthAdjust="spacing" textLength="142" x="853" y="319.4082">Starting a new epoch</text><line style="stroke:#181818;stroke-width:1.0;" x1="1206.5" x2="1253.5" y1="339.4609" y2="339.4609"/><line style="stroke:#181818;stroke-width:1.0;" x1="1253.5" x2="1253.5" y1="339.4609" y2="352.4609"/><line style="stroke:#181818;stroke-width:1.0;" x1="1212.5" x2="1253.5" y1="352.4609" y2="352.4609"/><polygon fill="#181818" points="1222.5,348.4609,1212.5,352.4609,1222.5,356.4609,1218.5,352.4609" style="stroke:#181818;stroke-width:1.0;"/><text fill="#000000" font-family="sans-serif" font-size="13" font-weight="bold" lengthAdjust="spacing" textLength="33" x="1218.5" y="334.7188">2.1.1</text><text fill="#000000" font-family="sans-serif" font-size="13" lengthAdjust="spacing" textLength="120" x="1255.5" y="334.7188">Protocol team calls</text><text fill="#000000" font-family="sans-serif" font-size="13" font-style="italic" lengthAdjust="spacing" textLength="71" x="1379.5" y="334.7188">newEpoch()</text><text fill="#000000" font-family="sans-serif" font-size="13" lengthAdjust="spacing" textLength="69" x="1454.5" y="334.7188">every week</text><polygon fill="#181818" points="1508.5,382.7715,1518.5,386.7715,1508.5,390.7715,1512.5,386.7715" style="stroke:#181818;stroke-width:1.0;"/><line style="stroke:#181818;stroke-width:1.0;" x1="1211.5" x2="1514.5" y1="386.7715" y2="386.7715"/><text fill="#000000" font-family="sans-serif" font-size="13" font-weight="bold" lengthAdjust="spacing" textLength="33" x="1268" y="382.0293">2.1.2</text><text fill="#000000" font-family="sans-serif" font-size="13" lengthAdjust="spacing" textLength="24" x="1305" y="382.0293">Call</text><text fill="#000000" font-family="sans-serif" font-size="13" font-style="italic" lengthAdjust="spacing" textLength="131" x="1333" y="382.0293">getAccruedRewards()</text><polygon fill="#181818" points="1959.5,412.082,1969.5,416.082,1959.5,420.082,1963.5,416.082" style="stroke:#181818;stroke-width:1.0;"/><line style="stroke:#181818;stroke-width:1.0;" x1="1530.5" x2="1965.5" y1="416.082" y2="416.082"/><text fill="#000000" font-family="sans-serif" font-size="13" font-weight="bold" lengthAdjust="spacing" textLength="33" x="1673.5" y="411.3398">2.1.3</text><text fill="#000000" font-family="sans-serif" font-size="13" lengthAdjust="spacing" textLength="24" x="1710.5" y="411.3398">Call</text><text fill="#000000" font-family="sans-serif" font-size="13" font-style="italic" lengthAdjust="spacing" textLength="90" x="1738.5" y="411.3398">updatePeriod()</text><line style="stroke:#0000FF;stroke-width:1.0;" x1="1981.5" x2="2023.5" y1="460.7031" y2="460.7031"/><line style="stroke:#0000FF;stroke-width:1.0;" x1="2023.5" x2="2023.5" y1="460.7031" y2="473.7031"/><line style="stroke:#0000FF;stroke-width:1.0;" x1="1982.5" x2="2023.5" y1="473.7031" y2="473.7031"/><polygon fill="#0000FF" points="1992.5,469.7031,1982.5,473.7031,1992.5,477.7031,1988.5,473.7031" style="stroke:#0000FF;stroke-width:1.0;"/><text fill="#000000" font-family="sans-serif" font-size="13" font-weight="bold" lengthAdjust="spacing" textLength="33" x="1988.5" y="448.3057">2.1.4</text><text fill="#000000" font-family="sans-serif" font-size="13" lengthAdjust="spacing" textLength="232" x="2025.5" y="440.6504">Mint HERMES once per cycle (1 week)</text><text fill="#000000" font-family="sans-serif" font-size="13" lengthAdjust="spacing" textLength="165" x="2025.5" y="455.9609">for previous week rewards</text><line style="stroke:#0000FF;stroke-width:1.0;" x1="1981.5" x2="2023.5" y1="518.3242" y2="518.3242"/><line style="stroke:#0000FF;stroke-width:1.0;" x1="2023.5" x2="2023.5" y1="518.3242" y2="531.3242"/><line style="stroke:#0000FF;stroke-width:1.0;" x1="1982.5" x2="2023.5" y1="531.3242" y2="531.3242"/><polygon fill="#0000FF" points="1992.5,527.3242,1982.5,531.3242,1992.5,535.3242,1988.5,531.3242" style="stroke:#0000FF;stroke-width:1.0;"/><text fill="#000000" font-family="sans-serif" font-size="13" font-weight="bold" lengthAdjust="spacing" textLength="33" x="1988.5" y="505.9268">2.1.5</text><text fill="#000000" font-family="sans-serif" font-size="13" lengthAdjust="spacing" textLength="52" x="2025.5" y="498.2715">Transfer</text><text fill="#000000" font-family="sans-serif" font-size="13" font-style="italic" lengthAdjust="spacing" textLength="51" x="2081.5" y="498.2715">_growth</text><text fill="#000000" font-family="sans-serif" font-size="13" lengthAdjust="spacing" textLength="49" x="2136.5" y="498.2715">to Vault</text><text fill="#000000" font-family="sans-serif" font-size="13" font-weight="bold" lengthAdjust="spacing" textLength="97" x="2025.5" y="513.582">WHAT VAULT?</text><line style="stroke:#0000FF;stroke-width:1.0;" x1="1981.5" x2="2023.5" y1="560.6348" y2="560.6348"/><line style="stroke:#0000FF;stroke-width:1.0;" x1="2023.5" x2="2023.5" y1="560.6348" y2="573.6348"/><line style="stroke:#0000FF;stroke-width:1.0;" x1="1982.5" x2="2023.5" y1="573.6348" y2="573.6348"/><polygon fill="#0000FF" points="1992.5,569.6348,1982.5,573.6348,1992.5,577.6348,1988.5,573.6348" style="stroke:#0000FF;stroke-width:1.0;"/><text fill="#000000" font-family="sans-serif" font-size="13" font-weight="bold" lengthAdjust="spacing" textLength="33" x="1988.5" y="555.8926">2.1.6</text><text fill="#000000" font-family="sans-serif" font-size="13" lengthAdjust="spacing" textLength="165" x="2025.5" y="555.8926">If DAO is present, transfer</text><text fill="#000000" font-family="sans-serif" font-size="13" font-style="italic" lengthAdjust="spacing" textLength="34" x="2194.5" y="555.8926">share</text><text fill="#000000" font-family="sans-serif" font-size="13" lengthAdjust="spacing" textLength="46" x="2232.5" y="555.8926">to DAO</text><polygon fill="#181818" points="1546.5,598.9453,1536.5,602.9453,1546.5,606.9453,1542.5,602.9453" style="stroke:#181818;stroke-width:1.0;"/><line style="stroke:#181818;stroke-width:1.0;" x1="1540.5" x2="1970.5" y1="602.9453" y2="602.9453"/><text fill="#000000" font-family="sans-serif" font-size="13" font-weight="bold" lengthAdjust="spacing" textLength="33" x="1624" y="598.2031">2.1.7</text><text fill="#000000" font-family="sans-serif" font-size="13" lengthAdjust="spacing" textLength="66" x="1661" y="598.2031">Try calling</text><text fill="#000000" font-family="sans-serif" font-size="13" font-style="italic" lengthAdjust="spacing" textLength="152" x="1731" y="598.2031">queueRewardsForCycle()</text><polygon fill="#181818" points="1959.5,628.2559,1969.5,632.2559,1959.5,636.2559,1963.5,632.2559" style="stroke:#181818;stroke-width:1.0;"/><line style="stroke:#181818;stroke-width:1.0;" x1="1535.5" x2="1965.5" y1="632.2559" y2="632.2559"/><text fill="#000000" font-family="sans-serif" font-size="13" font-weight="bold" lengthAdjust="spacing" textLength="33" x="1611" y="627.5137">2.1.8</text><text fill="#000000" font-family="sans-serif" font-size="13" lengthAdjust="spacing" textLength="24" x="1648" y="627.5137">Call</text><text fill="#000000" font-family="sans-serif" font-size="13" font-style="italic" lengthAdjust="spacing" textLength="80" x="1676" y="627.5137">getRewards()</text><text fill="#000000" font-family="sans-serif" font-size="13" lengthAdjust="spacing" textLength="136" x="1760" y="627.5137">to trigger the transfer</text><polygon fill="#0000FF" points="1546.5,657.5664,1536.5,661.5664,1546.5,665.5664,1542.5,661.5664" style="stroke:#0000FF;stroke-width:1.0;"/><line style="stroke:#0000FF;stroke-width:1.0;" x1="1540.5" x2="1970.5" y1="661.5664" y2="661.5664"/><text fill="#000000" font-family="sans-serif" font-size="13" font-weight="bold" lengthAdjust="spacing" textLength="33" x="1547.5" y="656.8242">2.1.9</text><text fill="#000000" font-family="sans-serif" font-size="13" lengthAdjust="spacing" textLength="52" x="1584.5" y="656.8242">Transfer</text><text fill="#000000" font-family="sans-serif" font-size="13" font-style="italic" lengthAdjust="spacing" textLength="126" x="1640.5" y="656.8242">newWeeklyEmission</text><text fill="#000000" font-family="sans-serif" font-size="13" lengthAdjust="spacing" textLength="189" x="1770.5" y="656.8242">of HERMES tokens for rewards</text><line style="stroke:#181818;stroke-width:1.0;" x1="1535.5" x2="1577.5" y1="711.1875" y2="711.1875"/><line style="stroke:#181818;stroke-width:1.0;" x1="1577.5" x2="1577.5" y1="711.1875" y2="724.1875"/><line style="stroke:#181818;stroke-width:1.0;" x1="1530.5" x2="1577.5" y1="724.1875" y2="724.1875"/><polygon fill="#181818" points="1540.5,720.1875,1530.5,724.1875,1540.5,728.1875,1536.5,724.1875" style="stroke:#181818;stroke-width:1.0;"/><text fill="#000000" font-family="sans-serif" font-size="13" font-weight="bold" lengthAdjust="spacing" textLength="42" x="1542.5" y="698.79">2.1.10</text><text fill="#000000" font-family="sans-serif" font-size="13" lengthAdjust="spacing" textLength="211" x="1588.5" y="691.1348">_queueRewards for the next cycle</text><text fill="#000000" font-family="sans-serif" font-size="13" lengthAdjust="spacing" textLength="166" x="1588.5" y="706.4453">Calculate gauge allocation</text><polygon fill="#0000FF" points="1222.5,744.498,1212.5,748.498,1222.5,752.498,1218.5,748.498" style="stroke:#0000FF;stroke-width:1.0;"/><line style="stroke:#0000FF;stroke-width:1.0;" x1="1216.5" x2="1524.5" y1="748.498" y2="748.498"/><text fill="#000000" font-family="sans-serif" font-size="13" font-weight="bold" lengthAdjust="spacing" textLength="42" x="1267" y="743.7559">2.1.11</text><text fill="#000000" font-family="sans-serif" font-size="13" lengthAdjust="spacing" textLength="52" x="1313" y="743.7559">Transfer</text><text fill="#000000" font-family="sans-serif" font-size="13" font-style="italic" lengthAdjust="spacing" textLength="101" x="1369" y="743.7559">accruedRewards</text><line style="stroke:#181818;stroke-width:1.0;" x1="1211.5" x2="1253.5" y1="777.8086" y2="777.8086"/><line style="stroke:#181818;stroke-width:1.0;" x1="1253.5" x2="1253.5" y1="777.8086" y2="790.8086"/><line style="stroke:#181818;stroke-width:1.0;" x1="1212.5" x2="1253.5" y1="790.8086" y2="790.8086"/><polygon fill="#181818" points="1222.5,786.8086,1212.5,790.8086,1222.5,794.8086,1218.5,790.8086" style="stroke:#181818;stroke-width:1.0;"/><text fill="#000000" font-family="sans-serif" font-size="13" font-weight="bold" lengthAdjust="spacing" textLength="42" x="1218.5" y="773.0664">2.1.12</text><text fill="#000000" font-family="sans-serif" font-size="13" lengthAdjust="spacing" textLength="24" x="1264.5" y="773.0664">Call</text><text fill="#000000" font-family="sans-serif" font-size="13" font-style="italic" lengthAdjust="spacing" textLength="170" x="1292.5" y="773.0664">distribute(accruedRewards)</text><polygon fill="#0000FF" points="929.5,816.1191,919.5,820.1191,929.5,824.1191,925.5,820.1191" style="stroke:#0000FF;stroke-width:1.0;"/><line style="stroke:#0000FF;stroke-width:1.0;" x1="923.5" x2="1205.5" y1="820.1191" y2="820.1191"/><text fill="#000000" font-family="sans-serif" font-size="13" font-weight="bold" lengthAdjust="spacing" textLength="42" x="933" y="815.377">2.1.13</text><text fill="#000000" font-family="sans-serif" font-size="13" lengthAdjust="spacing" textLength="24" x="979" y="815.377">Call</text><text fill="#000000" font-family="sans-serif" font-size="13" font-style="italic" lengthAdjust="spacing" textLength="185" x="1007" y="815.377">creativeIncentiveFromGauge()</text><path d="M626,842.1191 L916,842.1191 L916,849.4297 L906,859.4297 L626,859.4297 L626,842.1191 " fill="#EEEEEE" style="stroke:#000000;stroke-width:1.5;"/><rect fill="none" height="75.9316" style="stroke:#000000;stroke-width:1.5;" width="661.5" x="626" y="842.1191"/><text fill="#000000" font-family="sans-serif" font-size="13" font-weight="bold" lengthAdjust="spacing" textLength="245" x="641" y="855.6875">Staking NFT in the UniswapV3Staker</text><polygon fill="#800080" points="906.5,876.7402,916.5,880.7402,906.5,884.7402,910.5,880.7402" style="stroke:#800080;stroke-width:1.0;"/><line style="stroke:#800080;stroke-width:1.0;" x1="654.5" x2="912.5" y1="880.7402" y2="880.7402"/><text fill="#000000" font-family="sans-serif" font-size="13" font-weight="bold" lengthAdjust="spacing" textLength="33" x="698" y="875.998">3.1.1</text><text fill="#000000" font-family="sans-serif" font-size="13" lengthAdjust="spacing" textLength="140" x="735" y="875.998">Stake Uniswap V3 NFT</text><polygon fill="#181818" points="1194.5,906.0508,1204.5,910.0508,1194.5,914.0508,1198.5,910.0508" style="stroke:#181818;stroke-width:1.0;"/><line style="stroke:#181818;stroke-width:1.0;" x1="918.5" x2="1200.5" y1="910.0508" y2="910.0508"/><text fill="#000000" font-family="sans-serif" font-size="13" font-weight="bold" lengthAdjust="spacing" textLength="33" x="977.5" y="905.3086">3.1.2</text><text fill="#000000" font-family="sans-serif" font-size="13" lengthAdjust="spacing" textLength="133" x="1014.5" y="905.3086">Attach User to Gauge</text><text fill="#000000" font-family="sans-serif" font-size="11" lengthAdjust="spacing" textLength="3" x="940.5" y="977.6855">&#160;</text><text fill="#000000" font-family="sans-serif" font-size="11" font-weight="bold" lengthAdjust="spacing" textLength="231" x="943.5" y="977.6855">Some time has to pass to get the rewards</text><text fill="#000000" font-family="sans-serif" font-size="11" lengthAdjust="spacing" textLength="3" x="1174.5" y="977.6855">&#160;</text><path d="M367,1029.0059 L531,1029.0059 L531,1036.3164 L521,1046.3164 L367,1046.3164 L367,1029.0059 " fill="#EEEEEE" style="stroke:#000000;stroke-width:1.5;"/><rect fill="none" height="221.4844" style="stroke:#000000;stroke-width:1.5;" width="841.5" x="367" y="1029.0059"/><text fill="#000000" font-family="sans-serif" font-size="13" font-weight="bold" lengthAdjust="spacing" textLength="119" x="382" y="1042.5742">Claiming rewards</text><polygon fill="#181818" points="906.5,1063.627,916.5,1067.627,906.5,1071.627,910.5,1067.627" style="stroke:#181818;stroke-width:1.0;"/><line style="stroke:#181818;stroke-width:1.0;" x1="654.5" x2="912.5" y1="1067.627" y2="1067.627"/><text fill="#000000" font-family="sans-serif" font-size="13" font-weight="bold" lengthAdjust="spacing" textLength="33" x="689.5" y="1062.8848">4.1.1</text><text fill="#000000" font-family="sans-serif" font-size="13" lengthAdjust="spacing" textLength="157" x="726.5" y="1062.8848">Unstake Uniswap V3 NFT</text><polygon fill="#181818" points="502.5,1092.9375,492.5,1096.9375,502.5,1100.9375,498.5,1096.9375" style="stroke:#181818;stroke-width:1.0;"/><line style="stroke:#181818;stroke-width:1.0;" x1="496.5" x2="917.5" y1="1096.9375" y2="1096.9375"/><text fill="#000000" font-family="sans-serif" font-size="13" font-weight="bold" lengthAdjust="spacing" textLength="33" x="519" y="1092.1953">4.1.2</text><text fill="#000000" font-family="sans-serif" font-size="13" lengthAdjust="spacing" textLength="335" x="556" y="1092.1953">Call the collect() with the Bribes contract as Recipient</text><polygon fill="#FFA500" points="748.5,1122.248,758.5,1126.248,748.5,1130.248,752.5,1126.248" style="stroke:#FFA500;stroke-width:1.0;"/><line style="stroke:#FFA500;stroke-width:1.0;" x1="491.5" x2="754.5" y1="1126.248" y2="1126.248"/><text fill="#000000" font-family="sans-serif" font-size="13" font-weight="bold" lengthAdjust="spacing" textLength="33" x="537" y="1121.5059">4.1.3</text><text fill="#000000" font-family="sans-serif" font-size="13" lengthAdjust="spacing" textLength="141" x="574" y="1121.5059">Transfer ETH/DAI fees</text><line style="stroke:#181818;stroke-width:1.0;" x1="918.5" x2="960.5" y1="1170.8691" y2="1170.8691"/><line style="stroke:#181818;stroke-width:1.0;" x1="960.5" x2="960.5" y1="1170.8691" y2="1183.8691"/><line style="stroke:#181818;stroke-width:1.0;" x1="919.5" x2="960.5" y1="1183.8691" y2="1183.8691"/><polygon fill="#181818" points="929.5,1179.8691,919.5,1183.8691,929.5,1187.8691,925.5,1183.8691" style="stroke:#181818;stroke-width:1.0;"/><text fill="#000000" font-family="sans-serif" font-size="13" font-weight="bold" lengthAdjust="spacing" textLength="33" x="925.5" y="1158.4717">4.1.4</text><text fill="#000000" font-family="sans-serif" font-size="13" lengthAdjust="spacing" textLength="234" x="962.5" y="1150.8164">Calculate User's rewards (in Hermes?)</text><text fill="#000000" font-family="sans-serif" font-size="13" lengthAdjust="spacing" textLength="35" x="962.5" y="1166.127">using</text><text fill="#000000" font-family="sans-serif" font-size="13" font-style="italic" lengthAdjust="spacing" textLength="76" x="1001.5" y="1166.127">RewardMath</text><text fill="#000000" font-family="sans-serif" font-size="13" lengthAdjust="spacing" textLength="40" x="1081.5" y="1166.127">library</text><polygon fill="#181818" points="906.5,1209.1797,916.5,1213.1797,906.5,1217.1797,910.5,1213.1797" style="stroke:#181818;stroke-width:1.0;"/><line style="stroke:#181818;stroke-width:1.0;" x1="654.5" x2="912.5" y1="1213.1797" y2="1213.1797"/><text fill="#000000" font-family="sans-serif" font-size="13" font-weight="bold" lengthAdjust="spacing" textLength="33" x="714" y="1208.4375">4.1.5</text><text fill="#000000" font-family="sans-serif" font-size="13" lengthAdjust="spacing" textLength="108" x="751" y="1208.4375">Claim all rewards</text><polygon fill="#0000FF" points="665.5,1238.4902,655.5,1242.4902,665.5,1246.4902,661.5,1242.4902" style="stroke:#0000FF;stroke-width:1.0;"/><line style="stroke:#0000FF;stroke-width:1.0;" x1="659.5" x2="917.5" y1="1242.4902" y2="1242.4902"/><text fill="#000000" font-family="sans-serif" font-size="13" font-weight="bold" lengthAdjust="spacing" textLength="33" x="669.5" y="1237.748">4.1.6</text><text fill="#000000" font-family="sans-serif" font-size="13" lengthAdjust="spacing" textLength="197" x="706.5" y="1237.748">Transfer Hermes token rewards</text><path d="M10,1264.4902 L255,1264.4902 L255,1271.8008 L245,1281.8008 L10,1281.8008 L10,1264.4902 " fill="#EEEEEE" style="stroke:#000000;stroke-width:1.5;"/><rect fill="none" height="75.9316" style="stroke:#000000;stroke-width:1.5;" width="673" x="10" y="1264.4902"/><text fill="#000000" font-family="sans-serif" font-size="13" font-weight="bold" lengthAdjust="spacing" textLength="200" x="25" y="1278.0586">Burning HERMES for bHermes</text><polygon fill="#0000FF" points="152.5,1299.1113,142.5,1303.1113,152.5,1307.1113,148.5,1303.1113" style="stroke:#0000FF;stroke-width:1.0;"/><line style="stroke:#0000FF;stroke-width:1.0;" x1="146.5" x2="653.5" y1="1303.1113" y2="1303.1113"/><text fill="#000000" font-family="sans-serif" font-size="13" font-weight="bold" lengthAdjust="spacing" textLength="33" x="267" y="1298.3691">5.1.1</text><text fill="#000000" font-family="sans-serif" font-size="13" lengthAdjust="spacing" textLength="225" x="304" y="1298.3691">Deposit (burn) 1000 Hermes tokens</text><polygon fill="#FF0000" points="642.5,1328.4219,652.5,1332.4219,642.5,1336.4219,646.5,1332.4219" style="stroke:#FF0000;stroke-width:1.0;"/><line style="stroke:#FF0000;stroke-width:1.0;" x1="141.5" x2="648.5" y1="1332.4219" y2="1332.4219"/><text fill="#000000" font-family="sans-serif" font-size="13" font-weight="bold" lengthAdjust="spacing" textLength="33" x="294" y="1327.6797">5.1.2</text><text fill="#000000" font-family="sans-serif" font-size="13" lengthAdjust="spacing" textLength="171" x="331" y="1327.6797">Mint 1000 bHermes tokens</text><path d="M10,1354.4219 L267,1354.4219 L267,1361.7324 L257,1371.7324 L10,1371.7324 L10,1354.4219 " fill="#EEEEEE" style="stroke:#000000;stroke-width:1.5;"/><rect fill="none" height="75.9316" style="stroke:#000000;stroke-width:1.5;" width="673" x="10" y="1354.4219"/><text fill="#000000" font-family="sans-serif" font-size="13" font-weight="bold" lengthAdjust="spacing" textLength="212" x="25" y="1367.9902">Claiming utilities with bHermes</text><polygon fill="#181818" points="152.5,1389.043,142.5,1393.043,152.5,1397.043,148.5,1393.043" style="stroke:#181818;stroke-width:1.0;"/><line style="stroke:#181818;stroke-width:1.0;" x1="146.5" x2="653.5" y1="1393.043" y2="1393.043"/><text fill="#000000" font-family="sans-serif" font-size="13" font-weight="bold" lengthAdjust="spacing" textLength="33" x="258.5" y="1388.3008">6.1.1</text><text fill="#000000" font-family="sans-serif" font-size="13" lengthAdjust="spacing" textLength="242" x="295.5" y="1388.3008">Claim utility tokens for 1000 bHermes</text><polygon fill="#008000" points="642.5,1418.3535,652.5,1422.3535,642.5,1426.3535,646.5,1422.3535" style="stroke:#008000;stroke-width:1.0;"/><line style="stroke:#008000;stroke-width:1.0;" x1="141.5" x2="648.5" y1="1422.3535" y2="1422.3535"/><text fill="#000000" font-family="sans-serif" font-size="13" font-weight="bold" lengthAdjust="spacing" textLength="33" x="190.5" y="1417.6113">6.1.2</text><text fill="#000000" font-family="sans-serif" font-size="13" lengthAdjust="spacing" textLength="378" x="227.5" y="1417.6113">1000 Boost tokens, 1000 Votes tokens, 1000 Weight tokens</text><text fill="#888888" font-family="sans-serif" font-size="10" lengthAdjust="spacing" textLength="369" x="965.25" y="1667.4395">Hermes: Contract Interactions - PlantUML diagram | author: @kamilchmielu</text><rect fill="#DDDDDD" height="108.9297" id="_legend" rx="7.5" ry="7.5" style="stroke:#000000;stroke-width:1.0;" width="314" x="992.75" y="1535.8418"/><line style="stroke:#000000;stroke-width:1.0;" x1="992.75" x2="1120.75" y1="1549.0859" y2="1549.0859"/><line style="stroke:#000000;stroke-width:1.0;" x1="992.75" x2="1120.75" y1="1551.0859" y2="1551.0859"/><text fill="#000000" font-family="sans-serif" font-size="14" lengthAdjust="spacing" textLength="50" x="1124.75" y="1553.877">Legend</text><line style="stroke:#000000;stroke-width:1.0;" x1="1178.75" x2="1306.75" y1="1549.0859" y2="1549.0859"/><line style="stroke:#000000;stroke-width:1.0;" x1="1178.75" x2="1306.75" y1="1551.0859" y2="1551.0859"/><text fill="#FFA500" font-family="sans-serif" font-size="14" lengthAdjust="spacing" textLength="51" x="997.75" y="1570.8652">Orange</text><text fill="#000000" font-family="sans-serif" font-size="14" lengthAdjust="spacing" textLength="249" x="1052.75" y="1570.8652">- Tokens supplied to the UniV3 pool</text><text fill="#800080" font-family="sans-serif" font-size="14" lengthAdjust="spacing" textLength="44" x="997.75" y="1587.3535">Purple</text><text fill="#000000" font-family="sans-serif" font-size="14" lengthAdjust="spacing" textLength="117" x="1045.75" y="1587.3535">- UniV3 NFT flow</text><text fill="#0000FF" font-family="sans-serif" font-size="14" lengthAdjust="spacing" textLength="29" x="997.75" y="1603.8418">Blue</text><text fill="#000000" font-family="sans-serif" font-size="14" lengthAdjust="spacing" textLength="154" x="1030.75" y="1603.8418">- HERMES Tokens flow</text><text fill="#FF0000" font-family="sans-serif" font-size="14" lengthAdjust="spacing" textLength="26" x="997.75" y="1620.3301">Red</text><text fill="#000000" font-family="sans-serif" font-size="14" lengthAdjust="spacing" textLength="163" x="1027.75" y="1620.3301">- bHERMES Tokens flow</text><text fill="#008000" font-family="sans-serif" font-size="14" lengthAdjust="spacing" textLength="41" x="997.75" y="1636.8184">Green</text><text fill="#000000" font-family="sans-serif" font-size="14" lengthAdjust="spacing" textLength="138" x="1042.75" y="1636.8184">- Utility Tokens flow</text><!--SRC=[lLZTKziu47_tNx7JUo0m9IdqhW-T4YvGACoGbe4G7ewRLh4tZWP5SYMPrDUx__rMiXtR-O9EFyoG66c_zxUh5PPRWN0xGOqGAJHW9mWPHn51gAO8OwscXq7GsOBETpz1fmChd-lCM9p29TEMXpnXqXfOytWft_l0LYS8aaeRF1kTePwIzwstc2Z3BNoG8eEJg-FVN-s_sdu6p411qkIxaTpCM0B3bvwc-7FuiadrNaauJMNCHnJhIoUVqqgVIHQZzen4KHAK-yKs104BhTAaonJ4xgMfe9yAo-4APqn71fmFrbFwzMBPhmPIMGJrG7ANzk1rpWdSGAYHMOmWIZMNyPrynzAO08A9KDaKfGtMXG6kBRilxIoZaQ-jPV72cnn-gSbmAhBP157uhS9kpxHgeybwn0p2S1_wNDh2DhSqtCyNVZQywJbtUYYFbDUrqFwXyDvwdqv7g0qmAcmkVLdtsaVjOnWhFMNsEOmo29aGb5xun6K8lK-GgHHcN0XYS02We3csCTV6WlJo7DVULi1Igug5lJRz1B5MQGANMZtmo4aK_7DARpO3gw1ATU1yTF25tRz-Kvh96F_kLbad1EOYi2QWHGO3Vcd3oU2iyxPtlfqBcVFiTZTLpsiuF3pq71k8o9WarOdmnXZFLOFd-zD1W38AwbxxW1LU4xe9Q-Gq0uape18A9qqRy-hPxIwkU7Uj2fK0Yspgys480oJcn4bfRLCoaOerWndYlHVgGFH0jRbOAwiLhgeDKdjCYaXFZBONXZh5gDXo2fjQLXQNerWfcJJM2wlIb2OHIRj4pLMqhAHHZ6wd8OIoCnAfoys2RFS2PoTN_PDhK394I6Wvp49gigqz7x7jE-dGasXyu2erVWrqpOkdAHeGKisONZkTZvJpcPrGNWZOGqOzz4xkxDoUzGOmxDrS30vtTk0R99-FuMtlW-kuPAEXnleSRANCJAXwSrL4jKBisWGFT5NTdSxd5DDoyrJfOnUYdvPg0bKDJSvsgtdioimrazAxJJ5QwzCyC5GWjvHAaPrCkJ5KoQH8ZKiiM7MFr6PTvejSmqO_rkZxM0-Rb-OSaFZ5vY2xa-Hnc0eNkzWN70L0XSnr5gylmlK8h-rzOzpdOLfg9hK0iKPPKtIUhFG9JQj8TCGDPNQKMcmrrPN8MXIrR7a-65GY_TZ17_2SgbcwbrCQFptt7Aur7nOwu2Cz-jxL0lNoyZHSd4xgHrDr6YnPwbyMZuU6jmNfgiZrh6NX95T3XL6pkzrkkr_OsRbsOxVbz36XEOMe4cRyDnMMDxp0D3MQWccjryU2yQbpkzxoSXzNkNOZpJSuj_7GzVbqnjBP9Z2qhMqQBEp4BnqHQ6ZK3fMqRYHoqzWLqgZ6tLpv-4az7njM3R3p4YY61HWZcaVJKuTXKT0kIbjctZzQ19fy_Z-aCoKrUL_DbVUPFmy47sb6RVUH8FkSk4xHJCgYTLMjcEOHL5nKV8-RYzW4_QDKIsTkqHnT7oklCdN85-hAYr1-5t0teTQ816p3teiNBnhAS_QIdYHeZ2fx_TdiUKPDfascpl6QMYuexyJbKRDiRztGFA8vIrPl_dNrYyR66b5MvdhI8wLeqCq5FC-NXdHTCisbM-Jnn3RS-UdN1tekC2PTiFdvSRTZuTNvg1qSbCeF3lp2cp6LhgjifG_oQkn-y5zlEcwd2ximoBDWqYGHdEwHRWh8UourbKGfiIGeRxdTI_zL2SevNDiU2pLRudAexHxHHyLHuBomO2KN8RLxXL75Cte2aqTCzvtxh9bNeAxEI94gelTBW75jCp_c_I9W63f7wN9DjnM3D23HGTr7OwWvzmIF9RXpcmxJYih_m-5hFkuf7Q4-Tj64aM3XVJ44XlUk_6MKxymctERNcLCASftwlvhO-lt-wvpwcl-3iF_7Ihd2bMsiMKPoWh5ITjvCgOMKPr7ZdhuBbuBat_Gl8E8iTch_1MfT4wLVmv_tRCf5E9bo5Ed_]--></g></svg>