<?xml version="1.0" encoding="us-ascii" standalone="no"?><svg xmlns="http://www.w3.org/2000/svg" xmlns:xlink="http://www.w3.org/1999/xlink" contentStyleType="text/css" height="1650px" preserveAspectRatio="none" style="width:2474px;height:1650px;background:#FFFFFF;" version="1.1" viewBox="0 0 2474 1650" width="2474px" zoomAndPan="magnify"><defs/><g><text fill="#000000" font-family="sans-serif" font-size="14" font-weight="bold" lengthAdjust="spacing" textLength="241" x="1118.25" y="28.5352">Where does the yield come from?</text><rect fill="#FFFFFF" height="361.7266" style="stroke:#181818;stroke-width:1.0;" width="10" x="1713.5" y="386.7715"/><rect fill="none" height="105.2422" style="stroke:#000000;stroke-width:1.5;" width="420" x="263" y="186.5977"/><rect fill="none" height="495.2793" style="stroke:#000000;stroke-width:1.5;" width="1630.5" x="838" y="305.8398"/><rect fill="none" height="75.9316" style="stroke:#000000;stroke-width:1.5;" width="854.5" x="626" y="815.1191"/><rect fill="none" height="221.4844" style="stroke:#000000;stroke-width:1.5;" width="841.5" x="367" y="1002.0059"/><rect fill="none" height="75.9316" style="stroke:#000000;stroke-width:1.5;" width="673" x="10" y="1237.4902"/><rect fill="none" height="75.9316" style="stroke:#000000;stroke-width:1.5;" width="673" x="10" y="1327.4219"/><line style="stroke:#181818;stroke-width:0.5;stroke-dasharray:5.0,5.0;" x1="141" x2="141" y1="118.9766" y2="898.0508"/><line style="stroke:#A80036;stroke-width:1.0;stroke-dasharray:1.0,4.0;" x1="141" x2="141" y1="898.0508" y2="926.0508"/><line style="stroke:#181818;stroke-width:0.5;stroke-dasharray:5.0,5.0;" x1="141" x2="141" y1="926.0508" y2="926.0508"/><line style="stroke:#A80036;stroke-width:1.0;stroke-dasharray:1.0,4.0;" x1="141" x2="141" y1="926.0508" y2="967.0059"/><line style="stroke:#181818;stroke-width:0.5;stroke-dasharray:5.0,5.0;" x1="141" x2="141" y1="967.0059" y2="967.0059"/><line style="stroke:#A80036;stroke-width:1.0;stroke-dasharray:1.0,4.0;" x1="141" x2="141" y1="967.0059" y2="995.0059"/><line style="stroke:#181818;stroke-width:0.5;stroke-dasharray:5.0,5.0;" x1="141" x2="141" y1="995.0059" y2="1420.3535"/><line style="stroke:#181818;stroke-width:0.5;stroke-dasharray:5.0,5.0;" x1="320" x2="320" y1="118.9766" y2="898.0508"/><line style="stroke:#A80036;stroke-width:1.0;stroke-dasharray:1.0,4.0;" x1="320" x2="320" y1="898.0508" y2="926.0508"/><line style="stroke:#181818;stroke-width:0.5;stroke-dasharray:5.0,5.0;" x1="320" x2="320" y1="926.0508" y2="926.0508"/><line style="stroke:#A80036;stroke-width:1.0;stroke-dasharray:1.0,4.0;" x1="320" x2="320" y1="926.0508" y2="967.0059"/><line style="stroke:#181818;stroke-width:0.5;stroke-dasharray:5.0,5.0;" x1="320" x2="320" y1="967.0059" y2="967.0059"/><line style="stroke:#A80036;stroke-width:1.0;stroke-dasharray:1.0,4.0;" x1="320" x2="320" y1="967.0059" y2="995.0059"/><line style="stroke:#181818;stroke-width:0.5;stroke-dasharray:5.0,5.0;" x1="320" x2="320" y1="995.0059" y2="1420.3535"/><line style="stroke:#181818;stroke-width:0.5;stroke-dasharray:5.0,5.0;" x1="491" x2="491" y1="118.9766" y2="898.0508"/><line style="stroke:#A80036;stroke-width:1.0;stroke-dasharray:1.0,4.0;" x1="491" x2="491" y1="898.0508" y2="926.0508"/><line style="stroke:#181818;stroke-width:0.5;stroke-dasharray:5.0,5.0;" x1="491" x2="491" y1="926.0508" y2="926.0508"/><line style="stroke:#A80036;stroke-width:1.0;stroke-dasharray:1.0,4.0;" x1="491" x2="491" y1="926.0508" y2="967.0059"/><line style="stroke:#181818;stroke-width:0.5;stroke-dasharray:5.0,5.0;" x1="491" x2="491" y1="967.0059" y2="967.0059"/><line style="stroke:#A80036;stroke-width:1.0;stroke-dasharray:1.0,4.0;" x1="491" x2="491" y1="967.0059" y2="995.0059"/><line style="stroke:#181818;stroke-width:0.5;stroke-dasharray:5.0,5.0;" x1="491" x2="491" y1="995.0059" y2="1420.3535"/><line style="stroke:#181818;stroke-width:0.5;stroke-dasharray:5.0,5.0;" x1="654" x2="654" y1="118.9766" y2="898.0508"/><line style="stroke:#A80036;stroke-width:1.0;stroke-dasharray:1.0,4.0;" x1="654" x2="654" y1="898.0508" y2="926.0508"/><line style="stroke:#181818;stroke-width:0.5;stroke-dasharray:5.0,5.0;" x1="654" x2="654" y1="926.0508" y2="926.0508"/><line style="stroke:#A80036;stroke-width:1.0;stroke-dasharray:1.0,4.0;" x1="654" x2="654" y1="926.0508" y2="967.0059"/><line style="stroke:#181818;stroke-width:0.5;stroke-dasharray:5.0,5.0;" x1="654" x2="654" y1="967.0059" y2="967.0059"/><line style="stroke:#A80036;stroke-width:1.0;stroke-dasharray:1.0,4.0;" x1="654" x2="654" y1="967.0059" y2="995.0059"/><line style="stroke:#181818;stroke-width:0.5;stroke-dasharray:5.0,5.0;" x1="654" x2="654" y1="995.0059" y2="1420.3535"/><line style="stroke:#181818;stroke-width:0.5;stroke-dasharray:5.0,5.0;" x1="760" x2="760" y1="118.9766" y2="898.0508"/><line style="stroke:#A80036;stroke-width:1.0;stroke-dasharray:1.0,4.0;" x1="760" x2="760" y1="898.0508" y2="926.0508"/><line style="stroke:#181818;stroke-width:0.5;stroke-dasharray:5.0,5.0;" x1="760" x2="760" y1="926.0508" y2="926.0508"/><line style="stroke:#A80036;stroke-width:1.0;stroke-dasharray:1.0,4.0;" x1="760" x2="760" y1="926.0508" y2="967.0059"/><line style="stroke:#181818;stroke-width:0.5;stroke-dasharray:5.0,5.0;" x1="760" x2="760" y1="967.0059" y2="967.0059"/><line style="stroke:#A80036;stroke-width:1.0;stroke-dasharray:1.0,4.0;" x1="760" x2="760" y1="967.0059" y2="995.0059"/><line style="stroke:#181818;stroke-width:0.5;stroke-dasharray:5.0,5.0;" x1="760" x2="760" y1="995.0059" y2="1420.3535"/><line style="stroke:#181818;stroke-width:0.5;stroke-dasharray:5.0,5.0;" x1="918" x2="918" y1="118.9766" y2="898.0508"/><line style="stroke:#A80036;stroke-width:1.0;stroke-dasharray:1.0,4.0;" x1="918" x2="918" y1="898.0508" y2="926.0508"/><line style="stroke:#181818;stroke-width:0.5;stroke-dasharray:5.0,5.0;" x1="918" x2="918" y1="926.0508" y2="926.0508"/><line style="stroke:#A80036;stroke-width:1.0;stroke-dasharray:1.0,4.0;" x1="918" x2="918" y1="926.0508" y2="967.0059"/><line style="stroke:#181818;stroke-width:0.5;stroke-dasharray:5.0,5.0;" x1="918" x2="918" y1="967.0059" y2="967.0059"/><line style="stroke:#A80036;stroke-width:1.0;stroke-dasharray:1.0,4.0;" x1="918" x2="918" y1="967.0059" y2="995.0059"/><line style="stroke:#181818;stroke-width:0.5;stroke-dasharray:5.0,5.0;" x1="918" x2="918" y1="995.0059" y2="1420.3535"/><line style="stroke:#181818;stroke-width:0.5;stroke-dasharray:5.0,5.0;" x1="1399.5" x2="1399.5" y1="118.9766" y2="898.0508"/><line style="stroke:#A80036;stroke-width:1.0;stroke-dasharray:1.0,4.0;" x1="1399.5" x2="1399.5" y1="898.0508" y2="926.0508"/><line style="stroke:#181818;stroke-width:0.5;stroke-dasharray:5.0,5.0;" x1="1399.5" x2="1399.5" y1="926.0508" y2="926.0508"/><line style="stroke:#A80036;stroke-width:1.0;stroke-dasharray:1.0,4.0;" x1="1399.5" x2="1399.5" y1="926.0508" y2="967.0059"/><line style="stroke:#181818;stroke-width:0.5;stroke-dasharray:5.0,5.0;" x1="1399.5" x2="1399.5" y1="967.0059" y2="967.0059"/><line style="stroke:#A80036;stroke-width:1.0;stroke-dasharray:1.0,4.0;" x1="1399.5" x2="1399.5" y1="967.0059" y2="995.0059"/><line style="stroke:#181818;stroke-width:0.5;stroke-dasharray:5.0,5.0;" x1="1399.5" x2="1399.5" y1="995.0059" y2="1420.3535"/><line style="stroke:#181818;stroke-width:0.5;stroke-dasharray:5.0,5.0;" x1="1718" x2="1718" y1="118.9766" y2="898.0508"/><line style="stroke:#A80036;stroke-width:1.0;stroke-dasharray:1.0,4.0;" x1="1718" x2="1718" y1="898.0508" y2="926.0508"/><line style="stroke:#181818;stroke-width:0.5;stroke-dasharray:5.0,5.0;" x1="1718" x2="1718" y1="926.0508" y2="926.0508"/><line style="stroke:#A80036;stroke-width:1.0;stroke-dasharray:1.0,4.0;" x1="1718" x2="1718" y1="926.0508" y2="967.0059"/><line style="stroke:#181818;stroke-width:0.5;stroke-dasharray:5.0,5.0;" x1="1718" x2="1718" y1="967.0059" y2="967.0059"/><line style="stroke:#A80036;stroke-width:1.0;stroke-dasharray:1.0,4.0;" x1="1718" x2="1718" y1="967.0059" y2="995.0059"/><line style="stroke:#181818;stroke-width:0.5;stroke-dasharray:5.0,5.0;" x1="1718" x2="1718" y1="995.0059" y2="1420.3535"/><line style="stroke:#181818;stroke-width:0.5;stroke-dasharray:5.0,5.0;" x1="2159" x2="2159" y1="118.9766" y2="898.0508"/><line style="stroke:#A80036;stroke-width:1.0;stroke-dasharray:1.0,4.0;" x1="2159" x2="2159" y1="898.0508" y2="926.0508"/><line style="stroke:#181818;stroke-width:0.5;stroke-dasharray:5.0,5.0;" x1="2159" x2="2159" y1="926.0508" y2="926.0508"/><line style="stroke:#A80036;stroke-width:1.0;stroke-dasharray:1.0,4.0;" x1="2159" x2="2159" y1="926.0508" y2="967.0059"/><line style="stroke:#181818;stroke-width:0.5;stroke-dasharray:5.0,5.0;" x1="2159" x2="2159" y1="967.0059" y2="967.0059"/><line style="stroke:#A80036;stroke-width:1.0;stroke-dasharray:1.0,4.0;" x1="2159" x2="2159" y1="967.0059" y2="995.0059"/><line style="stroke:#181818;stroke-width:0.5;stroke-dasharray:5.0,5.0;" x1="2159" x2="2159" y1="995.0059" y2="1420.3535"/><rect fill="#E2E2F0" height="30.4883" rx="2.5" ry="2.5" style="stroke:#181818;stroke-width:0.5;" width="243" x="20" y="87.4883"/><text fill="#000000" font-family="sans-serif" font-size="14" lengthAdjust="spacing" textLength="229" x="27" y="108.0234">bHermes (Deposit Only ERC4626)</text><rect fill="#E2E2F0" height="30.4883" rx="2.5" ry="2.5" style="stroke:#181818;stroke-width:0.5;" width="243" x="20" y="1419.3535"/><text fill="#000000" font-family="sans-serif" font-size="14" lengthAdjust="spacing" textLength="229" x="27" y="1439.8887">bHermes (Deposit Only ERC4626)</text><rect fill="#E2E2F0" height="30.4883" rx="2.5" ry="2.5" style="stroke:#181818;stroke-width:0.5;" width="94" x="273" y="87.4883"/><text fill="#000000" font-family="sans-serif" font-size="14" lengthAdjust="spacing" textLength="80" x="280" y="108.0234">Uniswap V3</text><rect fill="#E2E2F0" height="30.4883" rx="2.5" ry="2.5" style="stroke:#181818;stroke-width:0.5;" width="94" x="273" y="1419.3535"/><text fill="#000000" font-family="sans-serif" font-size="14" lengthAdjust="spacing" textLength="80" x="280" y="1439.8887">Uniswap V3</text><rect fill="#E2E2F0" height="30.4883" rx="2.5" ry="2.5" style="stroke:#181818;stroke-width:0.5;" width="229" x="377" y="87.4883"/><text fill="#000000" font-family="sans-serif" font-size="14" lengthAdjust="spacing" textLength="215" x="384" y="108.0234">Non Fungible Position Manager</text><rect fill="#E2E2F0" height="30.4883" rx="2.5" ry="2.5" style="stroke:#181818;stroke-width:0.5;" width="229" x="377" y="1419.3535"/><text fill="#000000" font-family="sans-serif" font-size="14" lengthAdjust="spacing" textLength="215" x="384" y="1439.8887">Non Fungible Position Manager</text><text fill="#000000" font-family="sans-serif" font-size="14" lengthAdjust="spacing" textLength="31" x="636" y="116.0234">User</text><ellipse cx="654.5" cy="50.9883" fill="#E2E2F0" rx="8" ry="8" style="stroke:#181818;stroke-width:0.5;"/><path d="M654.5,58.9883 L654.5,85.9883 M641.5,66.9883 L667.5,66.9883 M654.5,85.9883 L641.5,100.9883 M654.5,85.9883 L667.5,100.9883 " fill="none" style="stroke:#181818;stroke-width:0.5;"/><text fill="#000000" font-family="sans-serif" font-size="14" lengthAdjust="spacing" textLength="31" x="636" y="1432.8887">User</text><ellipse cx="654.5" cy="1444.3418" fill="#E2E2F0" rx="8" ry="8" style="stroke:#181818;stroke-width:0.5;"/><path d="M654.5,1452.3418 L654.5,1479.3418 M641.5,1460.3418 L667.5,1460.3418 M654.5,1479.3418 L641.5,1494.3418 M654.5,1479.3418 L667.5,1494.3418 " fill="none" style="stroke:#181818;stroke-width:0.5;"/><rect fill="#E2E2F0" height="30.4883" rx="2.5" ry="2.5" style="stroke:#181818;stroke-width:0.5;" width="155" x="683" y="87.4883"/><text fill="#000000" font-family="sans-serif" font-size="14" lengthAdjust="spacing" textLength="141" x="690" y="108.0234">Multi Rewards Depot</text><rect fill="#E2E2F0" height="30.4883" rx="2.5" ry="2.5" style="stroke:#181818;stroke-width:0.5;" width="155" x="683" y="1419.3535"/><text fill="#000000" font-family="sans-serif" font-size="14" lengthAdjust="spacing" textLength="141" x="690" y="1439.8887">Multi Rewards Depot</text><rect fill="#E2E2F0" height="30.4883" rx="2.5" ry="2.5" style="stroke:#181818;stroke-width:0.5;" width="141" x="848" y="87.4883"/><text fill="#000000" font-family="sans-serif" font-size="14" lengthAdjust="spacing" textLength="127" x="855" y="108.0234">Uniswap V3 Staker</text><rect fill="#E2E2F0" height="30.4883" rx="2.5" ry="2.5" style="stroke:#181818;stroke-width:0.5;" width="141" x="848" y="1419.3535"/><text fill="#000000" font-family="sans-serif" font-size="14" lengthAdjust="spacing" textLength="127" x="855" y="1439.8887">Uniswap V3 Staker</text><rect fill="#E2E2F0" height="30.4883" rx="2.5" ry="2.5" style="stroke:#181818;stroke-width:0.5;" width="142" x="1328.5" y="87.4883"/><text fill="#000000" font-family="sans-serif" font-size="14" lengthAdjust="spacing" textLength="128" x="1335.5" y="108.0234">Uniswap V3 Gauge</text><rect fill="#E2E2F0" height="30.4883" rx="2.5" ry="2.5" style="stroke:#181818;stroke-width:0.5;" width="142" x="1328.5" y="1419.3535"/><text fill="#000000" font-family="sans-serif" font-size="14" lengthAdjust="spacing" textLength="128" x="1335.5" y="1439.8887">Uniswap V3 Gauge</text><rect fill="#E2E2F0" height="30.4883" rx="2.5" ry="2.5" style="stroke:#181818;stroke-width:0.5;" width="175" x="1631" y="87.4883"/><text fill="#000000" font-family="sans-serif" font-size="14" lengthAdjust="spacing" textLength="161" x="1638" y="108.0234">FlywheelGaugeRewards</text><rect fill="#E2E2F0" height="30.4883" rx="2.5" ry="2.5" style="stroke:#181818;stroke-width:0.5;" width="175" x="1631" y="1419.3535"/><text fill="#000000" font-family="sans-serif" font-size="14" lengthAdjust="spacing" textLength="161" x="1638" y="1439.8887">FlywheelGaugeRewards</text><rect fill="#E2E2F0" height="30.4883" rx="2.5" ry="2.5" style="stroke:#181818;stroke-width:0.5;" width="115" x="2102" y="87.4883"/><text fill="#000000" font-family="sans-serif" font-size="14" lengthAdjust="spacing" textLength="101" x="2109" y="108.0234">Base V2 Minter</text><rect fill="#E2E2F0" height="30.4883" rx="2.5" ry="2.5" style="stroke:#181818;stroke-width:0.5;" width="115" x="2102" y="1419.3535"/><text fill="#000000" font-family="sans-serif" font-size="14" lengthAdjust="spacing" textLength="101" x="2109" y="1439.8887">Base V2 Minter</text><rect fill="#FFFFFF" height="361.7266" style="stroke:#181818;stroke-width:1.0;" width="10" x="1713.5" y="386.7715"/><path d="M676,133.9766 L676,173.9766 L845,173.9766 L845,143.9766 L835,133.9766 L676,133.9766 " fill="#FEFFDD" style="stroke:#181818;stroke-width:0.5;"/><path d="M835,133.9766 L835,143.9766 L845,143.9766 L835,133.9766 " fill="#FEFFDD" style="stroke:#181818;stroke-width:0.5;"/><text fill="#000000" font-family="sans-serif" font-size="13" lengthAdjust="spacing" textLength="148" x="682" y="151.5449">Depot is created during</text><text fill="#000000" font-family="sans-serif" font-size="13" lengthAdjust="spacing" textLength="117" x="682" y="166.8555">Gauge deployment</text><path d="M263,186.5977 L534,186.5977 L534,193.9082 L524,203.9082 L263,203.9082 L263,186.5977 " fill="#EEEEEE" style="stroke:#000000;stroke-width:1.5;"/><rect fill="none" height="105.2422" style="stroke:#000000;stroke-width:1.5;" width="420" x="263" y="186.5977"/><text fill="#000000" font-family="sans-serif" font-size="13" font-weight="bold" lengthAdjust="spacing" textLength="226" x="278" y="200.166">Providing liquidity to Uniswap V3</text><polygon fill="#FFA500" points="331,221.2188,321,225.2188,331,229.2188,327,225.2188" style="stroke:#FFA500;stroke-width:1.0;"/><line style="stroke:#FFA500;stroke-width:1.0;" x1="325" x2="653.5" y1="225.2188" y2="225.2188"/><text fill="#000000" font-family="sans-serif" font-size="13" font-weight="bold" lengthAdjust="spacing" textLength="33" x="361.75" y="220.4766">1.1.1</text><text fill="#000000" font-family="sans-serif" font-size="13" lengthAdjust="spacing" textLength="214" x="398.75" y="220.4766">Provide liquidity (for ex. ETH/DAI)</text><polygon fill="#181818" points="479.5,250.5293,489.5,254.5293,479.5,258.5293,483.5,254.5293" style="stroke:#181818;stroke-width:1.0;"/><line style="stroke:#181818;stroke-width:1.0;" x1="320" x2="485.5" y1="254.5293" y2="254.5293"/><text fill="#000000" font-family="sans-serif" font-size="13" font-weight="bold" lengthAdjust="spacing" textLength="33" x="379.75" y="249.7871">1.1.2</text><text fill="#000000" font-family="sans-serif" font-size="13" lengthAdjust="spacing" textLength="15" x="416.75" y="249.7871">???</text><polygon fill="#800080" points="642.5,279.8398,652.5,283.8398,642.5,287.8398,646.5,283.8398" style="stroke:#800080;stroke-width:1.0;"/><line style="stroke:#800080;stroke-width:1.0;" x1="491.5" x2="648.5" y1="283.8398" y2="283.8398"/><text fill="#000000" font-family="sans-serif" font-size="13" font-weight="bold" lengthAdjust="spacing" textLength="33" x="503.5" y="279.0977">1.1.3</text><text fill="#000000" font-family="sans-serif" font-size="13" lengthAdjust="spacing" textLength="102" x="540.5" y="279.0977">Uniswap V3 NFT</text><path d="M838,305.8398 L1025,305.8398 L1025,313.1504 L1015,323.1504 L838,323.1504 L838,305.8398 " fill="#EEEEEE" style="stroke:#000000;stroke-width:1.5;"/><rect fill="none" height="495.2793" style="stroke:#000000;stroke-width:1.5;" width="1630.5" x="838" y="305.8398"/><text fill="#000000" font-family="sans-serif" font-size="13" font-weight="bold" lengthAdjust="spacing" textLength="142" x="853" y="319.4082">Starting a new epoch</text><line style="stroke:#181818;stroke-width:1.0;" x1="1399.5" x2="1441.5" y1="344.4609" y2="344.4609"/><line style="stroke:#181818;stroke-width:1.0;" x1="1441.5" x2="1441.5" y1="344.4609" y2="357.4609"/><line style="stroke:#181818;stroke-width:1.0;" x1="1400.5" x2="1441.5" y1="357.4609" y2="357.4609"/><polygon fill="#181818" points="1410.5,353.4609,1400.5,357.4609,1410.5,361.4609,1406.5,357.4609" style="stroke:#181818;stroke-width:1.0;"/><text fill="#000000" font-family="sans-serif" font-size="13" font-weight="bold" lengthAdjust="spacing" textLength="33" x="1406.5" y="339.7188">2.1.1</text><text fill="#000000" font-family="sans-serif" font-size="13" lengthAdjust="spacing" textLength="120" x="1443.5" y="339.7188">Protocol team calls</text><text fill="#000000" font-family="sans-serif" font-size="13" font-style="italic" lengthAdjust="spacing" textLength="71" x="1567.5" y="339.7188">newEpoch()</text><text fill="#000000" font-family="sans-serif" font-size="13" lengthAdjust="spacing" textLength="69" x="1642.5" y="339.7188">every week</text><polygon fill="#181818" points="1701.5,382.7715,1711.5,386.7715,1701.5,390.7715,1705.5,386.7715" style="stroke:#181818;stroke-width:1.0;"/><line style="stroke:#181818;stroke-width:1.0;" x1="1399.5" x2="1707.5" y1="386.7715" y2="386.7715"/><text fill="#000000" font-family="sans-serif" font-size="13" font-weight="bold" lengthAdjust="spacing" textLength="33" x="1458.5" y="382.0293">2.1.2</text><text fill="#000000" font-family="sans-serif" font-size="13" lengthAdjust="spacing" textLength="24" x="1495.5" y="382.0293">Call</text><text fill="#000000" font-family="sans-serif" font-size="13" font-style="italic" lengthAdjust="spacing" textLength="131" x="1523.5" y="382.0293">getAccruedRewards()</text><polygon fill="#181818" points="2147.5,412.082,2157.5,416.082,2147.5,420.082,2151.5,416.082" style="stroke:#181818;stroke-width:1.0;"/><line style="stroke:#181818;stroke-width:1.0;" x1="1723.5" x2="2153.5" y1="416.082" y2="416.082"/><text fill="#000000" font-family="sans-serif" font-size="13" font-weight="bold" lengthAdjust="spacing" textLength="33" x="1864" y="411.3398">2.1.3</text><text fill="#000000" font-family="sans-serif" font-size="13" lengthAdjust="spacing" textLength="24" x="1901" y="411.3398">Call</text><text fill="#000000" font-family="sans-serif" font-size="13" font-style="italic" lengthAdjust="spacing" textLength="90" x="1929" y="411.3398">updatePeriod()</text><line style="stroke:#0000FF;stroke-width:1.0;" x1="2159.5" x2="2201.5" y1="460.7031" y2="460.7031"/><line style="stroke:#0000FF;stroke-width:1.0;" x1="2201.5" x2="2201.5" y1="460.7031" y2="473.7031"/><line style="stroke:#0000FF;stroke-width:1.0;" x1="2160.5" x2="2201.5" y1="473.7031" y2="473.7031"/><polygon fill="#0000FF" points="2170.5,469.7031,2160.5,473.7031,2170.5,477.7031,2166.5,473.7031" style="stroke:#0000FF;stroke-width:1.0;"/><text fill="#000000" font-family="sans-serif" font-size="13" font-weight="bold" lengthAdjust="spacing" textLength="33" x="2166.5" y="448.3057">2.1.4</text><text fill="#000000" font-family="sans-serif" font-size="13" lengthAdjust="spacing" textLength="232" x="2203.5" y="440.6504">Mint HERMES once per cycle (1 week)</text><text fill="#000000" font-family="sans-serif" font-size="13" lengthAdjust="spacing" textLength="165" x="2203.5" y="455.9609">for previous week rewards</text><line style="stroke:#0000FF;stroke-width:1.0;" x1="2159.5" x2="2201.5" y1="518.3242" y2="518.3242"/><line style="stroke:#0000FF;stroke-width:1.0;" x1="2201.5" x2="2201.5" y1="518.3242" y2="531.3242"/><line style="stroke:#0000FF;stroke-width:1.0;" x1="2160.5" x2="2201.5" y1="531.3242" y2="531.3242"/><polygon fill="#0000FF" points="2170.5,527.3242,2160.5,531.3242,2170.5,535.3242,2166.5,531.3242" style="stroke:#0000FF;stroke-width:1.0;"/><text fill="#000000" font-family="sans-serif" font-size="13" font-weight="bold" lengthAdjust="spacing" textLength="33" x="2166.5" y="505.9268">2.1.5</text><text fill="#000000" font-family="sans-serif" font-size="13" lengthAdjust="spacing" textLength="52" x="2203.5" y="498.2715">Transfer</text><text fill="#000000" font-family="sans-serif" font-size="13" font-style="italic" lengthAdjust="spacing" textLength="51" x="2259.5" y="498.2715">_growth</text><text fill="#000000" font-family="sans-serif" font-size="13" lengthAdjust="spacing" textLength="49" x="2314.5" y="498.2715">to Vault</text><text fill="#000000" font-family="sans-serif" font-size="13" font-weight="bold" lengthAdjust="spacing" textLength="97" x="2203.5" y="513.582">WHAT VAULT?</text><line style="stroke:#0000FF;stroke-width:1.0;" x1="2159.5" x2="2201.5" y1="560.6348" y2="560.6348"/><line style="stroke:#0000FF;stroke-width:1.0;" x1="2201.5" x2="2201.5" y1="560.6348" y2="573.6348"/><line style="stroke:#0000FF;stroke-width:1.0;" x1="2160.5" x2="2201.5" y1="573.6348" y2="573.6348"/><polygon fill="#0000FF" points="2170.5,569.6348,2160.5,573.6348,2170.5,577.6348,2166.5,573.6348" style="stroke:#0000FF;stroke-width:1.0;"/><text fill="#000000" font-family="sans-serif" font-size="13" font-weight="bold" lengthAdjust="spacing" textLength="33" x="2166.5" y="555.8926">2.1.6</text><text fill="#000000" font-family="sans-serif" font-size="13" lengthAdjust="spacing" textLength="165" x="2203.5" y="555.8926">If DAO is present, transfer</text><text fill="#000000" font-family="sans-serif" font-size="13" font-style="italic" lengthAdjust="spacing" textLength="34" x="2372.5" y="555.8926">share</text><text fill="#000000" font-family="sans-serif" font-size="13" lengthAdjust="spacing" textLength="46" x="2410.5" y="555.8926">to DAO</text><polygon fill="#181818" points="1734.5,598.9453,1724.5,602.9453,1734.5,606.9453,1730.5,602.9453" style="stroke:#181818;stroke-width:1.0;"/><line style="stroke:#181818;stroke-width:1.0;" x1="1728.5" x2="2158.5" y1="602.9453" y2="602.9453"/><text fill="#000000" font-family="sans-serif" font-size="13" font-weight="bold" lengthAdjust="spacing" textLength="33" x="1812" y="598.2031">2.1.7</text><text fill="#000000" font-family="sans-serif" font-size="13" lengthAdjust="spacing" textLength="66" x="1849" y="598.2031">Try calling</text><text fill="#000000" font-family="sans-serif" font-size="13" font-style="italic" lengthAdjust="spacing" textLength="152" x="1919" y="598.2031">queueRewardsForCycle()</text><polygon fill="#181818" points="2147.5,628.2559,2157.5,632.2559,2147.5,636.2559,2151.5,632.2559" style="stroke:#181818;stroke-width:1.0;"/><line style="stroke:#181818;stroke-width:1.0;" x1="1723.5" x2="2153.5" y1="632.2559" y2="632.2559"/><text fill="#000000" font-family="sans-serif" font-size="13" font-weight="bold" lengthAdjust="spacing" textLength="33" x="1799" y="627.5137">2.1.8</text><text fill="#000000" font-family="sans-serif" font-size="13" lengthAdjust="spacing" textLength="24" x="1836" y="627.5137">Call</text><text fill="#000000" font-family="sans-serif" font-size="13" font-style="italic" lengthAdjust="spacing" textLength="80" x="1864" y="627.5137">getRewards()</text><text fill="#000000" font-family="sans-serif" font-size="13" lengthAdjust="spacing" textLength="136" x="1948" y="627.5137">to trigger the transfer</text><polygon fill="#0000FF" points="1734.5,657.5664,1724.5,661.5664,1734.5,665.5664,1730.5,661.5664" style="stroke:#0000FF;stroke-width:1.0;"/><line style="stroke:#0000FF;stroke-width:1.0;" x1="1728.5" x2="2158.5" y1="661.5664" y2="661.5664"/><text fill="#000000" font-family="sans-serif" font-size="13" font-weight="bold" lengthAdjust="spacing" textLength="33" x="1735.5" y="656.8242">2.1.9</text><text fill="#000000" font-family="sans-serif" font-size="13" lengthAdjust="spacing" textLength="52" x="1772.5" y="656.8242">Transfer</text><text fill="#000000" font-family="sans-serif" font-size="13" font-style="italic" lengthAdjust="spacing" textLength="126" x="1828.5" y="656.8242">newWeeklyEmission</text><text fill="#000000" font-family="sans-serif" font-size="13" lengthAdjust="spacing" textLength="189" x="1958.5" y="656.8242">of HERMES tokens for rewards</text><line style="stroke:#181818;stroke-width:1.0;" x1="1723.5" x2="1765.5" y1="706.1875" y2="706.1875"/><line style="stroke:#181818;stroke-width:1.0;" x1="1765.5" x2="1765.5" y1="706.1875" y2="719.1875"/><line style="stroke:#181818;stroke-width:1.0;" x1="1724.5" x2="1765.5" y1="719.1875" y2="719.1875"/><polygon fill="#181818" points="1734.5,715.1875,1724.5,719.1875,1734.5,723.1875,1730.5,719.1875" style="stroke:#181818;stroke-width:1.0;"/><text fill="#000000" font-family="sans-serif" font-size="13" font-weight="bold" lengthAdjust="spacing" textLength="42" x="1730.5" y="693.79">2.1.10</text><text fill="#000000" font-family="sans-serif" font-size="13" lengthAdjust="spacing" textLength="211" x="1776.5" y="686.1348">_queueRewards for the next cycle</text><text fill="#000000" font-family="sans-serif" font-size="13" lengthAdjust="spacing" textLength="166" x="1776.5" y="701.4453">Calculate gauge allocation</text><polygon fill="#0000FF" points="1410.5,744.498,1400.5,748.498,1410.5,752.498,1406.5,748.498" style="stroke:#0000FF;stroke-width:1.0;"/><line style="stroke:#0000FF;stroke-width:1.0;" x1="1404.5" x2="1717.5" y1="748.498" y2="748.498"/><text fill="#000000" font-family="sans-serif" font-size="13" font-weight="bold" lengthAdjust="spacing" textLength="42" x="1457.5" y="743.7559">2.1.11</text><text fill="#000000" font-family="sans-serif" font-size="13" lengthAdjust="spacing" textLength="52" x="1503.5" y="743.7559">Transfer</text><text fill="#000000" font-family="sans-serif" font-size="13" font-style="italic" lengthAdjust="spacing" textLength="101" x="1559.5" y="743.7559">accruedRewards</text><polygon fill="#0000FF" points="929.5,789.1191,919.5,793.1191,929.5,797.1191,925.5,793.1191" style="stroke:#0000FF;stroke-width:1.0;"/><line style="stroke:#0000FF;stroke-width:1.0;" x1="923.5" x2="1398.5" y1="793.1191" y2="793.1191"/><text fill="#000000" font-family="sans-serif" font-size="13" font-weight="bold" lengthAdjust="spacing" textLength="42" x="930.5" y="780.7217">2.1.12</text><text fill="#000000" font-family="sans-serif" font-size="13" lengthAdjust="spacing" textLength="117" x="976.5" y="773.0664">Distribute HERMES</text><text fill="#000000" font-family="sans-serif" font-size="13" font-style="italic" lengthAdjust="spacing" textLength="101" x="1097.5" y="773.0664">accruedRewards</text><text fill="#000000" font-family="sans-serif" font-size="13" lengthAdjust="spacing" textLength="185" x="1202.5" y="773.0664">as incentive program rewards</text><text fill="#000000" font-family="sans-serif" font-size="13" lengthAdjust="spacing" textLength="147" x="976.5" y="788.377">This happens whenever</text><text fill="#000000" font-family="sans-serif" font-size="13" font-style="italic" lengthAdjust="spacing" textLength="71" x="1127.5" y="788.377">newEpoch()</text><text fill="#000000" font-family="sans-serif" font-size="13" lengthAdjust="spacing" textLength="52" x="1202.5" y="788.377">is called</text><path d="M626,815.1191 L916,815.1191 L916,822.4297 L906,832.4297 L626,832.4297 L626,815.1191 " fill="#EEEEEE" style="stroke:#000000;stroke-width:1.5;"/><rect fill="none" height="75.9316" style="stroke:#000000;stroke-width:1.5;" width="854.5" x="626" y="815.1191"/><text fill="#000000" font-family="sans-serif" font-size="13" font-weight="bold" lengthAdjust="spacing" textLength="245" x="641" y="828.6875">Staking NFT in the UniswapV3Staker</text><polygon fill="#800080" points="906.5,849.7402,916.5,853.7402,906.5,857.7402,910.5,853.7402" style="stroke:#800080;stroke-width:1.0;"/><line style="stroke:#800080;stroke-width:1.0;" x1="654.5" x2="912.5" y1="853.7402" y2="853.7402"/><text fill="#000000" font-family="sans-serif" font-size="13" font-weight="bold" lengthAdjust="spacing" textLength="33" x="698" y="848.998">3.1.1</text><text fill="#000000" font-family="sans-serif" font-size="13" lengthAdjust="spacing" textLength="140" x="735" y="848.998">Stake Uniswap V3 NFT</text><polygon fill="#181818" points="1387.5,879.0508,1397.5,883.0508,1387.5,887.0508,1391.5,883.0508" style="stroke:#181818;stroke-width:1.0;"/><line style="stroke:#181818;stroke-width:1.0;" x1="918.5" x2="1393.5" y1="883.0508" y2="883.0508"/><text fill="#000000" font-family="sans-serif" font-size="13" font-weight="bold" lengthAdjust="spacing" textLength="33" x="1074" y="878.3086">3.1.2</text><text fill="#000000" font-family="sans-serif" font-size="13" lengthAdjust="spacing" textLength="133" x="1111" y="878.3086">Attach User to Gauge</text><text fill="#000000" font-family="sans-serif" font-size="11" lengthAdjust="spacing" textLength="3" x="1032" y="950.6855">&#160;</text><text fill="#000000" font-family="sans-serif" font-size="11" font-weight="bold" lengthAdjust="spacing" textLength="231" x="1035" y="950.6855">Some time has to pass to get the rewards</text><text fill="#000000" font-family="sans-serif" font-size="11" lengthAdjust="spacing" textLength="3" x="1266" y="950.6855">&#160;</text><path d="M367,1002.0059 L531,1002.0059 L531,1009.3164 L521,1019.3164 L367,1019.3164 L367,1002.0059 " fill="#EEEEEE" style="stroke:#000000;stroke-width:1.5;"/><rect fill="none" height="221.4844" style="stroke:#000000;stroke-width:1.5;" width="841.5" x="367" y="1002.0059"/><text fill="#000000" font-family="sans-serif" font-size="13" font-weight="bold" lengthAdjust="spacing" textLength="119" x="382" y="1015.5742">Claiming rewards</text><polygon fill="#181818" points="906.5,1036.627,916.5,1040.627,906.5,1044.627,910.5,1040.627" style="stroke:#181818;stroke-width:1.0;"/><line style="stroke:#181818;stroke-width:1.0;" x1="654.5" x2="912.5" y1="1040.627" y2="1040.627"/><text fill="#000000" font-family="sans-serif" font-size="13" font-weight="bold" lengthAdjust="spacing" textLength="33" x="689.5" y="1035.8848">4.1.1</text><text fill="#000000" font-family="sans-serif" font-size="13" lengthAdjust="spacing" textLength="157" x="726.5" y="1035.8848">Unstake Uniswap V3 NFT</text><polygon fill="#181818" points="502.5,1065.9375,492.5,1069.9375,502.5,1073.9375,498.5,1069.9375" style="stroke:#181818;stroke-width:1.0;"/><line style="stroke:#181818;stroke-width:1.0;" x1="496.5" x2="917.5" y1="1069.9375" y2="1069.9375"/><text fill="#000000" font-family="sans-serif" font-size="13" font-weight="bold" lengthAdjust="spacing" textLength="33" x="519" y="1065.1953">4.1.2</text><text fill="#000000" font-family="sans-serif" font-size="13" lengthAdjust="spacing" textLength="335" x="556" y="1065.1953">Call the collect() with the Bribes contract as Recipient</text><polygon fill="#FFA500" points="748.5,1095.248,758.5,1099.248,748.5,1103.248,752.5,1099.248" style="stroke:#FFA500;stroke-width:1.0;"/><line style="stroke:#FFA500;stroke-width:1.0;" x1="491.5" x2="754.5" y1="1099.248" y2="1099.248"/><text fill="#000000" font-family="sans-serif" font-size="13" font-weight="bold" lengthAdjust="spacing" textLength="33" x="537" y="1094.5059">4.1.3</text><text fill="#000000" font-family="sans-serif" font-size="13" lengthAdjust="spacing" textLength="141" x="574" y="1094.5059">Transfer ETH/DAI fees</text><line style="stroke:#181818;stroke-width:1.0;" x1="918.5" x2="960.5" y1="1143.8691" y2="1143.8691"/><line style="stroke:#181818;stroke-width:1.0;" x1="960.5" x2="960.5" y1="1143.8691" y2="1156.8691"/><line style="stroke:#181818;stroke-width:1.0;" x1="919.5" x2="960.5" y1="1156.8691" y2="1156.8691"/><polygon fill="#181818" points="929.5,1152.8691,919.5,1156.8691,929.5,1160.8691,925.5,1156.8691" style="stroke:#181818;stroke-width:1.0;"/><text fill="#000000" font-family="sans-serif" font-size="13" font-weight="bold" lengthAdjust="spacing" textLength="33" x="925.5" y="1131.4717">4.1.4</text><text fill="#000000" font-family="sans-serif" font-size="13" lengthAdjust="spacing" textLength="234" x="962.5" y="1123.8164">Calculate User's rewards (in Hermes?)</text><text fill="#000000" font-family="sans-serif" font-size="13" lengthAdjust="spacing" textLength="35" x="962.5" y="1139.127">using</text><text fill="#000000" font-family="sans-serif" font-size="13" font-style="italic" lengthAdjust="spacing" textLength="76" x="1001.5" y="1139.127">RewardMath</text><text fill="#000000" font-family="sans-serif" font-size="13" lengthAdjust="spacing" textLength="40" x="1081.5" y="1139.127">library</text><polygon fill="#181818" points="906.5,1182.1797,916.5,1186.1797,906.5,1190.1797,910.5,1186.1797" style="stroke:#181818;stroke-width:1.0;"/><line style="stroke:#181818;stroke-width:1.0;" x1="654.5" x2="912.5" y1="1186.1797" y2="1186.1797"/><text fill="#000000" font-family="sans-serif" font-size="13" font-weight="bold" lengthAdjust="spacing" textLength="33" x="714" y="1181.4375">4.1.5</text><text fill="#000000" font-family="sans-serif" font-size="13" lengthAdjust="spacing" textLength="108" x="751" y="1181.4375">Claim all rewards</text><polygon fill="#0000FF" points="665.5,1211.4902,655.5,1215.4902,665.5,1219.4902,661.5,1215.4902" style="stroke:#0000FF;stroke-width:1.0;"/><line style="stroke:#0000FF;stroke-width:1.0;" x1="659.5" x2="917.5" y1="1215.4902" y2="1215.4902"/><text fill="#000000" font-family="sans-serif" font-size="13" font-weight="bold" lengthAdjust="spacing" textLength="33" x="669.5" y="1210.748">4.1.6</text><text fill="#000000" font-family="sans-serif" font-size="13" lengthAdjust="spacing" textLength="197" x="706.5" y="1210.748">Transfer Hermes token rewards</text><path d="M10,1237.4902 L255,1237.4902 L255,1244.8008 L245,1254.8008 L10,1254.8008 L10,1237.4902 " fill="#EEEEEE" style="stroke:#000000;stroke-width:1.5;"/><rect fill="none" height="75.9316" style="stroke:#000000;stroke-width:1.5;" width="673" x="10" y="1237.4902"/><text fill="#000000" font-family="sans-serif" font-size="13" font-weight="bold" lengthAdjust="spacing" textLength="200" x="25" y="1251.0586">Burning HERMES for bHermes</text><polygon fill="#0000FF" points="152.5,1272.1113,142.5,1276.1113,152.5,1280.1113,148.5,1276.1113" style="stroke:#0000FF;stroke-width:1.0;"/><line style="stroke:#0000FF;stroke-width:1.0;" x1="146.5" x2="653.5" y1="1276.1113" y2="1276.1113"/><text fill="#000000" font-family="sans-serif" font-size="13" font-weight="bold" lengthAdjust="spacing" textLength="33" x="267" y="1271.3691">5.1.1</text><text fill="#000000" font-family="sans-serif" font-size="13" lengthAdjust="spacing" textLength="225" x="304" y="1271.3691">Deposit (burn) 1000 Hermes tokens</text><polygon fill="#FF0000" points="642.5,1301.4219,652.5,1305.4219,642.5,1309.4219,646.5,1305.4219" style="stroke:#FF0000;stroke-width:1.0;"/><line style="stroke:#FF0000;stroke-width:1.0;" x1="141.5" x2="648.5" y1="1305.4219" y2="1305.4219"/><text fill="#000000" font-family="sans-serif" font-size="13" font-weight="bold" lengthAdjust="spacing" textLength="33" x="294" y="1300.6797">5.1.2</text><text fill="#000000" font-family="sans-serif" font-size="13" lengthAdjust="spacing" textLength="171" x="331" y="1300.6797">Mint 1000 bHermes tokens</text><path d="M10,1327.4219 L267,1327.4219 L267,1334.7324 L257,1344.7324 L10,1344.7324 L10,1327.4219 " fill="#EEEEEE" style="stroke:#000000;stroke-width:1.5;"/><rect fill="none" height="75.9316" style="stroke:#000000;stroke-width:1.5;" width="673" x="10" y="1327.4219"/><text fill="#000000" font-family="sans-serif" font-size="13" font-weight="bold" lengthAdjust="spacing" textLength="212" x="25" y="1340.9902">Claiming utilities with bHermes</text><polygon fill="#181818" points="152.5,1362.043,142.5,1366.043,152.5,1370.043,148.5,1366.043" style="stroke:#181818;stroke-width:1.0;"/><line style="stroke:#181818;stroke-width:1.0;" x1="146.5" x2="653.5" y1="1366.043" y2="1366.043"/><text fill="#000000" font-family="sans-serif" font-size="13" font-weight="bold" lengthAdjust="spacing" textLength="33" x="258.5" y="1361.3008">6.1.1</text><text fill="#000000" font-family="sans-serif" font-size="13" lengthAdjust="spacing" textLength="242" x="295.5" y="1361.3008">Claim utility tokens for 1000 bHermes</text><polygon fill="#008000" points="642.5,1391.3535,652.5,1395.3535,642.5,1399.3535,646.5,1395.3535" style="stroke:#008000;stroke-width:1.0;"/><line style="stroke:#008000;stroke-width:1.0;" x1="141.5" x2="648.5" y1="1395.3535" y2="1395.3535"/><text fill="#000000" font-family="sans-serif" font-size="13" font-weight="bold" lengthAdjust="spacing" textLength="33" x="190.5" y="1390.6113">6.1.2</text><text fill="#000000" font-family="sans-serif" font-size="13" lengthAdjust="spacing" textLength="378" x="227.5" y="1390.6113">1000 Boost tokens, 1000 Votes tokens, 1000 Weight tokens</text><text fill="#888888" font-family="sans-serif" font-size="10" lengthAdjust="spacing" textLength="369" x="1054.25" y="1640.4395">Hermes: Contract Interactions - PlantUML diagram | author: @kamilchmielu</text><rect fill="#DDDDDD" height="108.9297" id="_legend" rx="7.5" ry="7.5" style="stroke:#000000;stroke-width:1.0;" width="314" x="1081.75" y="1508.8418"/><line style="stroke:#000000;stroke-width:1.0;" x1="1081.75" x2="1209.75" y1="1522.0859" y2="1522.0859"/><line style="stroke:#000000;stroke-width:1.0;" x1="1081.75" x2="1209.75" y1="1524.0859" y2="1524.0859"/><text fill="#000000" font-family="sans-serif" font-size="14" lengthAdjust="spacing" textLength="50" x="1213.75" y="1526.877">Legend</text><line style="stroke:#000000;stroke-width:1.0;" x1="1267.75" x2="1395.75" y1="1522.0859" y2="1522.0859"/><line style="stroke:#000000;stroke-width:1.0;" x1="1267.75" x2="1395.75" y1="1524.0859" y2="1524.0859"/><text fill="#FFA500" font-family="sans-serif" font-size="14" lengthAdjust="spacing" textLength="51" x="1086.75" y="1543.8652">Orange</text><text fill="#000000" font-family="sans-serif" font-size="14" lengthAdjust="spacing" textLength="249" x="1141.75" y="1543.8652">- Tokens supplied to the UniV3 pool</text><text fill="#800080" font-family="sans-serif" font-size="14" lengthAdjust="spacing" textLength="44" x="1086.75" y="1560.3535">Purple</text><text fill="#000000" font-family="sans-serif" font-size="14" lengthAdjust="spacing" textLength="117" x="1134.75" y="1560.3535">- UniV3 NFT flow</text><text fill="#0000FF" font-family="sans-serif" font-size="14" lengthAdjust="spacing" textLength="29" x="1086.75" y="1576.8418">Blue</text><text fill="#000000" font-family="sans-serif" font-size="14" lengthAdjust="spacing" textLength="154" x="1119.75" y="1576.8418">- HERMES Tokens flow</text><text fill="#FF0000" font-family="sans-serif" font-size="14" lengthAdjust="spacing" textLength="26" x="1086.75" y="1593.3301">Red</text><text fill="#000000" font-family="sans-serif" font-size="14" lengthAdjust="spacing" textLength="163" x="1116.75" y="1593.3301">- bHERMES Tokens flow</text><text fill="#008000" font-family="sans-serif" font-size="14" lengthAdjust="spacing" textLength="41" x="1086.75" y="1609.8184">Green</text><text fill="#000000" font-family="sans-serif" font-size="14" lengthAdjust="spacing" textLength="138" x="1131.75" y="1609.8184">- Utility Tokens flow</text><!--SRC=[lLTRKziu57xthpZJVI0m9Ibqjm-T4ZPGACmqBGCXF2mxhMAVn9eeaYl9fDdk_lSzafpOpersUZ7J99NF_Npd8ikjGBXBKICa2WtO5676KIGGgmd2KAl9SHIrTg3rtK_KQi7QvsPcB4xWYcdBOvunQGriUBoKxtrWfnL5MQaDdWmkK4_8-yPhp9JX5jvBCOEpwzFVNno-s7q2p411KkUxbTnCMGRzvvwc-6__UPtgdP9mdiiH7r2ihvnyJYTT9ja8jMSaYZd1_7tn6gA8nLPfqcKAOlUZhg2R2ylX6gTC9mQS3zPJ-lFYs9z6Kba4zK1oLzx1oy09t42iaLbC8CarbwDx-ORb8m88PaBD9YXjj2aCS6FPU6xdF1hXR2EB5rxdy4TrXdCncwQ8mhygxFPCwrxKMK-OGUWVGfTBMzZcZlg7uU1dmvkUIwU7yaXvtGZj7mhldNVvP83Q0AF2vjANTQTvqZo5eT8JPf_2O0On4uBI2n-vZA7p4MOgXoaNWXWS02XeZct8jR4WlJp7TR0JiToguk2WIN_HIAiyWokj7dZY90h-AQTVTWPMGPdgoFdeu0lxV_scD9CZ_BjTPfqG64HWHK2330Ryt8IptaNhTUToDmXPyEotjrNFIpW-FlOSMuZ8c2pNcV366CzLWUUxyrw4CecgNlk05LuJkWbhv3G3YLEW4ehJkesXUlRRooVUNQjY9S0Yc_Xy6C80YJbpKXgxb4oaOft1576yGUWw_9FeKn96iaPeEt6iSqoALqweb-JW-41Llhw07CLQoQInMZobfZnBIDeLQgwIXP8QASLv878NvIK9xWTSd5rtpsv0oHWXe-Du5bExR1nuttVlfSD1fl61gzpuCz0LMxzEKOymPuRqizNwGDcRsfGYJ13jC-g6zt9lx-wYquD-v_PjxtXl3xv1ykKGNdVUkzv9DXfgaK_1bifCIdKOL17L6h4RqzZJPPssMfzopESlpvK-TI5QnFhRqaN0g232MMOr7xboS4K_jtrR13PQl72RW7n7YHApimatXYgE5AdXFDDMZP7QeSjhaKdOwiS6VH-gGV7Id0CIFzi0eNj97iUvS50V-QAX0AYOkGwmHT_2pPMYhJZ8QgL5tdc12JvUMyjrlAekJ4qtbRcXr0no4bT4RerYccdKb0Xt_87AHwkHfePIXFLUzb82Pigop0MS39Akgont6ZVtAJIOFDRknWwCr1RdWsLvq5UxVDbOL_poFvOxRIqs1UcwpjcnbiLfK4FO3Gk3jxlPRBf_iBTtupPOo-aZfV0GLSQC_oRiUyEB-52b5qmRlJuLZ4-SszMU4tnSvzgjDD_WtDRvvSlL6KjZGc1i6xiqestgZqu85hIrnafQjrqu45mZRJtShMYF3xt515wt2ovGNinT62AQHzEpY41PSovAEsPHuWq2JLYbZwcfvoOqjg2yotn35doW6VMzHuBiS-AAkPwKPUlAoZBr6L3i_BuDBKHiW_v9hgKpjwX2rshcju8gv0jrypj5MAlTfQ8n806xSF3isREQyi0-foS96fFINZySFS-WphJDr0LUSyi5vPsuF6fMxQqQ6Y8QM6RL_bnLlspiI2FAqbnFUg8KxOn1mDDmrAURXwaVtI4VfRRcpa_VnEbvYoFI1TkV7tVH55wTZzhHqLpvqP4_U3MaqdMLhVHHgCRsU__rgkNUj64VUY4B9iyomUbAvWPrwBdKL3Abn8gWq7BRL_wh51GuNDiU2ZLTuNAeRP_GHybHuBomO2qN8RLzZKd9C_WA9e-OzXltMJ6lG5sLaI9LHE-N0EF6ploUzOk0OMYEqZsLvhH1sc5eUdVH66hE7S574jmmfs5QKlcx-vUmaIcTe3vrqOI1OF6usDFYiIj_cOGtqvHR32iE1RbA_Lz5RFMg_6L1VSF_GJZyOwrSuSgM5emPoOc6Ijb5CwKMCfz5jIllFbm9ad_RVGi9Ptut-HUeTQLAluG_nsp2HPnEE8hyVm00]--></g></svg>