<?xml version="1.0" encoding="us-ascii" standalone="no"?><svg xmlns="http://www.w3.org/2000/svg" xmlns:xlink="http://www.w3.org/1999/xlink" contentStyleType="text/css" height="1410px" preserveAspectRatio="none" style="width:1290px;height:1410px;background:#FFFFFF;" version="1.1" viewBox="0 0 1290 1410" width="1290px" zoomAndPan="magnify"><defs/><g><text fill="#000000" font-family="sans-serif" font-size="14" font-weight="bold" lengthAdjust="spacing" textLength="204" x="536.24" y="23.5352">ERC20Gauges state machine</text><!--class ERC20Gauges--><g id="elem_ERC20Gauges"><rect codeLine="6" fill="#F1F1F1" height="254.4805" id="ERC20Gauges" rx="2.5" ry="2.5" style="stroke:#181818;stroke-width:0.5;" width="343" x="439.91" y="44.4883"/><ellipse cx="559.16" cy="64.7988" fill="#FFD700" rx="11" ry="11" style="stroke:#181818;stroke-width:1.0;"/><path d="M558.8934,65.8618 Q557.0423,65.1563 556.3866,64.3801 Q555.7308,63.604 555.7308,62.2925 Q555.7308,60.6074 556.8099,59.6445 Q557.889,58.6816 559.7733,58.6816 Q560.6283,58.6816 561.4832,58.8767 Q562.3382,59.0718 563.1766,59.4536 L563.1766,61.8442 Q562.388,61.2881 561.5746,60.9976 Q560.7611,60.707 559.9642,60.707 Q559.076,60.707 558.6029,61.064 Q558.1297,61.4209 558.1297,62.085 Q558.1297,62.5996 558.4742,62.9358 Q558.8187,63.272 559.9144,63.6787 L560.9686,64.0771 Q562.4627,64.625 563.1683,65.5298 Q563.8739,66.4346 563.8739,67.8125 Q563.8739,69.6885 562.7657,70.614 Q561.6576,71.5396 559.4163,71.5396 Q558.495,71.5396 557.5694,71.3196 Q556.6439,71.0996 555.7806,70.668 L555.7806,68.1362 Q556.7601,68.8335 557.6773,69.1738 Q558.5946,69.5142 559.4911,69.5142 Q560.3958,69.5142 560.8939,69.1033 Q561.3919,68.6924 561.3919,67.9536 Q561.3919,67.3975 561.0599,66.9783 Q560.7279,66.5591 560.097,66.3184 Z " fill="#000000"/><text fill="#000000" font-family="sans-serif" font-size="12" font-style="italic" lengthAdjust="spacing" textLength="59" x="598.16" y="61.0898">&#171;abstract&#187;</text><text fill="#000000" font-family="sans-serif" font-size="14" lengthAdjust="spacing" textLength="96" x="579.66" y="77.1563">ERC20Gauges</text><line style="stroke:#181818;stroke-width:0.5;" x1="440.91" x2="781.91" y1="85.1094" y2="85.1094"/><text fill="#000000" font-family="sans-serif" font-size="14" lengthAdjust="spacing" textLength="183" x="445.91" y="123.1328">uint32 : gaugeCycleLength</text><text fill="#000000" font-family="sans-serif" font-size="14" lengthAdjust="spacing" textLength="226" x="445.91" y="139.6211">uint32 : incrementFreezeWindow</text><text fill="#000000" font-family="sans-serif" font-size="14" lengthAdjust="spacing" textLength="217" x="445.91" y="156.1094">mapping : getUserGaugeWeight</text><text fill="#000000" font-family="sans-serif" font-size="14" lengthAdjust="spacing" textLength="173" x="445.91" y="172.5977">mapping : getUserWeight</text><text fill="#000000" font-family="sans-serif" font-size="14" lengthAdjust="spacing" textLength="285" x="445.91" y="189.0859">mapping : canContractExceedMaxGauges</text><line style="stroke:#181818;stroke-width:1.0;" x1="440.91" x2="590.41" y1="101.3535" y2="101.3535"/><text fill="#000000" font-family="sans-serif" font-size="14" lengthAdjust="spacing" textLength="42" x="590.41" y="106.1445">public</text><line style="stroke:#181818;stroke-width:1.0;" x1="632.41" x2="781.91" y1="101.3535" y2="101.3535"/><text fill="#000000" font-family="sans-serif" font-size="14" lengthAdjust="spacing" textLength="193" x="445.91" y="226.0625">mapping : _getGaugeWeight</text><text fill="#000000" font-family="sans-serif" font-size="14" lengthAdjust="spacing" textLength="144" x="445.91" y="242.5508">Weight : _totalWeight</text><text fill="#000000" font-family="sans-serif" font-size="14" lengthAdjust="spacing" textLength="161" x="445.91" y="259.0391">mapping : _userGauges</text><text fill="#000000" font-family="sans-serif" font-size="14" lengthAdjust="spacing" textLength="253" x="445.91" y="275.5273">EnumerableSet.AddressSet : _gauges</text><text fill="#000000" font-family="sans-serif" font-size="14" lengthAdjust="spacing" textLength="331" x="445.91" y="292.0156">EnumerableSet.AddressSet : _deprecatedGauges</text><line style="stroke:#181818;stroke-width:1.0;stroke-dasharray:1.0,2.0;" x1="440.91" x2="584.91" y1="204.2832" y2="204.2832"/><text fill="#000000" font-family="sans-serif" font-size="14" lengthAdjust="spacing" textLength="53" x="584.91" y="209.0742">internal</text><line style="stroke:#181818;stroke-width:1.0;stroke-dasharray:1.0,2.0;" x1="637.91" x2="781.91" y1="204.2832" y2="204.2832"/></g><!--class ERC20Gauges::incrementGauges--><g id="elem_ERC20Gauges::incrementGauges"><rect codeLine="24" fill="#F1F1F1" height="180.2832" id="ERC20Gauges::incrementGauges" rx="2.5" ry="2.5" style="stroke:#181818;stroke-width:0.5;" width="256" x="725.41" y="554.0883"/><ellipse cx="740.41" cy="574.3988" fill="#FFA500" rx="11" ry="11" style="stroke:#181818;stroke-width:1.0;"/><path d="M744.0243,580.8988 L736.3045,580.8988 L736.3045,568.5058 L744.0243,568.5058 L744.0243,570.664 L738.7533,570.664 L738.7533,573.3368 L743.5262,573.3368 L743.5262,575.495 L738.7533,575.495 L738.7533,578.7406 L744.0243,578.7406 Z " fill="#000000"/><text fill="#000000" font-family="sans-serif" font-size="12" font-style="italic" lengthAdjust="spacing" textLength="59" x="836.91" y="570.6898">&#171;external&#187;</text><text fill="#000000" font-family="sans-serif" font-size="14" lengthAdjust="spacing" textLength="224" x="754.41" y="586.7562">ERC20Gauges::incrementGauges</text><line style="stroke:#181818;stroke-width:0.5;" x1="726.41" x2="980.41" y1="594.7094" y2="594.7094"/><text fill="#000000" font-family="sans-serif" font-size="14" lengthAdjust="spacing" textLength="199" x="731.41" y="632.7328">address[] calldata : gaugeList</text><text fill="#000000" font-family="sans-serif" font-size="14" lengthAdjust="spacing" textLength="186" x="731.41" y="649.2211">uint112[] calldata : weights</text><line style="stroke:#181818;stroke-width:1.0;" x1="726.41" x2="827.91" y1="610.9535" y2="610.9535"/><text fill="#000000" font-family="sans-serif" font-size="14" lengthAdjust="spacing" textLength="51" x="827.91" y="615.7445">params</text><line style="stroke:#181818;stroke-width:1.0;" x1="878.91" x2="980.41" y1="610.9535" y2="610.9535"/><text fill="#000000" font-family="sans-serif" font-size="14" lengthAdjust="spacing" textLength="143" x="731.41" y="686.1977">uint32 : currentCycle</text><text fill="#000000" font-family="sans-serif" font-size="14" lengthAdjust="spacing" textLength="4" x="731.41" y="702.6859">&#160;</text><line style="stroke:#181818;stroke-width:1.0;" x1="726.41" x2="834.41" y1="664.4184" y2="664.4184"/><text fill="#000000" font-family="sans-serif" font-size="14" lengthAdjust="spacing" textLength="38" x="834.41" y="669.2094">reads</text><line style="stroke:#181818;stroke-width:1.0;" x1="872.41" x2="980.41" y1="664.4184" y2="664.4184"/><line style="stroke:#181818;stroke-width:1.0;" x1="726.41" x2="832.91" y1="717.8832" y2="717.8832"/><text fill="#000000" font-family="sans-serif" font-size="14" lengthAdjust="spacing" textLength="41" x="832.91" y="722.6742">writes</text><line style="stroke:#181818;stroke-width:1.0;" x1="873.91" x2="980.41" y1="717.8832" y2="717.8832"/></g><!--class BaseV2Gauge::accrueBribes--><g id="elem_BaseV2Gauge::accrueBribes"><rect codeLine="34" fill="#F1F1F1" height="85.5977" id="BaseV2Gauge::accrueBribes" rx="2.5" ry="2.5" style="stroke:#181818;stroke-width:0.5;" width="220" x="522.41" y="1141.0883"/><ellipse cx="537.41" cy="1161.3988" fill="#FFA500" rx="11" ry="11" style="stroke:#181818;stroke-width:1.0;"/><path d="M541.0243,1167.8988 L533.3045,1167.8988 L533.3045,1155.5058 L541.0243,1155.5058 L541.0243,1157.664 L535.7533,1157.664 L535.7533,1160.3368 L540.5262,1160.3368 L540.5262,1162.495 L535.7533,1162.495 L535.7533,1165.7406 L541.0243,1165.7406 Z " fill="#000000"/><text fill="#000000" font-family="sans-serif" font-size="12" font-style="italic" lengthAdjust="spacing" textLength="59" x="615.91" y="1157.6898">&#171;external&#187;</text><text fill="#000000" font-family="sans-serif" font-size="14" lengthAdjust="spacing" textLength="188" x="551.41" y="1173.7563">BaseV2Gauge::accrueBribes</text><line style="stroke:#181818;stroke-width:0.5;" x1="523.41" x2="741.41" y1="1181.7094" y2="1181.7094"/><text fill="#000000" font-family="sans-serif" font-size="14" lengthAdjust="spacing" textLength="96" x="528.41" y="1219.7328">address : user</text><line style="stroke:#181818;stroke-width:1.0;" x1="523.41" x2="606.91" y1="1197.9535" y2="1197.9535"/><text fill="#000000" font-family="sans-serif" font-size="14" lengthAdjust="spacing" textLength="51" x="606.91" y="1202.7445">params</text><line style="stroke:#181818;stroke-width:1.0;" x1="657.91" x2="741.41" y1="1197.9535" y2="1197.9535"/></g><!--class ERC20Gauges::_incrementGaugeWeight--><g id="elem_ERC20Gauges::_incrementGaugeWeight"><rect codeLine="41" fill="#F1F1F1" height="172.0391" id="ERC20Gauges::_incrementGaugeWeight" rx="2.5" ry="2.5" style="stroke:#181818;stroke-width:0.5;" width="303" x="580.91" y="839.0883"/><ellipse cx="595.91" cy="859.3988" fill="#D3D3D3" rx="11" ry="11" style="stroke:#181818;stroke-width:1.0;"/><path d="M592.3377,855.664 L592.3377,853.5058 L599.7171,853.5058 L599.7171,855.664 L597.2518,855.664 L597.2518,863.7406 L599.7171,863.7406 L599.7171,865.8988 L592.3377,865.8988 L592.3377,863.7406 L594.8031,863.7406 L594.8031,855.664 Z " fill="#000000"/><text fill="#000000" font-family="sans-serif" font-size="12" font-style="italic" lengthAdjust="spacing" textLength="55" x="717.91" y="855.6898">&#171;internal&#187;</text><text fill="#000000" font-family="sans-serif" font-size="14" lengthAdjust="spacing" textLength="271" x="609.91" y="871.7562">ERC20Gauges::_incrementGaugeWeight</text><line style="stroke:#181818;stroke-width:0.5;" x1="581.91" x2="882.91" y1="879.7094" y2="879.7094"/><text fill="#000000" font-family="sans-serif" font-size="14" lengthAdjust="spacing" textLength="96" x="586.91" y="917.7328">address : user</text><text fill="#000000" font-family="sans-serif" font-size="14" lengthAdjust="spacing" textLength="109" x="586.91" y="934.2211">address : gauge</text><text fill="#000000" font-family="sans-serif" font-size="14" lengthAdjust="spacing" textLength="112" x="586.91" y="950.7094">uint112 : weight</text><text fill="#000000" font-family="sans-serif" font-size="14" lengthAdjust="spacing" textLength="90" x="586.91" y="967.1977">uint32 : cycle</text><line style="stroke:#181818;stroke-width:1.0;" x1="581.91" x2="706.91" y1="895.9535" y2="895.9535"/><text fill="#000000" font-family="sans-serif" font-size="14" lengthAdjust="spacing" textLength="51" x="706.91" y="900.7445">params</text><line style="stroke:#181818;stroke-width:1.0;" x1="757.91" x2="882.91" y1="895.9535" y2="895.9535"/><text fill="#000000" font-family="sans-serif" font-size="14" lengthAdjust="spacing" textLength="278" x="586.91" y="1004.1742">ERC20Gauges#_getGaugeWeight(gauge)</text><line style="stroke:#181818;stroke-width:1.0;" x1="581.91" x2="713.41" y1="982.3949" y2="982.3949"/><text fill="#000000" font-family="sans-serif" font-size="14" lengthAdjust="spacing" textLength="38" x="713.41" y="987.1859">reads</text><line style="stroke:#181818;stroke-width:1.0;" x1="751.41" x2="882.91" y1="982.3949" y2="982.3949"/></g><!--class ERC20Gauges::_getGaugeCycleEnd--><g id="elem_ERC20Gauges::_getGaugeCycleEnd"><rect codeLine="51" fill="#F1F1F1" height="85.5977" id="ERC20Gauges::_getGaugeCycleEnd" rx="2.5" ry="2.5" style="stroke:#181818;stroke-width:0.5;" width="271" x="717.91" y="383.4883"/><ellipse cx="732.91" cy="403.7988" fill="#D3D3D3" rx="11" ry="11" style="stroke:#181818;stroke-width:1.0;"/><path d="M729.3377,400.064 L729.3377,397.9058 L736.7171,397.9058 L736.7171,400.064 L734.2518,400.064 L734.2518,408.1406 L736.7171,408.1406 L736.7171,410.2988 L729.3377,410.2988 L729.3377,408.1406 L731.8031,408.1406 L731.8031,400.064 Z " fill="#000000"/><text fill="#000000" font-family="sans-serif" font-size="12" font-style="italic" lengthAdjust="spacing" textLength="55" x="838.91" y="400.0898">&#171;internal&#187;</text><text fill="#000000" font-family="sans-serif" font-size="14" lengthAdjust="spacing" textLength="239" x="746.91" y="416.1562">ERC20Gauges::_getGaugeCycleEnd</text><line style="stroke:#181818;stroke-width:0.5;" x1="718.91" x2="987.91" y1="424.1094" y2="424.1094"/><text fill="#000000" font-family="sans-serif" font-size="14" lengthAdjust="spacing" textLength="231" x="723.91" y="462.1328">ERC20Gauges#gaugeCycleLength</text><line style="stroke:#181818;stroke-width:1.0;" x1="718.91" x2="834.41" y1="440.3535" y2="440.3535"/><text fill="#000000" font-family="sans-serif" font-size="14" lengthAdjust="spacing" textLength="38" x="834.41" y="445.1445">reads</text><line style="stroke:#181818;stroke-width:1.0;" x1="872.41" x2="987.91" y1="440.3535" y2="440.3535"/></g><!--class ERC20Gauges::_writeGaugeWeight--><g id="elem_ERC20Gauges::_writeGaugeWeight"><rect codeLine="56" fill="#F1F1F1" height="135.0625" id="ERC20Gauges::_writeGaugeWeight" rx="2.5" ry="2.5" style="stroke:#181818;stroke-width:0.5;" width="373" x="839.91" y="1116.0883"/><ellipse cx="904.16" cy="1136.3988" fill="#FFFFFF" rx="11" ry="11" style="stroke:#181818;stroke-width:1.0;"/><path d="M902.9535,1132.5644 L902.9535,1136.2001 L903.9579,1136.2001 Q905.1615,1136.2001 905.6471,1135.7934 Q906.1327,1135.3866 906.1327,1134.3822 Q906.1327,1133.3778 905.6471,1132.9711 Q905.1615,1132.5644 903.9579,1132.5644 Z M900.5047,1130.5058 L903.8665,1130.5058 Q906.4315,1130.5058 907.5562,1131.4188 Q908.681,1132.3319 908.681,1134.3822 Q908.681,1136.4325 907.5562,1137.3456 Q906.4315,1138.2587 903.8665,1138.2587 L902.9535,1138.2587 L902.9535,1142.8988 L900.5047,1142.8988 Z " fill="#000000"/><text fill="#000000" font-family="sans-serif" font-size="12" font-style="italic" lengthAdjust="spacing" textLength="52" x="1016.66" y="1132.6898">&#171;private&#187;</text><text fill="#000000" font-family="sans-serif" font-size="14" lengthAdjust="spacing" textLength="236" x="924.66" y="1148.7563">ERC20Gauges::_writeGaugeWeight</text><line style="stroke:#181818;stroke-width:0.5;" x1="840.91" x2="1211.91" y1="1156.7094" y2="1156.7094"/><text fill="#000000" font-family="sans-serif" font-size="14" lengthAdjust="spacing" textLength="153" x="845.91" y="1194.7328">Weight storage weight</text><text fill="#000000" font-family="sans-serif" font-size="14" lengthAdjust="spacing" textLength="361" x="845.91" y="1211.2211">function(uint112, uint112) view returns (uint112) op</text><text fill="#000000" font-family="sans-serif" font-size="14" lengthAdjust="spacing" textLength="92" x="845.91" y="1227.7094">uint112 delta</text><text fill="#000000" font-family="sans-serif" font-size="14" lengthAdjust="spacing" textLength="82" x="845.91" y="1244.1977">uint32 cycle</text><line style="stroke:#181818;stroke-width:1.0;" x1="840.91" x2="1000.91" y1="1172.9535" y2="1172.9535"/><text fill="#000000" font-family="sans-serif" font-size="14" lengthAdjust="spacing" textLength="51" x="1000.91" y="1177.7445">params</text><line style="stroke:#181818;stroke-width:1.0;" x1="1051.91" x2="1211.91" y1="1172.9535" y2="1172.9535"/></g><path d="M860.41,146.1783 L860.41,162.4888 L662.91,150.8184 L860.41,170.4888 L860.41,186.7994 A0,0 0 0 0 860.41,186.7994 L1210.41,186.7994 A0,0 0 0 0 1210.41,186.7994 L1210.41,156.1783 L1200.41,146.1783 L860.41,146.1783 A0,0 0 0 0 860.41,146.1783 " fill="#FFFFFF" style="stroke:#000000;stroke-width:0.5;"/><path d="M1200.41,146.1783 L1200.41,156.1783 L1210.41,156.1783 L1200.41,146.1783 " fill="#FFFFFF" style="stroke:#000000;stroke-width:0.5;"/><text fill="#000000" font-family="sans-serif" font-size="13" lengthAdjust="spacing" textLength="329" x="866.41" y="163.7466">mapping(address =&gt; mapping(address =&gt; uint112))</text><text fill="#000000" font-family="sans-serif" font-size="13" lengthAdjust="spacing" textLength="162" x="866.41" y="179.0572">User -&gt; Gauge -&gt; Weight</text><!--link ERC20Gauges::_getGaugeCycleEnd to ERC20Gauges::incrementGauges--><g id="link_ERC20Gauges::_getGaugeCycleEnd_ERC20Gauges::incrementGauges"><path codeLine="70" d="M915.72,469.5183 C941.08,490.4583 967.64,518.1283 981.41,550.0883 C1003.47,601.2883 1037.68,674.7083 988.16,679.8083 " fill="none" id="ERC20Gauges::_getGaugeCycleEnd-to-ERC20Gauges::incrementGauges" style="stroke:#0000FF;stroke-width:1.0;"/><polygon fill="#0000FF" points="983.41,680.0883,992.594,683.6457,988.4041,679.845,992.2047,675.6551,983.41,680.0883" style="stroke:#0000FF;stroke-width:1.0;"/></g><!--link ERC20Gauges::incrementGauges to ERC20Gauges::_incrementGaugeWeight--><g id="link_ERC20Gauges::incrementGauges_ERC20Gauges::_incrementGaugeWeight"><path codeLine="75" d="M717.55,721.6383 C656.57,759.3583 595.01,803.4283 580.41,835.0883 C566.98,864.2283 547.77,906.4083 573.62,911.5683 " fill="none" id="ERC20Gauges::incrementGauges-to-ERC20Gauges::_incrementGaugeWeight" style="stroke:#181818;stroke-width:1.0;"/><polygon fill="#181818" points="578.41,912.0883,569.8141,907.281,573.431,911.6304,569.0815,915.2474,578.41,912.0883" style="stroke:#181818;stroke-width:1.0;"/><text fill="#000000" font-family="sans-serif" font-size="13" lengthAdjust="spacing" textLength="73" x="634.41" y="791.6566">msg.sender</text></g><!--link ERC20Gauges::incrementGauges to ERC20Gauges::_incrementGaugeWeight--><g id="link_ERC20Gauges::incrementGauges_ERC20Gauges::_incrementGaugeWeight"><path codeLine="76" d="M724.41,627.0883 C675.08,627.0883 704.03,693.6283 725.41,738.0883 C742.8,774.2483 761.27,774.0183 795.41,795.0883 C832.32,817.8583 860.66,798.8083 884.41,835.0883 C905.9,867.9183 924.74,922.2183 891.24,927.6483 " fill="none" id="ERC20Gauges::incrementGauges-to-ERC20Gauges::_incrementGaugeWeight-1" style="stroke:#181818;stroke-width:1.0;"/><polygon fill="#181818" points="886.41,928.0883,895.6917,931.3822,891.3951,927.7026,895.0747,923.406,886.41,928.0883" style="stroke:#181818;stroke-width:1.0;"/><text fill="#000000" font-family="sans-serif" font-size="13" lengthAdjust="spacing" textLength="73" x="796.41" y="791.6566">gaugeList[i]</text></g><!--link ERC20Gauges::incrementGauges to ERC20Gauges::_incrementGaugeWeight--><g id="link_ERC20Gauges::incrementGauges_ERC20Gauges::_incrementGaugeWeight"><path codeLine="77" d="M982.41,643.0883 C1024.64,643.0883 996.75,698.7483 981.41,738.0883 C972.72,760.3683 957.68,757.5583 945.41,778.0883 C905.97,844.0583 961.33,940.0683 891.15,944.8983 " fill="none" id="ERC20Gauges::incrementGauges-to-ERC20Gauges::_incrementGaugeWeight-2" style="stroke:#181818;stroke-width:1.0;"/><polygon fill="#181818" points="886.41,945.0883,895.5421,948.7766,891.407,944.9165,895.2672,940.7814,886.41,945.0883" style="stroke:#181818;stroke-width:1.0;"/><text fill="#000000" font-family="sans-serif" font-size="13" lengthAdjust="spacing" textLength="54" x="946.41" y="791.6566">weight[i]</text></g><!--link ERC20Gauges::incrementGauges to ERC20Gauges::_incrementGaugeWeight--><g id="link_ERC20Gauges::incrementGauges_ERC20Gauges::_incrementGaugeWeight"><path codeLine="79" d="M982.41,680.0883 C1035.46,680.0883 1031.62,744.9083 1014.41,795.0883 C984.76,881.5783 979.08,957.7483 891.31,960.9783 " fill="none" id="ERC20Gauges::incrementGauges-to-ERC20Gauges::_incrementGaugeWeight-3" style="stroke:#0000FF;stroke-width:1.0;"/><polygon fill="#0000FF" points="886.41,961.0883,895.4772,964.9334,891.4093,961.0026,895.3401,956.9346,886.41,961.0883" style="stroke:#0000FF;stroke-width:1.0;"/></g><!--link ERC20Gauges to ERC20Gauges::_incrementGaugeWeight--><g id="link_ERC20Gauges_ERC20Gauges::_incrementGaugeWeight"><path codeLine="80" d="M438.41,269.4883 C368.5,269.4883 175.73,287.6183 132.41,342.4883 C7.76,500.3683 6,638.6183 132.41,795.0883 C186.26,861.7383 409.29,895.5583 567.66,911.4983 " fill="none" id="ERC20Gauges-to-ERC20Gauges::_incrementGaugeWeight" style="stroke:#0000FF;stroke-width:1.0;"/><polygon fill="#0000FF" points="572.26,912.0583,563.6916,907.2021,567.2837,911.5721,562.9137,915.1642,572.26,912.0583" style="stroke:#0000FF;stroke-width:1.0;"/></g><!--link ERC20Gauges to ERC20Gauges::_incrementGaugeWeight--><g id="link_ERC20Gauges_ERC20Gauges::_incrementGaugeWeight"><path codeLine="81" d="M438.41,285.4883 C399.83,285.4883 296.77,311.0483 274.41,342.4883 C157.84,506.4183 152.98,634.7283 274.41,795.0883 C310.36,842.5683 451.11,877.4883 567.2,898.9283 " fill="none" id="ERC20Gauges-to-ERC20Gauges::_incrementGaugeWeight-1" style="stroke:#0000FF;stroke-width:1.0;"/><polygon fill="#0000FF" points="572.06,900.0083,563.925,894.4566,567.1413,899.1101,562.4879,902.3265,572.06,900.0083" style="stroke:#0000FF;stroke-width:1.0;"/></g><!--link ERC20Gauges to ERC20Gauges::_incrementGaugeWeight--><g id="link_ERC20Gauges_ERC20Gauges::_incrementGaugeWeight"><path codeLine="82" d="M438.41,133.4883 C361.1,133.4883 304.17,628.0283 416.41,795.0883 C450.91,846.4283 509.81,877.3483 567.48,895.9683 " fill="none" id="ERC20Gauges-to-ERC20Gauges::_incrementGaugeWeight-2" style="stroke:#0000FF;stroke-width:1.0;"/><polygon fill="#0000FF" points="572.05,897.7283,564.6639,891.2133,567.2801,896.2288,562.2647,898.8451,572.05,897.7283" style="stroke:#0000FF;stroke-width:1.0;"/></g><!--link ERC20Gauges::_incrementGaugeWeight to ERC20Gauges--><g id="link_ERC20Gauges::_incrementGaugeWeight_ERC20Gauges"><path codeLine="87" d="M891.54,903.4783 C958.33,886.0883 1029.8,854.0583 1070.41,795.0883 C1174.82,643.4883 1135.83,530.0083 1024.41,383.4883 C966.61,307.4783 891.06,371.8383 825.41,302.4883 C788.38,263.3783 836.51,189.2583 790.2,183.8083 " fill="none" id="ERC20Gauges::_incrementGaugeWeight-to-ERC20Gauges" style="stroke:#0000FF;stroke-width:1.0;"/><polygon fill="#0000FF" points="785.41,183.4883,794.1792,187.9716,790.4026,183.7601,794.6141,179.9834,785.41,183.4883" style="stroke:#0000FF;stroke-width:1.0;"/></g><!--link ERC20Gauges to ERC20Gauges::_incrementGaugeWeight--><g id="link_ERC20Gauges_ERC20Gauges::_incrementGaugeWeight"><path codeLine="89" d="M438.41,253.4883 C428.92,253.4883 415.36,655.7583 509.41,795.0883 C524.71,817.7583 545.43,836.9583 568.1,853.0483 " fill="none" id="ERC20Gauges-to-ERC20Gauges::_incrementGaugeWeight-3" style="stroke:#0000FF;stroke-width:1.0;"/><polygon fill="#0000FF" points="571.96,856.4383,566.863,848.0109,567.8578,853.5796,562.2891,854.5744,571.96,856.4383" style="stroke:#0000FF;stroke-width:1.0;"/></g><!--link ERC20Gauges::_incrementGaugeWeight to ERC20Gauges--><g id="link_ERC20Gauges::_incrementGaugeWeight_ERC20Gauges"><path codeLine="90" d="M885.41,928.0883 C1038.01,928.0883 1123.77,883.0683 1171.41,738.0883 C1197.5,658.7083 1185.1,632.5183 1171.41,550.0883 C1158.39,471.6783 1162.31,439.9883 1106.41,383.4883 C1014.99,291.0983 936.58,369.8283 825.41,302.4883 C803.02,288.9283 811.2,258.7283 790.37,254.0883 " fill="none" id="ERC20Gauges::_incrementGaugeWeight-to-ERC20Gauges-1" style="stroke:#FF0000;stroke-width:1.0;"/><polygon fill="#FF0000" points="785.41,253.4883,793.9659,258.3664,790.385,253.9872,794.7642,250.4063,785.41,253.4883" style="stroke:#FF0000;stroke-width:1.0;"/></g><!--link ERC20Gauges::_incrementGaugeWeight to ERC20Gauges--><g id="link_ERC20Gauges::_incrementGaugeWeight_ERC20Gauges"><path codeLine="92" d="M885.41,945.0883 C1042.89,945.0883 1095.57,906.9483 1206.41,795.0883 C1283.48,717.3083 1247.42,658.5583 1232.41,550.0883 C1221.87,473.8783 1235.13,442.1983 1185.41,383.4883 C1157.79,350.8683 1139.33,354.8383 1098.41,342.4883 C981.01,307.0783 917.08,383.9383 825.41,302.4883 C774.64,257.3783 849.73,156.6183 790.18,150.7583 " fill="none" id="ERC20Gauges::_incrementGaugeWeight-to-ERC20Gauges-2" style="stroke:#FF0000;stroke-width:1.0;"/><polygon fill="#FF0000" points="785.41,150.4883,794.2047,154.9214,790.4041,150.7315,794.594,146.9309,785.41,150.4883" style="stroke:#FF0000;stroke-width:1.0;"/></g><!--link ERC20Gauges to ERC20Gauges::_incrementGaugeWeight--><g id="link_ERC20Gauges_ERC20Gauges::_incrementGaugeWeight"><path codeLine="94" d="M784.41,220.4883 C820.86,220.4883 799.38,269.7283 783.41,302.4883 C758.2,354.2183 712.9,334.6883 682.41,383.4883 C610.1,499.2083 445.83,983.6083 573.52,997.7683 " fill="none" id="ERC20Gauges-to-ERC20Gauges::_incrementGaugeWeight-4" style="stroke:#0000FF;stroke-width:1.0;"/><polygon fill="#0000FF" points="578.41,998.0883,569.6401,993.6063,573.4174,997.8173,569.2064,1001.5945,578.41,998.0883" style="stroke:#0000FF;stroke-width:1.0;"/></g><!--link ERC20Gauges::_incrementGaugeWeight to BaseV2Gauge::accrueBribes--><g id="link_ERC20Gauges::_incrementGaugeWeight_BaseV2Gauge::accrueBribes"><path codeLine="84" d="M579.41,912.0883 C444.52,912.0883 386.23,1205.7883 515.52,1214.3983 " fill="none" id="ERC20Gauges::_incrementGaugeWeight-to-BaseV2Gauge::accrueBribes" style="stroke:#0000FF;stroke-width:1.0;"/><polygon fill="#0000FF" points="520.41,1214.5883,511.5401,1210.3075,515.4125,1214.4312,511.2888,1218.3036,520.41,1214.5883" style="stroke:#0000FF;stroke-width:1.0;"/></g><!--link ERC20Gauges::_incrementGaugeWeight to BaseV2Gauge::accrueBribes--><g id="link_ERC20Gauges::_incrementGaugeWeight_BaseV2Gauge::accrueBribes"><path codeLine="85" d="M885.41,928.0883 C924.08,928.0883 908.47,984.8183 884.41,1015.0883 C837.73,1073.8283 782.21,1012.5383 720.41,1055.0883 C692.46,1074.3283 670.69,1105.5683 655.8,1132.3083 " fill="none" id="ERC20Gauges::_incrementGaugeWeight-to-BaseV2Gauge::accrueBribes-1" style="stroke:#181818;stroke-width:1.0;"/><polygon fill="#181818" points="653.09,1136.2383,660.9194,1130.2633,655.4903,1131.8521,653.9015,1126.4229,653.09,1136.2383" style="stroke:#181818;stroke-width:1.0;"/><text fill="#000000" font-family="sans-serif" font-size="13" lengthAdjust="spacing" textLength="251" x="721.41" y="1068.6566">IBaseV2Gauge(gauge).accrueBribes(user)</text></g><!--link ERC20Gauges to ERC20Gauges::_getGaugeCycleEnd--><g id="link_ERC20Gauges_ERC20Gauges::_getGaugeCycleEnd"><path codeLine="97" d="M784.41,117.4883 C826.52,117.4883 816.17,261.4083 825.41,302.4883 C830.98,327.2683 837.26,354.8483 842.46,377.5783 " fill="none" id="ERC20Gauges-to-ERC20Gauges::_getGaugeCycleEnd" style="stroke:#0000FF;stroke-width:1.0;"/><polygon fill="#0000FF" points="843.76,382.2483,845.6525,372.583,842.6451,377.3742,837.8539,374.3668,843.76,382.2483" style="stroke:#0000FF;stroke-width:1.0;"/></g><!--link ERC20Gauges::_incrementGaugeWeight to ERC20Gauges::_writeGaugeWeight--><g id="link_ERC20Gauges::_incrementGaugeWeight_ERC20Gauges::_writeGaugeWeight"><path codeLine="100" d="M885.41,998.0883 C962.58,998.0883 1168.29,1049.4883 1213.41,1112.0883 C1232.3,1138.2883 1246.93,1183.4783 1220.3,1189.0283 " fill="none" id="ERC20Gauges::_incrementGaugeWeight-to-ERC20Gauges::_writeGaugeWeight" style="stroke:#0000FF;stroke-width:1.0;"/><polygon fill="#0000FF" points="1215.41,1189.5883,1224.7466,1192.7233,1220.3878,1189.1176,1223.9935,1184.7588,1215.41,1189.5883" style="stroke:#0000FF;stroke-width:1.0;"/></g><rect fill="#DDDDDD" height="108.9297" id="_legend" rx="7.5" ry="7.5" style="stroke:#000000;stroke-width:1.0;" width="314" x="481.24" y="1269.1508"/><line style="stroke:#000000;stroke-width:1.0;" x1="481.24" x2="609.24" y1="1282.3949" y2="1282.3949"/><line style="stroke:#000000;stroke-width:1.0;" x1="481.24" x2="609.24" y1="1284.3949" y2="1284.3949"/><text fill="#000000" font-family="sans-serif" font-size="14" lengthAdjust="spacing" textLength="50" x="613.24" y="1287.1859">Legend</text><line style="stroke:#000000;stroke-width:1.0;" x1="667.24" x2="795.24" y1="1282.3949" y2="1282.3949"/><line style="stroke:#000000;stroke-width:1.0;" x1="667.24" x2="795.24" y1="1284.3949" y2="1284.3949"/><text fill="#FFA500" font-family="sans-serif" font-size="14" lengthAdjust="spacing" textLength="51" x="486.24" y="1304.1742">Orange</text><text fill="#000000" font-family="sans-serif" font-size="14" lengthAdjust="spacing" textLength="249" x="541.24" y="1304.1742">- Tokens supplied to the UniV3 pool</text><text fill="#800080" font-family="sans-serif" font-size="14" lengthAdjust="spacing" textLength="44" x="486.24" y="1320.6625">Purple</text><text fill="#000000" font-family="sans-serif" font-size="14" lengthAdjust="spacing" textLength="117" x="534.24" y="1320.6625">- UniV3 NFT flow</text><text fill="#0000FF" font-family="sans-serif" font-size="14" lengthAdjust="spacing" textLength="29" x="486.24" y="1337.1508">Blue</text><text fill="#000000" font-family="sans-serif" font-size="14" lengthAdjust="spacing" textLength="154" x="519.24" y="1337.1508">- HERMES Tokens flow</text><text fill="#FF0000" font-family="sans-serif" font-size="14" lengthAdjust="spacing" textLength="26" x="486.24" y="1353.6391">Red</text><text fill="#000000" font-family="sans-serif" font-size="14" lengthAdjust="spacing" textLength="163" x="516.24" y="1353.6391">- bHERMES Tokens flow</text><text fill="#008000" font-family="sans-serif" font-size="14" lengthAdjust="spacing" textLength="41" x="486.24" y="1370.1273">Green</text><text fill="#000000" font-family="sans-serif" font-size="14" lengthAdjust="spacing" textLength="138" x="531.24" y="1370.1273">- Utility Tokens flow</text><text fill="#888888" font-family="sans-serif" font-size="10" lengthAdjust="spacing" textLength="369" x="453.74" y="1400.7484">Hermes: Contract Interactions - PlantUML diagram | author: @kamilchmielu</text><!--SRC=[lLXRRzis57xNhpXeWDa6V4dJXmr2B6m9d3H0qXb9qpuKHK1Bnp8HYX98gawszR-Ff2HRacL7MMRxmPP8dYk_y_7GYYg6CBazFpc-96c84gGY2Y4Y_e9oT9nH1qPl_ZYZ4MpzdCTS2U8h2Ji_LijRFz0PEJuZKbP2FZs5xbqVmfW5FV0y_KvcqlgaN_vsZFN184bdZFg3WNrDALSVJi25q6WuV_OPNYCFrQ8wIxalC4AkBWJYN_YLyY1UsYKHIHBAGwC1rRr4OLtvYZHSgEO5ZNC-uKNw9ay-Od13dhAWxCBXK7k2WXCs7DOa7xJQkitiqKogM17MQF4XBPpDJ4nu6g4WCuPtg8P_1850AVMZDT5kMO29G5-ZBiZr_jmlxAPs9-4Nc3nboO5vodr5OouF2JlNNS5ZXSD97s91U8WMXPZxLq8X94IGI4AEGv8byjjtZGJ60g98WSbhAjKAZE_VdrINBEtMoaAfG1AiTAxGwwT2QESikfrYwL9GXNQjtgKifZCYySk9ZS5rYU-B5Cy4dRKBA8kd6ewsRL2cBUmF1bTvOMWOJ0NzOJXl1mhs2eE7AWxoAZIaTDK7Pbv2GPvpPYeA-aLCv4c4sfW51vIHiO83rBRVxdiJGahU7zLuf6lrzzRWg4PQBBQOcl3WDL5kTM63WxSOjz2jfNZQX-L23sTcamm9stER2qgbGQtJk5mpP06URfxLVf7U7loWkDJUgrHeQ7LNmt5IsOK0cIBb7SZo_tF_9x0j1R8L-lz_3JYTWdaxvhcqbJL6x3Wlm6Smy7PIgkkMIGoEPYpLLDOfYhzklh4IQqxKINl3XKObhckBqOL8XaE9FD3qjjln5Oktjf2LTed_lz7lBnZ9pu7M9fP5Xv0z60FEA_BVrenVsgqQ0bwJz4ODzMxZ3ReQsxlNwNDQGyUetNhIvckQujs5bPqwzIvVbIPpPX-MbtIDrLwR83QpihrrRKxDkkzyo-w_b8sjDey41krsQxabuCr6lr5fzJnjNJ9rkOBgTXDeZTlg9sc3zGqARZPKFsixpdy9OjDyNUygtPaR-x-j0doAJGCC1xgjScqDX0qndbUJyMxN9V9T-TxMBVg_iTSqLBGaFIjpRzd6WykiABoYwN7qgGN67USWQRx6q1WyK9eTPitP18p7XV7ns0wSpZLHWH-pM8ppsyoVzkTqP6Oy6C3d-15rzoJJ964K0r0ng0N2FQTVFa0Insn3KPAAXA4tjJzhHPd4fulFC6VvVmLbAODoxqn_hIK-Jcvl9dU51urIccQyMmpMChCMGg4-rBXtQRvBxYdAg7gk2EfCvTax233kr3Cpg3yCCEGZvVOEeA4VeCG4VZqk3MeOF9h1tuuTVRkEbmyHVTBELSHq0MVNYRDOwBxlt6GNPepuZzceVWX5dF8Wcx7t4JjpePDUNgtlDVDOgnFm4KMaAM3rtrcrXn_0b16kxc-k8Q0aD5xy0oHLYrYuyFiZYIZp5n55bluB]--></g></svg>